SplineFontDB: 3.0
FontName: TeXGyrePagella-Regular
FullName: TeXGyrePagella-Regular
FamilyName: TeXGyrePagella
Weight: Regular
Copyright: Copyright 2006-2018 for TeX Gyre extensions by B. Jackowski, J.M. Nowacki, et al. (on behalf of TeX USERS GROUPS). Vietnamese characters were added by Han The Thanh.
UComments: "2018-5-8: Created with FontForge (http://fontforge.org)"
Version: 2.501
ItalicAngle: 0
UnderlinePosition: -100
UnderlineWidth: 50
Ascent: 726
Descent: 274
InvalidEm: 0
sfntRevision: 0x00028042
LayerCount: 2
Layer: 0 0 "Back" 1
Layer: 1 0 "Fore" 0
XUID: [1021 972 -1715272132 28637]
StyleMap: 0x0040
FSType: 0
OS2Version: 0
OS2_WeightWidthSlopeOnly: 0
OS2_UseTypoMetrics: 1
CreationTime: 1525771307
ModificationTime: 1525771312
PfmFamily: 16
TTFWeight: 400
TTFWidth: 5
LineGap: 0
VLineGap: 90
Panose: 2 0 6 3 2 2 0 0 0 3
OS2TypoAscent: 726
OS2TypoAOffset: 0
OS2TypoDescent: -281
OS2TypoDOffset: 0
OS2TypoLinegap: 0
OS2WinAscent: 0
OS2WinAOffset: 1
OS2WinDescent: 0
OS2WinDOffset: 1
HheadAscent: 726
HheadAOffset: 0
HheadDescent: -281
HheadDOffset: 0
OS2SubXSize: 650
OS2SubYSize: 699
OS2SubXOff: 0
OS2SubYOff: 140
OS2SupXSize: 650
OS2SupYSize: 699
OS2SupXOff: 0
OS2SupYOff: 479
OS2StrikeYSize: 49
OS2StrikeYPos: 258
Lookup: 3 0 0 "'aalt' Access All Alternates lookup 0" { "'aalt' Access All Alternates lookup 0 subtable"  } ['aalt' ('DFLT' <'dflt' > ) ]
Lookup: 3 0 0 "'aalt' Access All Alternates in Latin lookup 0" { "'aalt' Access All Alternates in Latin lookup 0 subtable"  } ['aalt' ('latn' <'ROM ' 'MOL ' 'dflt' 'AZE ' 'CRT ' 'NLD ' 'PLK ' 'TRK ' > ) ]
Lookup: 2 0 0 "ccmp_decomp_sub" { "ccmp_decomp_sub subtable"  } []
Lookup: 1 0 0 "locl_ROM" { "locl_ROM subtable"  } ['locl' ('latn' <'ROM ' 'MOL ' > ) ]
Lookup: 1 0 0 "'smcp' Lowercase to Small Capitals in Latin lookup 2" { "'smcp' Lowercase to Small Capitals in Latin lookup 2 subtable"  } ['smcp' ('latn' <'dflt' 'AZE ' 'CRT ' 'MOL ' 'NLD ' 'PLK ' 'ROM ' 'TRK ' > 'DFLT' <'dflt' > ) ]

StartChar: acute
Encoding: 256 180 0
Width: 333
VWidth: 0
Flags: W
TeX: 677 0
HStem: 506 171
VStem: 78 224
LayerCount: 2
Fore
SplineSet
78 506 m 1
 216 644 l 2
 238 666 256 677 271 677 c 0
 288 677 302 662 302 643 c 0
 302 625 295 617 262 596 c 2
 118 506 l 1
 78 506 l 1
EndSplineSet
Validated: 1
EndChar

StartChar: acute.cap
Encoding: 257 -1 1
Width: 333
VWidth: 0
Flags: W
TeX: 645 0
HStem: 579 66<261 297.305>
VStem: 62 242
LayerCount: 2
Fore
SplineSet
62 506 m 1
 211 619 l 2
 234 636 254 644 271 645 c 0
 289 645 304 633 304 618 c 0
 304 603 296 596 261 579 c 2
 105 506 l 1
 62 506 l 1
EndSplineSet
Validated: 1
EndChar

StartChar: circumflex
Encoding: 258 710 2
Width: 333
VWidth: 0
Flags: W
TeX: 677 0
HStem: 509 167
VStem: 11 312
LayerCount: 2
Fore
SplineSet
11 509 m 1
 136 676 l 1
 198 676 l 1
 323 509 l 1
 288 509 l 1
 167 612 l 1
 46 509 l 1
 11 509 l 1
EndSplineSet
Validated: 1
EndChar

StartChar: circumflex.cap
Encoding: 259 -1 3
Width: 333
VWidth: 0
Flags: W
TeX: 644 0
HStem: 509 135
LayerCount: 2
Fore
SplineSet
-2 509 m 1
 132 644 l 1
 200 644 l 1
 335 509 l 1
 297 509 l 1
 166 593 l 1
 35 509 l 1
 -2 509 l 1
EndSplineSet
Validated: 1
EndChar

StartChar: dieresis
Encoding: 260 168 4
Width: 333
VWidth: 0
Flags: W
TeX: 637 0
HStem: 542 100<24.9102 109.09 223.91 308.09>
VStem: 17 100<549.285 634.09> 216 100<549.285 634.09>
LayerCount: 2
Fore
SplineSet
17 592 m 0
 17 622 37 642 68 642 c 0
 97 642 117 621 117 592 c 0
 117 562 97 542 67 542 c 0
 37 542 17 562 17 592 c 0
216 592 m 0
 216 622 236 642 267 642 c 0
 296 642 316 621 316 592 c 0
 316 562 296 542 266 542 c 0
 236 542 216 562 216 592 c 0
EndSplineSet
Validated: 1
EndChar

StartChar: breve
Encoding: 261 728 5
Width: 333
VWidth: 0
Flags: W
TeX: 664 0
HStem: 513 60<97.1282 237.202>
VStem: 26 30<623.135 671> 278 30<623.622 671>
LayerCount: 2
Fore
SplineSet
26 671 m 1
 56 671 l 1
 59 614 105 573 167 573 c 0
 229 573 275 614 278 671 c 1
 308 671 l 1
 306 627 300 605 284 578 c 0
 260 536 218 513 167 513 c 0
 113 513 70 538 46 584 c 0
 33 610 28 630 26 671 c 1
EndSplineSet
Validated: 1
EndChar

StartChar: breve.cap
Encoding: 262 -1 6
Width: 333
VWidth: 0
Flags: W
TeX: 641 0
HStem: 512 49<83.9499 248.448>
VStem: 14 32<604.504 641> 286 33<601.619 641>
LayerCount: 2
Fore
SplineSet
14 641 m 1
 46 641 l 1
 50 594 99 561 166 561 c 0
 234 561 283 594 286 641 c 1
 319 641 l 1
 313 557 254 512 166 512 c 0
 78 512 19 557 14 641 c 1
EndSplineSet
Validated: 1
EndChar

StartChar: dotaccent
Encoding: 263 729 7
Width: 333
VWidth: 0
Flags: W
TeX: 637 0
HStem: 542 100<124.91 209.09>
VStem: 117 100<549.285 634.09>
LayerCount: 2
Fore
SplineSet
117 592 m 0
 117 622 137 642 168 642 c 0
 197 642 217 621 217 592 c 0
 217 562 197 542 167 542 c 0
 137 542 117 562 117 592 c 0
EndSplineSet
Validated: 1
EndChar

StartChar: macron
Encoding: 264 175 8
Width: 333
VWidth: 0
Flags: W
TeX: 591 0
HStem: 566 53<11 323>
VStem: 11 312<566 619>
LayerCount: 2
Fore
SplineSet
11 566 m 1
 11 619 l 1
 323 619 l 1
 323 566 l 1
 11 566 l 1
EndSplineSet
Validated: 1
AlternateSubs2: "'aalt' Access All Alternates lookup 0 subtable" macron.alt
AlternateSubs2: "'aalt' Access All Alternates in Latin lookup 0 subtable" macron.alt
Substitution2: "'ss04' Style Set 4 in Latin lookup 18 subtable" macron.alt
Substitution2: "'ss01' Style Set 1 in Latin lookup 15 subtable" macron.alt
Substitution2: "'salt' Stylistic Alternatives in Latin lookup 14 subtable" macron.alt
EndChar

StartChar: ring
Encoding: 265 730 9
Width: 333
VWidth: 0
Flags: W
TeX: 712 0
HStem: 492 36<122.53 211.065> 656 36<122.26 211.499>
VStem: 67 38<543.883 640.05> 229 38<544.351 639.428>
LayerCount: 2
Fore
SplineSet
67 593 m 0
 67 648 112 692 169 692 c 0
 222 692 267 647 267 592 c 0
 267 536 222 492 167 492 c 0
 111 492 67 536 67 593 c 0
105 593 m 0
 105 553 129 528 167 528 c 0
 204 528 229 554 229 592 c 0
 229 630 204 656 168 656 c 0
 130 656 105 631 105 593 c 0
EndSplineSet
Validated: 1
EndChar

StartChar: hungarumlaut
Encoding: 266 733 10
Width: 380
VWidth: 0
Flags: W
TeX: 687 0
HStem: 502 181<240 263>
LayerCount: 2
Fore
SplineSet
73 502 m 1
 201 650 l 2
 218 670 240 683 256 683 c 0
 273 683 287 668 287 650 c 0
 287 634 277 621 248 600 c 2
 113 502 l 1
 73 502 l 1
223 502 m 1
 351 650 l 2
 368 670 390 683 406 683 c 0
 423 683 437 668 437 650 c 0
 437 634 427 621 398 600 c 2
 263 502 l 1
 223 502 l 1
EndSplineSet
Validated: 1
EndChar

StartChar: caron
Encoding: 267 711 11
Width: 333
VWidth: 0
Flags: W
TeX: 677 0
HStem: 509 167
VStem: 11 312
LayerCount: 2
Fore
SplineSet
11 676 m 1
 46 676 l 1
 167 573 l 1
 289 676 l 1
 323 676 l 1
 198 509 l 1
 136 509 l 1
 11 676 l 1
EndSplineSet
Validated: 1
EndChar

StartChar: tilde
Encoding: 268 732 12
Width: 333
VWidth: 0
Flags: W
TeX: 640 0
HStem: 540 55<182.989 286.198> 585 55<44.503 146.588>
VStem: 2 330
LayerCount: 2
Fore
SplineSet
2 540 m 1xa0
 16 605 53 640 108 640 c 0x60
 132 640 144 636 197 610 c 0
 221 599 232 595 244 595 c 0
 272 595 288 608 303 645 c 1
 332 645 l 1
 328 587 280 540 223 540 c 0xa0
 201 540 185 544 155 559 c 0
 118 577 98 585 84 585 c 0x60
 60 585 44 571 31 540 c 1
 2 540 l 1xa0
EndSplineSet
Validated: 1
EndChar

StartChar: cedilla
Encoding: 269 184 13
Width: 333
VWidth: 0
Flags: W
TeX: 0 -225
HStem: -225 36<104.764 220.721> -107 36<182.5 222.298>
VStem: 229 75<-182.244 -111.259>
LayerCount: 2
Fore
SplineSet
96 -209 m 1
 110 -178 l 1
 143 -187 157 -189 175 -189 c 0
 210 -189 229 -174 229 -146 c 0
 229 -123 213 -107 189 -107 c 0
 176 -107 167 -109 148 -114 c 1
 141 -108 l 1
 183 10 l 1
 217 10 l 1
 192 -75 l 1
 202 -72 209 -71 219 -71 c 0
 271 -71 304 -98 304 -141 c 0
 304 -193 256 -225 180 -225 c 0
 153 -225 139 -222 96 -209 c 1
EndSplineSet
Validated: 1
EndChar

StartChar: ogonek
Encoding: 270 731 14
Width: 313
VWidth: 0
Flags: W
TeX: 15 -250
HStem: -250 46<130.503 219.522>
VStem: 49 69<-194.442 -85.5746> 239 26<-158.125 -138>
LayerCount: 2
Fore
SplineSet
49 -158 m 0
 49 -89 108 -23 176 15 c 1
 217 15 l 1
 173 -20 118 -76 118 -132 c 0
 118 -182 141 -204 166 -204 c 0
 195 -204 224 -189 231 -162 c 2
 239 -131 l 1
 265 -138 l 1
 265 -193 l 1
 228 -225 l 2
 203 -246 170 -250 137 -250 c 0
 78 -250 49 -201 49 -158 c 0
EndSplineSet
Validated: 1
EndChar

StartChar: dotlessi
Encoding: 271 305 15
Width: 287
VWidth: 0
GlyphClass: 2
Flags: W
TeX: 449 0
HStem: -3 30<21 67 225 271> 400 28<23 96.8721> 449 20G<153.5 188>
VStem: 104 84<31.9885 398.177>
AnchorPoint: "bot_acc" 146 -143 basechar 0
AnchorPoint: "dotbelow" 146 -143 basechar 0
AnchorPoint: "ogon_acc" 146 -143 basechar 0
AnchorPoint: "top_accl" 146 592 basechar 0
AnchorPoint: "dotabove" 146 592 basechar 0
LayerCount: 2
Fore
SplineSet
21 -3 m 1
 21 27 l 1
 67 30 l 2
 101 32 104 39 104 102 c 2
 104 327 l 2
 104 393 100 400 60 400 c 2
 23 400 l 1
 23 428 l 1
 76 434 128 448 179 469 c 1
 188 465 l 1
 188 102 l 2
 188 39 191 32 225 30 c 2
 271 27 l 1
 271 -3 l 1
 229 -1 188 0 146 0 c 0
 104 0 63 -1 21 -3 c 1
EndSplineSet
Validated: 1
AlternateSubs2: "'aalt' Access All Alternates lookup 0 subtable" dotlessi.sc
AlternateSubs2: "'aalt' Access All Alternates in Latin lookup 0 subtable" dotlessi.sc
Substitution2: "'smcp' Lowercase to Small Capitals in Latin lookup 2 subtable" dotlessi.sc
EndChar

StartChar: i
Encoding: 105 105 16
Width: 287
VWidth: 0
GlyphClass: 2
Flags: W
TeX: 687 0
HStem: -3 30<21 67 225 271> 400 28<23 96.8721> 449 20G<153.5 188> 542 100<103.91 188.09>
VStem: 96 100<549.285 634.09> 104 84<31.9885 398.177>
AnchorPoint: "bot_acc" 146 -143 basechar 0
AnchorPoint: "dotbelow" 146 -143 basechar 0
AnchorPoint: "ogon_acc" 146 -143 basechar 0
LayerCount: 2
Fore
SplineSet
21 -3 m 1xf4
 21 27 l 1
 67 30 l 2
 101 32 104 39 104 102 c 2
 104 327 l 2
 104 393 100 400 60 400 c 2
 23 400 l 1
 23 428 l 1
 76 434 128 448 179 469 c 1
 188 465 l 1
 188 102 l 2
 188 39 191 32 225 30 c 2
 271 27 l 1
 271 -3 l 1
 229 -1 188 0 146 0 c 0
 104 0 63 -1 21 -3 c 1xf4
96 592 m 0xf8
 96 622 116 642 147 642 c 0
 176 642 196 621 196 592 c 0
 196 562 176 542 146 542 c 0
 116 542 96 562 96 592 c 0xf8
EndSplineSet
Validated: 1
AlternateSubs2: "'aalt' Access All Alternates lookup 0 subtable" dotlessi i.sc
AlternateSubs2: "'aalt' Access All Alternates in Latin lookup 0 subtable" dotlessi i.sc
Substitution2: "ccmp_sub_acc subtable" dotlessi
Substitution2: "'smcp' Lowercase to Small Capitals in Latin lookup 2 subtable" i.sc
EndChar

StartChar: dotlessj
Encoding: 272 567 17
Width: 234
VWidth: 0
GlyphClass: 2
Flags: W
TeX: 449 -283
HStem: -283 38<-30.2105 -10.3786> 400 28<-6 67.8721> 449 20G<124.5 159>
VStem: 75 84<-151.453 398.177>
AnchorPoint: "bot_acc" 117 -426 basechar 0
AnchorPoint: "dotbelow" 117 -426 basechar 0
AnchorPoint: "ogon_acc" -25 -426 basechar 0
AnchorPoint: "top_accl" 117 592 basechar 0
AnchorPoint: "dotabove" 117 592 basechar 0
LayerCount: 2
Fore
SplineSet
-40 -245 m 1
 -31 -247 -18 -248 -10 -248 c 0
 48 -248 75 -173 75 -7 c 2
 75 327 l 2
 75 393 71 400 31 400 c 2
 -6 400 l 1
 -6 428 l 1
 47 434 99 448 150 469 c 1
 159 465 l 1
 159 -19 l 2
 159 -98 141 -162 106 -208 c 0
 68 -258 30 -279 -28 -283 c 1
 -40 -245 l 1
EndSplineSet
Validated: 1
AlternateSubs2: "'aalt' Access All Alternates lookup 0 subtable" dotlessj.sc
AlternateSubs2: "'aalt' Access All Alternates in Latin lookup 0 subtable" dotlessj.sc
Substitution2: "'smcp' Lowercase to Small Capitals in Latin lookup 2 subtable" dotlessj.sc
EndChar

StartChar: j
Encoding: 106 106 18
Width: 234
VWidth: 0
GlyphClass: 2
Flags: W
TeX: 688 -283
HStem: -283 38<-30.2105 -10.3786> 400 28<-6 67.8721> 449 20G<124.5 159> 542 100<74.9102 159.09>
VStem: 67 100<549.285 634.09> 75 84<-151.453 398.177>
AnchorPoint: "bot_acc" 117 -426 basechar 0
AnchorPoint: "dotbelow" 117 -426 basechar 0
AnchorPoint: "ogon_acc" -25 -426 basechar 0
LayerCount: 2
Fore
SplineSet
-40 -245 m 1xf4
 -31 -247 -18 -248 -10 -248 c 0
 48 -248 75 -173 75 -7 c 2
 75 327 l 2
 75 393 71 400 31 400 c 2
 -6 400 l 1
 -6 428 l 1
 47 434 99 448 150 469 c 1
 159 465 l 1
 159 -19 l 2
 159 -98 141 -162 106 -208 c 0
 68 -258 30 -279 -28 -283 c 1
 -40 -245 l 1xf4
67 592 m 0xf8
 67 622 87 642 118 642 c 0
 147 642 167 621 167 592 c 0
 167 562 147 542 117 542 c 0
 87 542 67 562 67 592 c 0xf8
EndSplineSet
Validated: 1
AlternateSubs2: "'aalt' Access All Alternates lookup 0 subtable" dotlessj j.sc
AlternateSubs2: "'aalt' Access All Alternates in Latin lookup 0 subtable" dotlessj j.sc
Substitution2: "ccmp_sub_acc subtable" dotlessj
Substitution2: "'smcp' Lowercase to Small Capitals in Latin lookup 2 subtable" j.sc
EndChar

StartChar: f_f
Encoding: 273 64256 19
Width: 623
VWidth: 0
GlyphClass: 3
Flags: W
TeX: 726 0
HStem: -3 30<23 69 227 273 313 359 517 563> 385 49<190 396 480 604> 662 66<228.806 321.308 518.806 611.308>
VStem: 106 84<31.9885 385 434 589.108> 396 84<31.9885 385 434 589.108>
LayerCount: 2
Fore
SplineSet
23 -3 m 1
 23 27 l 1
 69 30 l 2
 103 32 106 39 106 102 c 2
 106 385 l 1
 37 381 l 1
 37 403 l 1
 106 434 l 1
 106 476 l 2
 106 542 119 587 148 620 c 2
 206 686 l 2
 229 712 263 728 294 728 c 0
 309 728 321 725 341 717 c 1
 341 640 l 1
 329 634 l 1
 305 655 287 662 260 662 c 0
 203 662 190 635 190 519 c 2
 190 434 l 1
 396 434 l 1
 396 476 l 2
 396 542 409 587 438 620 c 2
 496 686 l 2
 519 712 553 728 584 728 c 0
 599 728 611 725 631 717 c 1
 631 640 l 1
 619 634 l 1
 595 655 577 662 550 662 c 0
 493 662 480 635 480 519 c 2
 480 434 l 1
 611 438 l 1
 604 385 l 1
 480 385 l 1
 480 102 l 2
 480 39 483 32 517 30 c 2
 563 27 l 1
 563 -3 l 1
 521 -1 480 0 438 0 c 0
 396 0 355 -1 313 -3 c 1
 313 27 l 1
 359 30 l 2
 393 32 396 39 396 102 c 2
 396 385 l 1
 190 385 l 1
 190 102 l 2
 190 39 193 32 227 30 c 2
 273 27 l 1
 273 -3 l 1
 231 -1 190 0 148 0 c 0
 106 0 65 -1 23 -3 c 1
EndSplineSet
Validated: 1
Ligature2: "liga_f_f_l subtable" f f
EndChar

StartChar: f_f_i
Encoding: 274 64259 20
Width: 897
VWidth: 0
GlyphClass: 3
Flags: W
TeX: 726 0
HStem: -3 30<23 69 227 273 312 358 516 568 626 672 830 876> 385 49<190 395 479 593> 398 28<628 701.741> 449 20G<762 793> 542 100<713.91 798.09> 662 66<228.806 321.308 517.806 610.308>
VStem: 106 84<31.9885 385 434 589.108> 395 84<31.9885 385 434 589.108> 706 100<549.285 634.09> 709 84<31.9885 396.177>
LayerCount: 2
Fore
SplineSet
23 -3 m 1xdf
 23 27 l 1
 69 30 l 2
 103 32 106 39 106 102 c 2
 106 385 l 1
 37 381 l 1
 37 403 l 1
 106 434 l 1
 106 476 l 2
 106 542 119 587 148 620 c 2
 206 686 l 2
 229 712 263 728 294 728 c 0
 309 728 321 725 341 717 c 1
 341 640 l 1
 329 634 l 1
 305 655 287 662 260 662 c 0
 203 662 190 635 190 519 c 2
 190 434 l 1
 395 434 l 1
 395 476 l 2
 395 542 408 587 437 620 c 2
 495 686 l 2
 518 712 552 728 583 728 c 0
 598 728 610 725 630 717 c 1
 630 640 l 1
 618 634 l 1
 594 655 576 662 549 662 c 0
 492 662 479 635 479 519 c 2
 479 434 l 1
 600 438 l 1
 593 385 l 1
 479 385 l 1
 479 102 l 2
 479 39 482 32 516 30 c 2
 568 27 l 1
 568 -3 l 1
 525 -1 481 0 438 0 c 0
 396 0 354 -1 312 -3 c 1
 312 27 l 1
 358 30 l 2
 392 32 395 39 395 102 c 2
 395 385 l 1
 190 385 l 1
 190 102 l 2
 190 39 193 32 227 30 c 2
 273 27 l 1
 273 -3 l 1
 231 -1 190 0 148 0 c 0
 106 0 65 -1 23 -3 c 1xdf
626 -3 m 1
 626 27 l 1
 672 30 l 2
 706 32 709 39 709 102 c 2
 709 325 l 2
 709 391 705 398 665 398 c 2
 628 398 l 1
 628 426 l 1
 687 433 740 447 784 469 c 1
 793 462 l 1
 793 102 l 2xbf40
 793 39 796 32 830 30 c 2
 876 27 l 1
 876 -3 l 1
 834 -1 793 0 751 0 c 0
 709 0 668 -1 626 -3 c 1
706 592 m 0x9f80
 706 622 726 642 757 642 c 0
 786 642 806 621 806 592 c 0
 806 562 786 542 756 542 c 0
 726 542 706 562 706 592 c 0x9f80
EndSplineSet
Validated: 1
Ligature2: "liga_PLK subtable" f_f i
Ligature2: "liga_NLDb subtable" f_f i
Ligature2: "liga_f_i subtable" f_f i
EndChar

StartChar: f_f_l
Encoding: 275 64260 21
Width: 900
VWidth: 0
GlyphClass: 3
Flags: W
TeX: 726 0
HStem: -3 30<23 69 227 273 313 359 517 569 630 676 834 880> 385 49<190 396 480 604> 662 66<228.806 321.308 519.486 614.773> 706 20G<767 797>
VStem: 106 84<31.9885 385 434 589.108> 396 84<31.9885 385 434 589.108> 713 84<31.9885 660.653>
LayerCount: 2
Fore
SplineSet
23 -3 m 1xee
 23 27 l 1
 69 30 l 2
 103 32 106 39 106 102 c 2
 106 385 l 1
 37 381 l 1
 37 403 l 1
 106 434 l 1
 106 476 l 2
 106 542 119 587 148 620 c 2
 206 686 l 2
 229 712 263 728 294 728 c 0
 309 728 321 725 341 717 c 1
 341 640 l 1
 329 634 l 1
 305 655 287 662 260 662 c 0
 203 662 190 635 190 519 c 2
 190 434 l 1
 396 434 l 1
 396 476 l 2
 396 542 409 587 438 620 c 2
 496 686 l 2
 519 712 553 728 584 728 c 0xee
 594 728 603 727 624 722 c 0
 633 720 635 719 646 717 c 1
 646 689 l 1
 713 703 746 711 788 726 c 1xde
 797 716 l 1
 797 102 l 2
 797 39 800 32 834 30 c 2
 880 27 l 1
 880 -3 l 1
 838 -1 797 0 755 0 c 0
 713 0 672 -1 630 -3 c 1
 630 27 l 1
 676 30 l 2
 710 32 713 39 713 102 c 2
 713 606 l 2
 713 642 704 661 688 661 c 2
 646 661 l 1
 646 640 l 1
 624 634 l 1
 594 655 576 662 549 662 c 0
 493 662 480 634 480 519 c 2
 480 434 l 1
 611 438 l 1
 604 385 l 1
 480 385 l 1
 480 102 l 2
 480 39 483 32 517 30 c 2
 569 27 l 1
 569 -3 l 1
 526 -1 482 0 439 0 c 0
 397 0 355 -1 313 -3 c 1
 313 27 l 1
 359 30 l 2
 393 32 396 39 396 102 c 2
 396 385 l 1
 190 385 l 1
 190 102 l 2
 190 39 193 32 227 30 c 2
 273 27 l 1
 273 -3 l 1
 231 -1 190 0 148 0 c 0
 106 0 65 -1 23 -3 c 1xee
EndSplineSet
Validated: 1
Ligature2: "liga_f_f_l subtable" f f l
EndChar

StartChar: f_k
Encoding: 276 -1 22
Width: 876
VWidth: 0
GlyphClass: 3
Flags: W
TeX: 726 0
HStem: -3 30<23 69 227 273 341 387 545 589> 17 23<845.828 869> 385 49<190 314> 429 30<771.895 831> 661 30<356 418.927> 662 66<228.806 325.203> 706 20G<478.5 508>
VStem: 106 84<31.9885 385 434 589.108> 424 84<31.9885 240 261 660.869>
LayerCount: 2
Fore
SplineSet
23 -3 m 1xa580
 23 27 l 1
 69 30 l 2
 103 32 106 39 106 102 c 2
 106 385 l 1
 37 381 l 1
 37 403 l 1
 106 434 l 1
 106 476 l 2
 106 542 119 587 148 620 c 2
 206 686 l 2
 229 712 263 728 294 728 c 0xa580
 309 728 336 725 356 717 c 1
 356 691 l 1
 426 702 458 710 499 726 c 1
 508 718 l 1
 508 261 l 1
 581 320 l 2
 618 350 667 395 731 459 c 1
 831 459 l 1
 831 429 l 1
 796 429 770 418 723 382 c 2
 594 281 l 1
 611 261 623 248 658 213 c 2
 784 88 l 2
 816 57 845 40 869 40 c 1
 869 17 l 1x5b80
 773 -12 l 1
 508 240 l 1
 508 102 l 2
 508 39 511 32 545 30 c 2
 589 27 l 1
 589 -3 l 1
 549 -1 508 0 468 0 c 0
 426 0 383 -1 341 -3 c 1
 341 27 l 1
 387 30 l 2
 421 32 424 39 424 102 c 2
 424 620 l 2
 424 650 417 661 399 661 c 2
 356 661 l 1x8980
 356 640 l 1
 333 634 l 1
 309 655 287 662 260 662 c 0
 203 662 190 635 190 519 c 2
 190 434 l 1
 234 434 277 435 321 438 c 1
 314 385 l 1
 190 385 l 1
 190 102 l 2
 190 39 193 32 227 30 c 2
 273 27 l 1
 273 -3 l 1
 231 -1 190 0 148 0 c 0
 106 0 65 -1 23 -3 c 1xa580
EndSplineSet
Validated: 1
Ligature2: "liga_PLK subtable" f k
EndChar

StartChar: exclam
Encoding: 33 33 23
Width: 278
VWidth: 0
Flags: W
TeX: 692 0
HStem: -5 116<95.3052 182.932> 674 20G<120.526 194>
VStem: 81 116<9.49126 96.1719> 120 38<223 326.69>
LayerCount: 2
Fore
SplineSet
81 53 m 0xe0
 81 83 108 111 138 111 c 0
 169 111 197 83 197 53 c 0
 197 22 169 -5 137 -5 c 0
 108 -5 81 23 81 53 c 0xe0
85 656 m 1
 160 694 l 1
 194 694 l 1
 194 669 l 2
 194 647 192 615 187 574 c 2
 158 248 l 1
 158 223 l 1
 130 200 l 1
 120 205 l 1xd0
 118 245 l 1
 85 656 l 1
EndSplineSet
Validated: 1
EndChar

StartChar: numbersign
Encoding: 35 35 24
Width: 500
VWidth: 0
Flags: W
TeX: 684 0
HStem: 224 56<4 111 178 303 370 470> 419 56<31 141 207 332 398 495>
LayerCount: 2
Fore
SplineSet
4 224 m 1
 4 280 l 1
 120 280 l 1
 141 419 l 1
 31 419 l 1
 31 475 l 1
 149 475 l 1
 180 684 l 1
 238 684 l 1
 207 475 l 1
 340 475 l 1
 370 684 l 1
 428 684 l 1
 398 475 l 1
 495 475 l 1
 495 419 l 1
 390 419 l 1
 370 280 l 1
 470 280 l 1
 470 224 l 1
 361 224 l 1
 330 0 l 1
 272 0 l 1
 303 224 l 1
 169 224 l 1
 136 0 l 1
 78 0 l 1
 111 224 l 1
 4 224 l 1
178 280 m 1
 312 280 l 1
 332 419 l 1
 199 419 l 1
 178 280 l 1
EndSplineSet
Validated: 1
EndChar

StartChar: dollar
Encoding: 36 36 25
Width: 500
VWidth: 0
Flags: W
TeX: 731 -116
HStem: -18 36<139.747 223 260 311.327> 297 82<148.299 223 260 325.109> 633 36<167.46 223 260 337.336>
VStem: 30 75<418.865 555.262> 42 32<65.7431 172> 223 37<-116 -18 18 292 379 630> 381 32<500 598.264> 392 79<110.107 245.763>
LayerCount: 2
Fore
SplineSet
30 24 m 1xf5
 36 63 39 93 42 172 c 1
 74 172 l 1
 74 108 l 2xec
 74 84 76 79 88 67 c 0
 116 40 158 25 223 18 c 1
 223 297 l 1
 144 306 109 316 80 338 c 0
 46 363 30 402 30 458 c 0
 30 532 61 592 118 629 c 0
 148 649 172 657 223 666 c 1
 219 731 l 1
 264 731 l 1
 262 712 261 700 260 669 c 1
 340 663 379 653 426 626 c 1
 417 593 413 554 413 500 c 1
 381 500 l 1
 381 542 l 2xf6
 381 579 377 591 358 604 c 0
 333 620 306 629 260 633 c 1
 260 373 l 1
 347 364 385 353 417 330 c 0
 453 304 471 264 471 207 c 0
 471 132 437 68 374 27 c 0
 341 5 315 -5 260 -16 c 1
 264 -116 l 1
 219 -116 l 1
 221 -95 221 -82 223 -18 c 1
 161 -17 95 -2 30 24 c 1xf5
105 494 m 0xf4
 105 421 137 390 223 379 c 1
 223 630 l 1
 187 626 171 620 151 604 c 0
 121 580 105 541 105 494 c 0xf4
260 18 m 1
 340 32 392 92 392 173 c 0xe5
 392 246 358 277 260 292 c 1
 260 18 l 1
EndSplineSet
Validated: 1
AlternateSubs2: "'aalt' Access All Alternates lookup 0 subtable" dollar.oldstyle
AlternateSubs2: "'aalt' Access All Alternates in Latin lookup 0 subtable" dollar.oldstyle
Substitution2: "'onum' Oldstyle Figures in Latin lookup 3 subtable" dollar.oldstyle
EndChar

StartChar: percent
Encoding: 37 37 26
Width: 840
VWidth: 0
Flags: W
TeX: 692 0
HStem: 0 23<602.943 678.698> 298 23<607.699 682.443> 368 23<155.943 231.698> 666 23<160.699 235.443> 689 20G<565.959 616>
VStem: 39 72<440.352 607.667> 283 72<450.239 616.206> 486 72<72.3517 239.667> 730 72<82.2387 248.206>
LayerCount: 2
Fore
SplineSet
39 522 m 0xf780
 39 619 108 689 203 689 c 0
 290 689 355 623 355 535 c 0
 355 439 286 368 193 368 c 0
 104 368 39 433 39 522 c 0xf780
111 526 m 0
 111 440 141 391 194 391 c 0
 248 391 283 447 283 533 c 0
 283 615 251 666 200 666 c 0
 145 666 111 612 111 526 c 0
210 -20 m 1
 576 709 l 1
 616 709 l 1xef80
 250 -20 l 1
 210 -20 l 1
486 154 m 0
 486 251 555 321 650 321 c 0
 737 321 802 255 802 167 c 0
 802 71 733 0 640 0 c 0
 551 0 486 65 486 154 c 0
558 158 m 0
 558 72 588 23 641 23 c 0
 695 23 730 79 730 165 c 0
 730 247 698 298 647 298 c 0
 592 298 558 244 558 158 c 0
EndSplineSet
Validated: 1
EndChar

StartChar: ampersand
Encoding: 38 38 27
Width: 778
VWidth: 0
Flags: W
TeX: 692 0
HStem: -20 75<593.611 687.668> -20 56<219.892 359.523> 334 53<590 728.178> 344 45<451 517.331> 636 53<261.909 341.161>
VStem: 43 87<127.224 262.787> 168 70<443.702 603.444> 357 67<519.236 621.808> 532 63<201.339 331.175>
LayerCount: 2
Fore
SplineSet
43 172 m 0x4f80
 43 222 61 268 96 309 c 0
 122 338 144 356 198 387 c 1
 177 440 168 479 168 520 c 0
 168 561 177 593 192 606 c 2
 260 666 l 2
 278 682 299 689 326 689 c 0
 388 689 424 656 424 599 c 0
 424 553 404 510 360 463 c 0
 340 443 322 428 280 397 c 1
 336 306 395 232 484 141 c 1
 520 189 532 218 532 254 c 0
 532 295 520 330 505 334 c 0x6f80
 493 337 477 339 418 344 c 1
 451 389 l 1x1f80
 548 387 l 2
 624 387 742 394 742 394 c 1
 733 365 730 347 730 322 c 1
 691 328 661 331 590 334 c 1
 594 319 595 310 595 295 c 0
 595 232 573 184 514 118 c 1
 599 69 637 55 686 55 c 0
 703 55 717 60 747 74 c 1
 753 49 l 1
 666 -14 l 2
 660 -18 650 -20 632 -20 c 0xaf80
 584 -20 509 12 451 57 c 1
 380 2 322 -20 249 -20 c 0
 130 -20 43 60 43 172 c 0x4f80
130 209 m 0
 130 116 207 36 296 36 c 0
 336 36 373 50 420 82 c 1
 307 208 258 271 213 352 c 1
 152 304 130 267 130 209 c 0
238 557 m 0
 238 522 245 487 264 431 c 1
 318 469 357 523 357 569 c 0
 357 607 332 636 299 636 c 0
 259 636 238 608 238 557 c 0
EndSplineSet
Validated: 1
AlternateSubs2: "'aalt' Access All Alternates lookup 0 subtable" ampersand
AlternateSubs2: "'aalt' Access All Alternates in Latin lookup 0 subtable" ampersand
Substitution2: "'lnum' Lining Figures in Latin lookup 4 subtable" ampersand
Substitution2: "'onum' Oldstyle Figures in Latin lookup 3 subtable" ampersand
EndChar

StartChar: comma
Encoding: 44 44 28
Width: 250
VWidth: 0
Flags: W
TeX: 123 -155
HStem: -155 278
VStem: 16 202
LayerCount: 2
Fore
SplineSet
16 -144 m 1
 74 -48 99 17 106 93 c 1
 159 108 177 114 204 123 c 1
 218 109 l 1
 190 32 152 -31 71 -136 c 1
 30 -155 l 1
 16 -144 l 1
EndSplineSet
Validated: 1
EndChar

StartChar: hyphen
Encoding: 45 45 29
Width: 333
VWidth: 0
Flags: W
TeX: 287 0
HStem: 215 72<44 282>
VStem: 17 295
LayerCount: 2
Fore
SplineSet
17 220 m 1
 44 287 l 1
 307 287 l 1
 312 282 l 1
 282 215 l 1
 22 215 l 1
 17 220 l 1
EndSplineSet
Validated: 1
EndChar

StartChar: period
Encoding: 46 46 30
Width: 250
VWidth: 0
Flags: W
TeX: 111 0
HStem: -5 116<81.3052 168.932>
VStem: 67 116<9.49126 96.1719>
LayerCount: 2
Fore
SplineSet
67 53 m 0
 67 83 94 111 124 111 c 0
 155 111 183 83 183 53 c 0
 183 22 155 -5 123 -5 c 0
 94 -5 67 23 67 53 c 0
EndSplineSet
Validated: 1
EndChar

StartChar: zero
Encoding: 48 48 31
Width: 500
VWidth: 0
Flags: W
TeX: 692 0
HStem: -20 35<192.346 309.666> 654 35<184.072 301.764>
VStem: 29 84<136.55 508.31> 381 84<168.27 542.983>
LayerCount: 2
Fore
SplineSet
29 324 m 0
 29 566 108 689 263 689 c 0
 400 689 465 585 465 366 c 0
 465 110 389 -20 238 -20 c 0
 176 -20 120 8 85 57 c 0
 50 106 29 207 29 324 c 0
113 360 m 0
 113 116 154 15 251 15 c 0
 343 15 381 103 381 316 c 0
 381 556 342 654 245 654 c 0
 150 654 113 571 113 360 c 0
EndSplineSet
Validated: 1
AlternateSubs2: "'aalt' Access All Alternates lookup 0 subtable" zero.slash zero.prop zero.oldstyle
AlternateSubs2: "'aalt' Access All Alternates in Latin lookup 0 subtable" zero.slash zero.prop zero.oldstyle
Substitution2: "'zero' Slashed Zero in Latin lookup 21 subtable" zero.slash
Substitution2: "'pnum' Proportional Numbers in Latin lookup 5 subtable" zero.prop
Substitution2: "'onum' Oldstyle Figures in Latin lookup 3 subtable" zero.oldstyle
EndChar

StartChar: one
Encoding: 49 49 32
Width: 500
VWidth: 0
Flags: W
TeX: 692 0
HStem: -3 30<96 152 366 418> 555 43<67 77> 674 20G<254.5 301>
VStem: 217 84<37.8656 613.993>
LayerCount: 2
Fore
SplineSet
60 598 m 1
 151 630 222 660 287 694 c 1
 301 689 l 1
 301 96 l 2
 301 44 311 33 366 30 c 2
 418 27 l 1
 418 -3 l 1
 366 -1 313 0 261 0 c 0
 206 0 151 -1 96 -3 c 1
 96 27 l 1
 152 30 l 2
 206 33 217 44 217 96 c 2
 217 581 l 2
 217 605 215 614 209 614 c 2
 206 613 l 1
 77 555 l 1
 67 555 l 1
 60 598 l 1
EndSplineSet
Validated: 1
AlternateSubs2: "'aalt' Access All Alternates lookup 0 subtable" one.prop one.oldstyle
AlternateSubs2: "'aalt' Access All Alternates in Latin lookup 0 subtable" one.prop one.oldstyle
Substitution2: "'pnum' Proportional Numbers in Latin lookup 5 subtable" one.prop
Substitution2: "'onum' Oldstyle Figures in Latin lookup 3 subtable" one.oldstyle
EndChar

StartChar: two
Encoding: 50 50 33
Width: 500
VWidth: 0
Flags: W
TeX: 692 0
HStem: -3 80<122 364.2> 612 77<120.559 282.119>
VStem: 39 29<483 507.769> 341 90<407.975 553.957>
LayerCount: 2
Fore
SplineSet
16 -3 m 1
 16 23 l 1
 186 204 l 2
 299 324 341 398 341 473 c 0
 341 558 286 612 200 612 c 0
 133 612 97 587 81 529 c 2
 68 483 l 1
 39 483 l 1
 56 619 l 1
 105 669 154 689 226 689 c 0
 353 689 431 618 431 503 c 0
 431 428 401 373 304 270 c 2
 122 77 l 1
 468 87 l 1
 466 65 466 55 466 42 c 0
 466 28 466 18 468 -3 c 1
 392 -1 315 0 239 0 c 0
 165 0 90 -1 16 -3 c 1
EndSplineSet
Validated: 1
AlternateSubs2: "'aalt' Access All Alternates lookup 0 subtable" two.prop two.oldstyle
AlternateSubs2: "'aalt' Access All Alternates in Latin lookup 0 subtable" two.prop two.oldstyle
Substitution2: "'pnum' Proportional Numbers in Latin lookup 5 subtable" two.prop
Substitution2: "'onum' Oldstyle Figures in Latin lookup 3 subtable" two.oldstyle
EndChar

StartChar: three
Encoding: 51 51 34
Width: 500
VWidth: 0
Flags: W
TeX: 692 0
HStem: -20 41<131.061 281.057> 334 34<165.822 267.459> 622 67<139.913 284.208>
VStem: 15 27<128.64 155.593> 43 31<498 519.778> 336 82<464.514 572.8> 369 93<135.936 278.572>
LayerCount: 2
Fore
SplineSet
15 153 m 1xfa
 42 163 l 1
 61 109 74 86 98 64 c 0
 128 36 169 21 215 21 c 0
 308 21 369 88 369 190 c 0xfa
 369 281 321 334 238 334 c 0
 211 334 192 329 154 312 c 1
 147 318 l 1
 159 371 l 1
 159 371 198 368 206 368 c 0
 277 368 336 431 336 506 c 0
 336 569 283 622 218 622 c 0
 166 622 103 588 92 554 c 2
 74 498 l 1
 43 498 l 1
 72 622 l 1
 120 670 165 689 233 689 c 0
 344 689 418 630 418 541 c 0xfc
 418 482 388 436 308 374 c 1
 358 365 381 357 406 339 c 0
 442 314 462 272 462 224 c 0
 462 177 445 133 411 92 c 0
 356 25 264 -20 184 -20 c 0
 147 -20 103 -12 50 6 c 1
 44 56 36 92 15 153 c 1xfa
EndSplineSet
Validated: 1
AlternateSubs2: "'aalt' Access All Alternates lookup 0 subtable" three.prop three.oldstyle
AlternateSubs2: "'aalt' Access All Alternates in Latin lookup 0 subtable" three.prop three.oldstyle
Substitution2: "'pnum' Proportional Numbers in Latin lookup 5 subtable" three.prop
Substitution2: "'onum' Oldstyle Figures in Latin lookup 3 subtable" three.oldstyle
EndChar

StartChar: four
Encoding: 52 52 35
Width: 500
VWidth: 0
Flags: W
TeX: 692 0
HStem: -3 30<158 263.753 424 472> 181 64<65 280 364 470.692> 674 20G<304.185 371>
VStem: 280 84<38.3837 181 245 596.84>
LayerCount: 2
Fore
SplineSet
2 204 m 1
 285 667 l 1
 359 694 l 1
 371 689 l 1
 366 648 364 562 364 384 c 2
 364 245 l 1
 391 245 l 2
 423 245 472 248 472 248 c 1
 472 177 l 1
 444 180 423 181 364 181 c 1
 364 106 l 2
 364 46 375 33 424 30 c 2
 472 27 l 1
 472 -3 l 1
 421 -1 370 0 319 0 c 0
 265 0 212 -1 158 -3 c 1
 158 27 l 1
 220 30 l 2
 269 32 280 46 280 106 c 2
 280 181 l 1
 13 181 l 1
 2 204 l 1
65 245 m 1
 280 245 l 1
 280 597 l 1
 65 245 l 1
EndSplineSet
Validated: 1
AlternateSubs2: "'aalt' Access All Alternates lookup 0 subtable" four.prop four.oldstyle
AlternateSubs2: "'aalt' Access All Alternates in Latin lookup 0 subtable" four.prop four.oldstyle
Substitution2: "'pnum' Proportional Numbers in Latin lookup 5 subtable" four.prop
Substitution2: "'onum' Oldstyle Figures in Latin lookup 3 subtable" four.oldstyle
EndChar

StartChar: five
Encoding: 53 53 36
Width: 500
VWidth: 0
Flags: W
TeX: 692 0
HStem: -20 45<106.948 275.552> 377 69<170.959 300.092> 605 79<127 431.923> 669 20G<79 84 432 437>
VStem: 75 43<396 558.556> 81 46<442.444 605> 374 85<153.063 297.821>
LayerCount: 2
Fore
SplineSet
13 137 m 1xea
 37 151 l 1
 83 69 l 2
 97 43 147 25 201 25 c 0
 310 25 374 90 374 201 c 0
 374 309 314 377 218 377 c 0
 169 377 142 363 95 316 c 1
 75 322 l 1xea
 78 366 81 459 81 547 c 2
 79 684 l 1xe6
 84 689 l 1xd6
 84 689 190 684 258 684 c 0xe6
 326 684 432 689 432 689 c 1xd6
 437 684 l 1
 435 666 435 660 435 644 c 0
 435 629 435 623 437 605 c 1
 432 600 l 1
 127 605 l 1xe6
 118 396 l 1
 180 433 216 446 264 446 c 0
 378 446 459 366 459 253 c 0
 459 179 427 111 366 57 c 0
 311 9 240 -20 173 -20 c 0
 130 -20 90 -11 62 4 c 1
 48 48 36 80 13 137 c 1xea
EndSplineSet
Validated: 1
AlternateSubs2: "'aalt' Access All Alternates lookup 0 subtable" five.prop five.oldstyle
AlternateSubs2: "'aalt' Access All Alternates in Latin lookup 0 subtable" five.prop five.oldstyle
Substitution2: "'pnum' Proportional Numbers in Latin lookup 5 subtable" five.prop
Substitution2: "'onum' Oldstyle Figures in Latin lookup 3 subtable" five.oldstyle
EndChar

StartChar: six
Encoding: 54 54 37
Width: 500
VWidth: 0
Flags: W
TeX: 692 0
HStem: -20 33<194.817 311.233> 349 60<209.435 321.315> 669 20G<331 416>
VStem: 32 91<117.412 344.125> 382 86<113.522 281.09>
LayerCount: 2
Fore
SplineSet
32 247 m 0
 32 384 88 506 191 593 c 0
 242 637 283 657 379 689 c 1
 416 672 l 1
 416 664 l 1
 236 610 152 512 131 331 c 1
 197 385 234 409 293 409 c 0
 399 409 468 334 468 219 c 0
 468 83 371 -20 241 -20 c 0
 112 -20 32 82 32 247 c 0
123 220 m 0
 123 86 169 13 254 13 c 0
 331 13 382 80 382 184 c 0
 382 283 331 349 255 349 c 0
 207 349 160 325 138 291 c 0
 127 274 123 255 123 220 c 0
EndSplineSet
Validated: 1
AlternateSubs2: "'aalt' Access All Alternates lookup 0 subtable" six.prop six.oldstyle
AlternateSubs2: "'aalt' Access All Alternates in Latin lookup 0 subtable" six.prop six.oldstyle
Substitution2: "'pnum' Proportional Numbers in Latin lookup 5 subtable" six.prop
Substitution2: "'onum' Oldstyle Figures in Latin lookup 3 subtable" six.oldstyle
EndChar

StartChar: seven
Encoding: 55 55 38
Width: 500
VWidth: 0
Flags: W
TeX: 692 0
HStem: -3 21G<56 65 157 178> 603 86<91.0941 409>
LayerCount: 2
Fore
SplineSet
44 477 m 1
 44 477 47 539 47 579 c 0
 47 620 44 684 44 684 c 1
 54 689 l 1
 151 685 168 684 273 684 c 0
 380 684 389 685 497 689 c 1
 497 659 l 1
 314 330 l 2
 225 171 199 106 157 -3 c 1
 157 -3 129 0 111 0 c 0
 93 0 65 -3 65 -3 c 1
 56 10 l 1
 300 402 l 2
 338 463 369 521 409 603 c 1
 142 603 l 2
 96 603 89 595 81 533 c 2
 74 477 l 1
 44 477 l 1
EndSplineSet
Validated: 1
AlternateSubs2: "'aalt' Access All Alternates lookup 0 subtable" seven.prop seven.oldstyle
AlternateSubs2: "'aalt' Access All Alternates in Latin lookup 0 subtable" seven.prop seven.oldstyle
Substitution2: "'pnum' Proportional Numbers in Latin lookup 5 subtable" seven.prop
Substitution2: "'onum' Oldstyle Figures in Latin lookup 3 subtable" seven.oldstyle
EndChar

StartChar: eight
Encoding: 56 56 39
Width: 500
VWidth: 0
Flags: W
TeX: 692 0
HStem: -20 34<170.763 307.229> 655 34<180.917 311.428>
VStem: 30 71<78.6559 245.304> 53 75<480.566 592.159> 368 68<472.72 606.887> 385 79<112.652 230.823>
LayerCount: 2
Fore
SplineSet
30 159 m 0xe4
 30 211 50 256 88 294 c 0
 110 315 127 326 168 345 c 1
 80 402 53 440 53 508 c 0
 53 613 140 689 259 689 c 0
 365 689 436 631 436 545 c 0xd8
 436 485 404 443 313 381 c 1
 427 329 464 286 464 206 c 0
 464 82 356 -20 226 -20 c 0
 113 -20 30 56 30 159 c 0xe4
101 167 m 0xe4
 101 74 156 14 241 14 c 0
 322 14 385 80 385 164 c 0
 385 218 347 267 284 295 c 2
 204 331 l 1
 130 286 101 240 101 167 c 0xe4
128 544 m 0xd8
 128 494 160 454 223 423 c 2
 278 396 l 1
 343 438 368 477 368 534 c 0
 368 607 320 655 247 655 c 0
 176 655 128 610 128 544 c 0xd8
EndSplineSet
Validated: 1
AlternateSubs2: "'aalt' Access All Alternates lookup 0 subtable" eight.prop eight.oldstyle
AlternateSubs2: "'aalt' Access All Alternates in Latin lookup 0 subtable" eight.prop eight.oldstyle
Substitution2: "'pnum' Proportional Numbers in Latin lookup 5 subtable" eight.prop
Substitution2: "'onum' Oldstyle Figures in Latin lookup 3 subtable" eight.oldstyle
EndChar

StartChar: nine
Encoding: 57 57 40
Width: 500
VWidth: 0
Flags: W
TeX: 692 0
HStem: -20 25<82 101.157> 256 61<170.595 284.057> 656 33<175.637 299.143>
VStem: 20 86<392.429 557.479> 370 87<328.397 550.044>
LayerCount: 2
Fore
SplineSet
20 455 m 0
 20 589 116 689 244 689 c 0
 376 689 457 586 457 417 c 0
 457 283 406 168 309 85 c 0
 255 39 207 16 96 -20 c 1
 62 -3 l 1
 62 5 l 1
 243 49 352 172 360 340 c 1
 290 282 l 2
 272 267 233 256 199 256 c 0
 95 256 20 340 20 455 c 0
106 492 m 0
 106 388 160 317 240 317 c 0
 317 317 370 379 370 471 c 0
 370 516 358 565 340 597 c 0
 318 637 285 656 240 656 c 0
 158 656 106 593 106 492 c 0
EndSplineSet
Validated: 1
AlternateSubs2: "'aalt' Access All Alternates lookup 0 subtable" nine.prop nine.oldstyle
AlternateSubs2: "'aalt' Access All Alternates in Latin lookup 0 subtable" nine.prop nine.oldstyle
Substitution2: "'pnum' Proportional Numbers in Latin lookup 5 subtable" nine.prop
Substitution2: "'onum' Oldstyle Figures in Latin lookup 3 subtable" nine.oldstyle
EndChar

StartChar: colon
Encoding: 58 58 41
Width: 250
VWidth: 0
Flags: W
TeX: 456 0
HStem: -5 116<80.3052 167.932> 340 116<80.3052 166.986>
VStem: 66 116<9.49126 96.1719 354.398 441.079>
LayerCount: 2
Fore
SplineSet
66 53 m 0
 66 83 93 111 123 111 c 0
 154 111 182 83 182 53 c 0
 182 22 154 -5 122 -5 c 0
 93 -5 66 23 66 53 c 0
66 398 m 0
 66 428 93 456 123 456 c 0
 154 456 182 428 182 397 c 0
 182 367 154 340 122 340 c 0
 93 340 66 368 66 398 c 0
EndSplineSet
Validated: 1
EndChar

StartChar: semicolon
Encoding: 59 59 42
Width: 250
VWidth: 0
Flags: W
TeX: 456 -153
HStem: 340 116<107.305 193.986>
VStem: 93 116<354.398 441.079>
LayerCount: 2
Fore
SplineSet
16 -142 m 1
 74 -46 99 19 106 95 c 1
 159 110 177 116 204 125 c 1
 218 111 l 1
 190 34 152 -29 71 -134 c 1
 30 -153 l 1
 16 -142 l 1
93 398 m 0
 93 428 120 456 150 456 c 0
 181 456 209 428 209 397 c 0
 209 367 181 340 149 340 c 0
 120 340 93 368 93 398 c 0
EndSplineSet
Validated: 1
EndChar

StartChar: question
Encoding: 63 63 43
Width: 444
VWidth: 0
Flags: W
TeX: 692 0
HStem: -5 116<155.305 242.932> 628 66<110.743 254.609>
VStem: 141 116<9.49126 96.1719> 148 43<199.309 294.842> 302 93<463.582 583.301>
LayerCount: 2
Fore
SplineSet
43 546 m 1xd8
 81 659 l 1
 134 685 169 694 213 694 c 0
 316 694 395 627 395 540 c 0
 395 483 370 444 285 366 c 0
 204 293 191 276 191 243 c 0
 191 227 197 214 213 195 c 1
 192 181 l 1
 162 200 148 224 148 254 c 0
 148 288 164 315 225 382 c 0
 284 447 302 479 302 519 c 0
 302 583 251 628 179 628 c 0
 134 628 103 613 92 586 c 2
 72 538 l 1
 43 546 l 1xd8
141 53 m 0xe8
 141 83 168 111 198 111 c 0
 229 111 257 83 257 53 c 0
 257 22 229 -5 197 -5 c 0
 168 -5 141 23 141 53 c 0xe8
EndSplineSet
Validated: 1
EndChar

StartChar: at
Encoding: 64 64 44
Width: 747
VWidth: 0
Flags: W
TeX: 692 0
HStem: -20 50<281.297 515.091> 134 29<277.587 339.796 469 555.958> 482 27<349.691 423.714> 644 50<279.74 513.943>
VStem: 24 55<223.614 450.507> 159 89<203.184 352.279> 671 53<308.224 500.777>
LayerCount: 2
Fore
SplineSet
24 331 m 0
 24 535 185 694 393 694 c 0
 579 694 724 569 724 409 c 0
 724 272 607 134 491 134 c 0
 447 134 420 164 415 218 c 1
 365 155 339 139 292 139 c 0
 218 139 159 201 159 280 c 0
 159 399 263 509 376 509 c 0
 424 509 452 484 464 429 c 1
 482 499 l 1
 570 499 l 1
 493 220 l 2
 485 190 491 163 514 163 c 0
 589 163 671 290 671 405 c 0
 671 542 554 644 397 644 c 0
 215 644 79 513 79 337 c 0
 79 161 216 30 401 30 c 0
 446 30 485 38 523 55 c 0
 579 80 610 106 658 171 c 1
 719 171 l 1
 688 120 672 100 640 72 c 0
 571 11 487 -20 394 -20 c 0
 186 -20 24 134 24 331 c 0
248 254 m 0
 248 201 272 166 308 166 c 0
 341 166 371 189 396 234 c 0
 424 283 445 359 445 410 c 0
 445 451 424 482 393 482 c 0
 364 482 332 463 305 424 c 0
 273 377 248 303 248 254 c 0
EndSplineSet
Validated: 33
AlternateSubs2: "'aalt' Access All Alternates lookup 0 subtable" at.alt
AlternateSubs2: "'aalt' Access All Alternates in Latin lookup 0 subtable" at.alt
Substitution2: "'ss02' Style Set 2 in Latin lookup 16 subtable" at.alt
Substitution2: "'ss01' Style Set 1 in Latin lookup 15 subtable" at.alt
Substitution2: "'salt' Stylistic Alternatives in Latin lookup 14 subtable" at.alt
EndChar

StartChar: at.alt
Encoding: 277 -1 45
Width: 747
VWidth: 0
Flags: W
TeX: 555 -159
HStem: -159 50<281.297 515.091> -5 29<277.587 339.796 469 555.958> 343 27<349.691 423.714> 505 50<279.74 513.943>
VStem: 24 55<84.6137 311.507> 159 89<64.1843 213.279> 671 53<169.224 361.777>
LayerCount: 2
Fore
SplineSet
24 192 m 0
 24 396 185 555 393 555 c 0
 579 555 724 430 724 270 c 0
 724 133 607 -5 491 -5 c 0
 447 -5 420 25 415 79 c 1
 365 16 339 0 292 0 c 0
 218 0 159 62 159 141 c 0
 159 260 263 370 376 370 c 0
 424 370 452 345 464 290 c 1
 482 360 l 1
 570 360 l 1
 493 81 l 2
 485 51 491 24 514 24 c 0
 589 24 671 151 671 266 c 0
 671 403 554 505 397 505 c 0
 215 505 79 374 79 198 c 0
 79 22 216 -109 401 -109 c 0
 446 -109 485 -101 523 -84 c 0
 579 -59 610 -33 658 32 c 1
 719 32 l 1
 688 -19 672 -39 640 -67 c 0
 571 -128 487 -159 394 -159 c 0
 186 -159 24 -5 24 192 c 0
248 115 m 0
 248 62 272 27 308 27 c 0
 341 27 371 50 396 95 c 0
 424 144 445 220 445 271 c 0
 445 312 424 343 393 343 c 0
 364 343 332 324 305 285 c 0
 273 238 248 164 248 115 c 0
EndSplineSet
Validated: 33
EndChar

StartChar: A
Encoding: 65 65 46
Width: 778
VWidth: 0
GlyphClass: 2
Flags: W
TeX: 692 0
HStem: -3 30<15 52 208 245 490 537 722 756> 229 40<240 493> 680 20G<376 416.521>
AnchorPoint: "bot_acc" 392 -143 basechar 0
AnchorPoint: "dotbelow" 392 -143 basechar 0
AnchorPoint: "ogon_acc" 623 -143 basechar 0
AnchorPoint: "top_accu" 392 819 basechar 0
AnchorPoint: "dotabove" 392 819 basechar 0
LayerCount: 2
Fore
SplineSet
15 -3 m 1
 15 27 l 1
 52 30 l 2
 74 32 93 50 106 79 c 2
 327 581 l 2
 365 666 376 700 376 700 c 1
 408 700 l 1
 650 132 l 2
 685 51 696 32 722 30 c 2
 756 27 l 1
 756 -3 l 1
 714 -1 671 0 629 0 c 0
 583 0 536 -1 490 -3 c 1
 490 27 l 1
 537 30 l 2
 562 32 578 39 578 50 c 0
 578 59 574 72 557 114 c 2
 511 229 l 1
 223 229 l 1
 195 162 l 2
 174 112 160 69 160 56 c 0
 160 40 173 33 208 30 c 2
 245 27 l 1
 245 -3 l 1
 205 -1 164 0 124 0 c 0
 88 0 51 -1 15 -3 c 1
240 269 m 1
 493 269 l 1
 367 567 l 1
 240 269 l 1
EndSplineSet
Validated: 1
AlternateSubs2: "'aalt' Access All Alternates lookup 0 subtable" a.sc
AlternateSubs2: "'aalt' Access All Alternates in Latin lookup 0 subtable" a.sc
Substitution2: "'c2sc' Capitals to Small Capitals in Latin lookup 13 subtable" a.sc
Position2: "'cpsp' Capital Spacing in Latin lookup 12 subtable" dx=7 dy=0 dh=14 dv=0
EndChar

StartChar: B
Encoding: 66 66 47
Width: 611
VWidth: 0
GlyphClass: 2
Flags: W
TeX: 692 0
HStem: -3 42<209.17 385.319> 364 35<208 377.517> 652 40<209.217 390.208> 662 30<26 62>
VStem: 113 95<43.0078 362 399.792 648.013> 443 99<481.308 607.526> 473 103<135.114 295.706>
AnchorPoint: "bot_acc" 301 -143 basechar 0
AnchorPoint: "dotbelow" 301 -143 basechar 0
AnchorPoint: "ogon_acc" 301 -143 basechar 0
AnchorPoint: "top_accu" 301 819 basechar 0
AnchorPoint: "dotabove" 301 819 basechar 0
LayerCount: 2
Fore
SplineSet
26 662 m 1xda
 26 692 l 1xda
 79 690 131 689 184 689 c 0
 244 689 303 692 363 692 c 0
 484 692 542 644 542 556 c 0xec
 542 504 517 461 469 428 c 0
 441 409 418 400 369 390 c 1
 446 384 480 375 518 347 c 0
 556 320 576 279 576 228 c 0
 576 158 541 90 482 48 c 0
 437 15 372 -3 298 -3 c 0
 257 -3 215 0 174 0 c 0
 138 0 101 -1 65 -3 c 1
 65 20 l 1
 91 30 l 2
 105 35 113 58 113 95 c 2
 113 569 l 2
 113 648 109 655 62 659 c 2
 26 662 l 1xda
208 47 m 1
 233 41 256 39 285 39 c 0
 404 39 473 102 473 208 c 0
 473 315 410 364 275 364 c 0
 256 364 247 364 208 362 c 1
 208 47 l 1
208 401 m 1
 239 399 252 399 269 399 c 0
 383 399 443 446 443 533 c 0
 443 616 396 652 289 652 c 0xec
 257 652 234 650 208 644 c 1
 208 401 l 1
EndSplineSet
Validated: 1
AlternateSubs2: "'aalt' Access All Alternates lookup 0 subtable" b.sc
AlternateSubs2: "'aalt' Access All Alternates in Latin lookup 0 subtable" b.sc
Substitution2: "'c2sc' Capitals to Small Capitals in Latin lookup 13 subtable" b.sc
Position2: "'cpsp' Capital Spacing in Latin lookup 12 subtable" dx=7 dy=0 dh=14 dv=0
EndChar

StartChar: C
Encoding: 67 67 48
Width: 709
VWidth: 0
GlyphClass: 2
Flags: W
TeX: 692 0
HStem: -20 54<329.541 562.244> 667 42<303.799 540.416>
VStem: 22 107<235.776 471.24> 614 31<516 613.571>
AnchorPoint: "bot_acc" 393 -143 basechar 0
AnchorPoint: "dotbelow" 393 -143 basechar 0
AnchorPoint: "ogon_acc" 393 -143 basechar 0
AnchorPoint: "top_accu" 393 819 basechar 0
AnchorPoint: "dotabove" 393 819 basechar 0
LayerCount: 2
Fore
SplineSet
22 342 m 0
 22 477 82 582 196 649 c 0
 263 688 346 709 433 709 c 0
 506 709 579 696 664 668 c 1
 650 602 646 566 645 516 c 1
 614 516 l 1
 614 588 l 2
 614 627 513 667 415 667 c 0
 243 667 129 545 129 361 c 0
 129 164 259 34 454 34 c 0
 530 34 599 54 661 94 c 1
 670 84 l 1
 642 34 l 1
 573 -2 498 -20 415 -20 c 0
 180 -20 22 126 22 342 c 0
EndSplineSet
Validated: 1
AlternateSubs2: "'aalt' Access All Alternates lookup 0 subtable" c.sc
AlternateSubs2: "'aalt' Access All Alternates in Latin lookup 0 subtable" c.sc
Substitution2: "'c2sc' Capitals to Small Capitals in Latin lookup 13 subtable" c.sc
Position2: "'cpsp' Capital Spacing in Latin lookup 12 subtable" dx=7 dy=0 dh=14 dv=0
EndChar

StartChar: D
Encoding: 68 68 49
Width: 774
VWidth: 0
GlyphClass: 2
Flags: W
TeX: 692 0
HStem: -3 44<209.222 466.88> 652 37<209.225 468.529> 662 30<22 62>
VStem: 113 95<45.2072 647.269> 644 107<254.803 497.87>
AnchorPoint: "bot_acc" 341 -143 basechar 0
AnchorPoint: "dotbelow" 341 -143 basechar 0
AnchorPoint: "ogon_acc" 341 -143 basechar 0
AnchorPoint: "top_accu" 341 819 basechar 0
AnchorPoint: "dotabove" 341 819 basechar 0
LayerCount: 2
Fore
SplineSet
22 662 m 1xb8
 22 692 l 1xb8
 91 690 159 689 228 689 c 0xd8
 286 689 344 692 402 692 c 0
 613 692 751 571 751 385 c 0
 751 278 707 170 635 99 c 0
 565 30 469 -3 341 -3 c 0
 293 -3 244 0 196 0 c 0
 150 0 103 -1 57 -3 c 1
 57 20 l 1
 88 36 l 2
 104 44 113 66 113 95 c 2
 113 569 l 2
 113 647 108 656 62 659 c 2
 22 662 l 1xb8
208 49 m 1
 234 43 265 41 311 41 c 0
 424 41 484 58 544 107 c 0
 610 161 644 247 644 359 c 0
 644 459 621 531 573 579 c 0
 520 632 430 652 319 652 c 0xd8
 269 652 234 649 208 644 c 1
 208 49 l 1
EndSplineSet
Validated: 1
AlternateSubs2: "'aalt' Access All Alternates lookup 0 subtable" d.sc
AlternateSubs2: "'aalt' Access All Alternates in Latin lookup 0 subtable" d.sc
Substitution2: "'c2sc' Capitals to Small Capitals in Latin lookup 13 subtable" d.sc
Position2: "'cpsp' Capital Spacing in Latin lookup 12 subtable" dx=7 dy=0 dh=14 dv=0
EndChar

StartChar: E
Encoding: 69 69 50
Width: 611
VWidth: 0
GlyphClass: 2
Flags: W
TeX: 692 0
HStem: -3 42<217.351 509.219> -3 30<34 70> 327 48<216 441.79> 441 20G<451 481> 650 42<217.443 495.478> 662 30<22 70>
VStem: 121 95<43.7049 327 375 645.702> 505 35<537 632.855> 532 40<63.8252 164>
AnchorPoint: "bot_acc" 306 -143 basechar 0
AnchorPoint: "dotbelow" 306 -143 basechar 0
AnchorPoint: "ogon_acc" 462 -143 basechar 0
AnchorPoint: "top_accu" 306 819 basechar 0
AnchorPoint: "dotabove" 306 819 basechar 0
LayerCount: 2
Fore
SplineSet
22 662 m 1x7680
 22 692 l 1x7680
 81 690 141 689 200 689 c 0
 277 689 355 690 432 692 c 2
 556 689 l 1
 545 645 540 597 540 537 c 1
 505 537 l 1
 505 602 l 2x3b
 505 625 502 629 478 636 c 0
 446 645 390 650 333 650 c 0
 264 650 247 649 216 642 c 1
 216 375 l 1
 260 372 326 371 376 371 c 0
 419 371 438 375 446 409 c 0
 451 428 451 461 451 461 c 1
 481 461 l 1
 479 422 478 384 478 345 c 0
 478 308 479 271 481 234 c 1
 451 234 l 1
 451 234 450 271 446 293 c 0
 439 326 420 330 376 330 c 2
 216 327 l 1
 216 47 l 1
 245 41 263 39 315 39 c 0
 405 39 478 44 499 51 c 0
 513 56 526 87 532 130 c 2
 537 164 l 1
 572 164 l 1
 562 112 556 58 556 0 c 1
 389 -3 l 2xba80
 312 -1 234 0 157 0 c 0
 116 0 75 -1 34 -3 c 1
 34 27 l 1
 70 30 l 2
 117 34 121 41 121 120 c 2
 121 569 l 2
 121 648 116 656 70 659 c 2
 22 662 l 1x7680
EndSplineSet
Validated: 1
AlternateSubs2: "'aalt' Access All Alternates lookup 0 subtable" e.sc
AlternateSubs2: "'aalt' Access All Alternates in Latin lookup 0 subtable" e.sc
Substitution2: "'c2sc' Capitals to Small Capitals in Latin lookup 13 subtable" e.sc
Position2: "'cpsp' Capital Spacing in Latin lookup 12 subtable" dx=7 dy=0 dh=14 dv=0
EndChar

StartChar: F
Encoding: 70 70 51
Width: 556
VWidth: 0
GlyphClass: 2
Flags: W
TeX: 692 0
HStem: -3 30<22 70 267 315> 327 48<216 442.012> 441 20G<449.077 481> 650 42<217.398 476.574> 662 30<22 70>
VStem: 121 95<35.1861 327 375 645.702> 451 30<409 461> 485 35<537 632.858>
AnchorPoint: "bot_acc" 279 -143 basechar 0
AnchorPoint: "dotbelow" 279 -143 basechar 0
AnchorPoint: "ogon_acc" 169 -143 basechar 0
AnchorPoint: "top_accu" 279 819 basechar 0
AnchorPoint: "dotabove" 279 819 basechar 0
LayerCount: 2
Fore
SplineSet
22 -3 m 1xf7
 22 27 l 1
 70 30 l 2
 116 33 121 41 121 120 c 2
 121 569 l 2
 121 648 116 656 70 659 c 2
 22 662 l 1
 22 692 l 1xef
 81 690 139 689 198 689 c 0
 270 689 342 690 414 692 c 2
 536 689 l 1
 525 645 520 597 520 537 c 1
 485 537 l 1
 485 602 l 2
 485 625 482 630 458 636 c 0
 427 644 371 650 323 650 c 0
 264 650 246 649 216 642 c 1
 216 375 l 1
 260 372 320 371 374 371 c 0
 418 371 443 375 446 409 c 2
 451 461 l 1
 481 461 l 1
 479 422 478 384 478 345 c 0
 478 308 479 271 481 234 c 1
 451 234 l 1
 451 234 450 271 446 293 c 0
 439 326 420 330 376 330 c 2
 216 327 l 1
 216 120 l 2
 216 41 221 33 267 30 c 2
 315 27 l 1
 315 -3 l 1
 266 -1 217 0 168 0 c 0
 119 0 71 -1 22 -3 c 1xf7
EndSplineSet
Validated: 1
AlternateSubs2: "'aalt' Access All Alternates lookup 0 subtable" f.sc
AlternateSubs2: "'aalt' Access All Alternates in Latin lookup 0 subtable" f.sc
Substitution2: "'c2sc' Capitals to Small Capitals in Latin lookup 13 subtable" f.sc
Position2: "'cpsp' Capital Spacing in Latin lookup 12 subtable" dx=7 dy=0 dh=14 dv=0
EndChar

StartChar: G
Encoding: 71 71 52
Width: 763
VWidth: 0
GlyphClass: 2
Flags: W
TeX: 692 0
HStem: -20 42<330.544 570.183> 241 30<479 502.714> 667 42<301.688 566.115>
VStem: 22 107<226.924 467.805> 596 92<42.5805 232.084> 641 31<516 609.623>
AnchorPoint: "bot_acc" 412 -143 basechar 0
AnchorPoint: "dotbelow" 412 -143 basechar 0
AnchorPoint: "ogon_acc" 412 -143 basechar 0
AnchorPoint: "top_accu" 412 819 basechar 0
AnchorPoint: "dotabove" 412 819 basechar 0
LayerCount: 2
Fore
SplineSet
22 341 m 0xf8
 22 563 192 709 450 709 c 0
 530 709 581 700 692 668 c 1
 678 614 672 567 672 516 c 1
 641 516 l 1
 641 569 l 2xf4
 641 607 616 630 558 649 c 0
 520 661 476 667 424 667 c 0
 237 667 129 555 129 362 c 0
 129 154 255 22 453 22 c 0
 519 22 579 36 590 55 c 0
 594 62 596 74 596 98 c 2
 596 199 l 2
 596 223 587 232 562 234 c 2
 479 241 l 1
 479 271 l 1
 520 269 560 268 601 268 c 0
 642 268 683 269 724 271 c 1
 728 246 l 1
 699 236 l 2
 689 232 688 230 688 199 c 2
 688 31 l 1
 552 -7 483 -20 412 -20 c 0
 296 -20 189 21 119 89 c 0
 57 151 22 240 22 341 c 0xf8
EndSplineSet
Validated: 1
AlternateSubs2: "'aalt' Access All Alternates lookup 0 subtable" g.sc
AlternateSubs2: "'aalt' Access All Alternates in Latin lookup 0 subtable" g.sc
Substitution2: "'c2sc' Capitals to Small Capitals in Latin lookup 13 subtable" g.sc
Position2: "'cpsp' Capital Spacing in Latin lookup 12 subtable" dx=7 dy=0 dh=14 dv=0
EndChar

StartChar: H
Encoding: 72 72 53
Width: 832
VWidth: 0
GlyphClass: 2
Flags: W
TeX: 692 0
HStem: -3 30<22 70 267 315 517 565 762 810> 343 48<216 616> 662 30<22 70 267 315 517 565 762 810>
VStem: 121 95<35.1861 344.257 391 653.814> 616 95<35.1861 344.257 391 653.814>
AnchorPoint: "bot_acc" 416 -143 basechar 0
AnchorPoint: "dotbelow" 416 -143 basechar 0
AnchorPoint: "ogon_acc" 664 -143 basechar 0
AnchorPoint: "top_accu" 416 819 basechar 0
AnchorPoint: "dotabove" 416 819 basechar 0
LayerCount: 2
Fore
SplineSet
22 -3 m 1
 22 27 l 1
 70 30 l 2
 116 33 121 41 121 120 c 2
 121 569 l 2
 121 648 116 656 70 659 c 2
 22 662 l 1
 22 692 l 1
 71 690 119 689 168 689 c 0
 217 689 266 690 315 692 c 1
 315 662 l 1
 267 659 l 2
 221 656 216 648 216 569 c 2
 216 391 l 1
 236 390 258 389 299 389 c 2
 533 389 l 2
 574 389 595 390 616 391 c 1
 616 569 l 2
 616 648 611 656 565 659 c 2
 517 662 l 1
 517 692 l 1
 566 690 614 689 663 689 c 0
 712 689 761 690 810 692 c 1
 810 662 l 1
 762 659 l 2
 716 656 711 648 711 569 c 2
 711 120 l 2
 711 41 716 33 762 30 c 2
 810 27 l 1
 810 -3 l 1
 761 -1 712 0 663 0 c 0
 614 0 566 -1 517 -3 c 1
 517 27 l 1
 565 30 l 2
 611 33 616 41 616 120 c 2
 616 343 l 1
 589 345 573 345 533 345 c 2
 299 345 l 2
 259 345 243 345 216 343 c 1
 216 120 l 2
 216 41 221 33 267 30 c 2
 315 27 l 1
 315 -3 l 1
 266 -1 217 0 168 0 c 0
 119 0 71 -1 22 -3 c 1
EndSplineSet
Validated: 1
AlternateSubs2: "'aalt' Access All Alternates lookup 0 subtable" h.sc
AlternateSubs2: "'aalt' Access All Alternates in Latin lookup 0 subtable" h.sc
Substitution2: "'c2sc' Capitals to Small Capitals in Latin lookup 13 subtable" h.sc
Position2: "'cpsp' Capital Spacing in Latin lookup 12 subtable" dx=7 dy=0 dh=14 dv=0
EndChar

StartChar: I
Encoding: 73 73 54
Width: 337
VWidth: 0
GlyphClass: 2
Flags: W
TeX: 692 0
HStem: -3 30<22 70 267 315> 662 30<22 70 267 315>
VStem: 121 95<35.1861 653.814>
AnchorPoint: "bot_acc" 169 -143 basechar 0
AnchorPoint: "dotbelow" 169 -143 basechar 0
AnchorPoint: "ogon_acc" 169 -143 basechar 0
AnchorPoint: "top_accu" 169 819 basechar 0
AnchorPoint: "dotabove" 169 819 basechar 0
LayerCount: 2
Fore
SplineSet
22 -3 m 1
 22 27 l 1
 70 30 l 2
 116 33 121 41 121 120 c 2
 121 569 l 2
 121 648 116 656 70 659 c 2
 22 662 l 1
 22 692 l 1
 71 690 119 689 168 689 c 0
 217 689 266 690 315 692 c 1
 315 662 l 1
 267 659 l 2
 221 656 216 648 216 569 c 2
 216 120 l 2
 216 41 221 33 267 30 c 2
 315 27 l 1
 315 -3 l 1
 266 -1 217 0 168 0 c 0
 119 0 71 -1 22 -3 c 1
EndSplineSet
Validated: 1
AlternateSubs2: "'aalt' Access All Alternates lookup 0 subtable" i.sc
AlternateSubs2: "'aalt' Access All Alternates in Latin lookup 0 subtable" i.sc
Substitution2: "'c2sc' Capitals to Small Capitals in Latin lookup 13 subtable" i.sc
Position2: "'cpsp' Capital Spacing in Latin lookup 12 subtable" dx=7 dy=0 dh=14 dv=0
EndChar

StartChar: J
Encoding: 74 74 55
Width: 333
VWidth: 0
GlyphClass: 2
Flags: W
TeX: 692 -195
HStem: 662 30<18 66 263 311>
VStem: 117 95<-46.4473 653.814>
AnchorPoint: "bot_acc" 165 -338 basechar 0
AnchorPoint: "dotbelow" 165 -338 basechar 0
AnchorPoint: "ogon_acc" 51 -338 basechar 0
AnchorPoint: "top_accu" 165 819 basechar 0
AnchorPoint: "dotabove" 165 819 basechar 0
AnchorPoint: "ccmped" 397 634 basechar 0
LayerCount: 2
Fore
SplineSet
-15 -116 m 1
 -4 -110 l 1
 19 -124 39 -130 63 -130 c 0
 103 -130 117 -101 117 -17 c 2
 117 569 l 2
 117 648 112 656 66 659 c 2
 18 662 l 1
 18 692 l 1
 67 690 115 689 164 689 c 0
 213 689 262 690 311 692 c 1
 311 662 l 1
 263 659 l 2
 217 656 212 648 212 569 c 2
 212 117 l 2
 212 -4 199 -54 150 -114 c 0
 111 -163 48 -199 14 -195 c 2
 -10 -192 l 1
 -15 -116 l 1
EndSplineSet
Validated: 33
AlternateSubs2: "'aalt' Access All Alternates lookup 0 subtable" j.sc
AlternateSubs2: "'aalt' Access All Alternates in Latin lookup 0 subtable" j.sc
Substitution2: "'c2sc' Capitals to Small Capitals in Latin lookup 13 subtable" j.sc
Position2: "'cpsp' Capital Spacing in Latin lookup 12 subtable" dx=7 dy=0 dh=14 dv=0
EndChar

StartChar: K
Encoding: 75 75 56
Width: 726
VWidth: 0
GlyphClass: 2
Flags: W
TeX: 692 0
HStem: -3 30<22 70 267 315 669.247 719> 662 30<22 70 267 315 606.54 692>
VStem: 121 95<35.1861 325 355 653.814>
AnchorPoint: "bot_acc" 371 -143 basechar 0
AnchorPoint: "dotbelow" 371 -143 basechar 0
AnchorPoint: "ogon_acc" 647 -143 basechar 0
AnchorPoint: "top_accu" 371 819 basechar 0
AnchorPoint: "dotabove" 371 819 basechar 0
LayerCount: 2
Fore
SplineSet
22 -3 m 1
 22 27 l 1
 70 30 l 2
 116 33 121 41 121 120 c 2
 121 569 l 2
 121 648 116 656 70 659 c 2
 22 662 l 1
 22 692 l 1
 71 690 119 689 168 689 c 0
 217 689 266 690 315 692 c 1
 315 662 l 1
 267 659 l 2
 221 656 216 648 216 569 c 2
 216 355 l 1
 494 626 l 2
 510 642 523 659 523 665 c 2
 523 692 l 1
 553 690 582 689 612 689 c 0
 639 689 665 690 692 692 c 1
 692 662 l 1
 650 660 l 2
 624 659 599 646 572 622 c 2
 306 382 l 1
 636 70 l 2
 667 41 683 30 698 29 c 2
 719 27 l 1
 719 -3 l 1
 697 -1 676 0 654 0 c 0
 627 0 601 -1 574 -3 c 1
 226 332 l 1
 216 325 l 1
 216 120 l 2
 216 41 221 33 267 30 c 2
 315 27 l 1
 315 -3 l 1
 266 -1 217 0 168 0 c 0
 119 0 71 -1 22 -3 c 1
EndSplineSet
Validated: 1
AlternateSubs2: "'aalt' Access All Alternates lookup 0 subtable" k.sc
AlternateSubs2: "'aalt' Access All Alternates in Latin lookup 0 subtable" k.sc
Substitution2: "'c2sc' Capitals to Small Capitals in Latin lookup 13 subtable" k.sc
Position2: "'cpsp' Capital Spacing in Latin lookup 12 subtable" dx=7 dy=0 dh=14 dv=0
EndChar

StartChar: L
Encoding: 76 76 57
Width: 611
VWidth: 0
GlyphClass: 2
Flags: W
TeX: 692 0
HStem: -3 42<217.217 508.647> 662 30<22 70 267 315>
VStem: 121 95<43.1865 653.814> 554 32<142.833 172>
AnchorPoint: "bot_acc" 169 -143 basechar 0
AnchorPoint: "dotbelow" 169 -143 basechar 0
AnchorPoint: "ogon_acc" 473 -143 basechar 0
AnchorPoint: "top_accu" 169 819 basechar 0
AnchorPoint: "dotabove" 169 819 basechar 0
AnchorPoint: "ccmped" 401 634 basechar 0
LayerCount: 2
Fore
SplineSet
22 662 m 1
 22 692 l 1
 71 690 119 689 168 689 c 0
 217 689 266 690 315 692 c 1
 315 662 l 1
 267 659 l 2
 221 656 216 648 216 569 c 2
 216 47 l 1
 242 41 265 39 301 39 c 0
 420 39 507 46 520 57 c 0
 526 62 533 83 542 122 c 2
 554 172 l 1
 586 172 l 1
 576 75 572 43 565 0 c 1
 429 -3 439 -3 397 -3 c 0
 319 -3 242 0 164 0 c 0
 131 0 98 -1 65 -3 c 1
 65 20 l 1
 96 36 l 2
 112 44 121 66 121 95 c 2
 121 569 l 2
 121 648 116 656 70 659 c 2
 22 662 l 1
EndSplineSet
Validated: 1
AlternateSubs2: "'aalt' Access All Alternates lookup 0 subtable" l.sc
AlternateSubs2: "'aalt' Access All Alternates in Latin lookup 0 subtable" l.sc
Substitution2: "'c2sc' Capitals to Small Capitals in Latin lookup 13 subtable" l.sc
Position2: "'cpsp' Capital Spacing in Latin lookup 12 subtable" dx=7 dy=0 dh=14 dv=0
EndChar

StartChar: M
Encoding: 77 77 58
Width: 946
VWidth: 0
GlyphClass: 2
Flags: W
TeX: 692 0
HStem: -3 30<16 60 208 252 647 681 878 926> 662 30<16 60 878 920>
VStem: 111 46<35.3567 576.112> 732 95<35.1861 576.112>
AnchorPoint: "bot_acc" 471 -143 basechar 0
AnchorPoint: "dotbelow" 471 -143 basechar 0
AnchorPoint: "ogon_acc" 787 -143 basechar 0
AnchorPoint: "top_accu" 471 819 basechar 0
AnchorPoint: "dotabove" 471 819 basechar 0
LayerCount: 2
Fore
SplineSet
16 -3 m 1
 16 27 l 1
 60 30 l 2
 106 33 111 42 111 120 c 2
 111 569 l 2
 111 647 106 656 60 659 c 2
 16 662 l 1
 16 692 l 1
 48 690 79 689 111 689 c 0
 143 689 174 690 206 692 c 1
 470 136 l 1
 732 692 l 1
 764 690 795 689 827 689 c 0
 858 689 889 690 920 692 c 1
 920 662 l 1
 878 659 l 2
 832 656 827 647 827 569 c 2
 827 120 l 2
 827 41 832 33 878 30 c 2
 926 27 l 1
 926 -3 l 1
 876 -1 825 0 775 0 c 0
 732 0 690 -1 647 -3 c 1
 647 27 l 1
 681 30 l 2
 728 34 732 41 732 120 c 2
 732 578 l 1
 688 492 l 1
 510 114 l 2
 489 69 481 41 456 -13 c 1
 436 -13 l 1
 157 578 l 1
 157 120 l 2
 157 42 162 33 208 30 c 2
 252 27 l 1
 252 -3 l 1
 212 -1 172 0 132 0 c 0
 93 0 55 -1 16 -3 c 1
EndSplineSet
Validated: 1
AlternateSubs2: "'aalt' Access All Alternates lookup 0 subtable" m.sc
AlternateSubs2: "'aalt' Access All Alternates in Latin lookup 0 subtable" m.sc
Substitution2: "'c2sc' Capitals to Small Capitals in Latin lookup 13 subtable" m.sc
Position2: "'cpsp' Capital Spacing in Latin lookup 12 subtable" dx=7 dy=0 dh=14 dv=0
EndChar

StartChar: N
Encoding: 78 78 59
Width: 831
VWidth: 0
GlyphClass: 2
Flags: W
TeX: 692 0
HStem: -3 30<17 61 209 253> 662 30<577 621 769 813>
VStem: 112 46<35.3567 582.832> 672 46<98 653.643>
AnchorPoint: "bot_acc" 415 -143 basechar 0
AnchorPoint: "dotbelow" 415 -143 basechar 0
AnchorPoint: "ogon_acc" 676 -143 basechar 0
AnchorPoint: "top_accu" 415 819 basechar 0
AnchorPoint: "dotabove" 415 819 basechar 0
LayerCount: 2
Fore
SplineSet
17 -3 m 1
 17 27 l 1
 61 30 l 2
 107 33 112 42 112 120 c 2
 112 569 l 2
 112 647 107 656 61 659 c 2
 17 662 l 1
 17 692 l 1
 17 692 90 689 137 689 c 0
 158 689 191 692 191 692 c 1
 672 98 l 1
 672 569 l 2
 672 647 667 656 621 659 c 2
 577 662 l 1
 577 692 l 1
 616 690 654 689 693 689 c 0
 733 689 773 690 813 692 c 1
 813 662 l 1
 769 659 l 2
 723 656 718 647 718 569 c 2
 718 17 l 2
 718 7 721 -10 721 -20 c 1
 631 -4 l 1
 158 583 l 1
 158 120 l 2
 158 42 163 33 209 30 c 2
 253 27 l 1
 253 -3 l 1
 213 -1 173 0 133 0 c 0
 94 0 56 -1 17 -3 c 1
EndSplineSet
Validated: 1
AlternateSubs2: "'aalt' Access All Alternates lookup 0 subtable" n.sc
AlternateSubs2: "'aalt' Access All Alternates in Latin lookup 0 subtable" n.sc
Substitution2: "'c2sc' Capitals to Small Capitals in Latin lookup 13 subtable" n.sc
Position2: "'cpsp' Capital Spacing in Latin lookup 12 subtable" dx=7 dy=0 dh=14 dv=0
EndChar

StartChar: O
Encoding: 79 79 60
Width: 786
VWidth: 0
GlyphClass: 2
Flags: W
TeX: 692 0
HStem: -20 42<307.049 500.607> 667 42<274.46 491.965>
VStem: 22 107<230.899 473.806> 657 107<241.36 484.367>
AnchorPoint: "bot_acc" 402 -143 basechar 0
AnchorPoint: "dotbelow" 402 -143 basechar 0
AnchorPoint: "ogon_acc" 402 -143 basechar 0
AnchorPoint: "top_accu" 402 819 basechar 0
AnchorPoint: "dotabove" 402 819 basechar 0
LayerCount: 2
Fore
SplineSet
22 341 m 0
 22 561 174 709 402 709 c 0
 624 709 764 577 764 367 c 0
 764 147 594 -20 370 -20 c 0
 168 -20 22 131 22 341 c 0
129 378 m 0
 129 164 242 22 410 22 c 0
 565 22 657 139 657 337 c 0
 657 545 556 667 385 667 c 0
 221 667 129 563 129 378 c 0
EndSplineSet
Validated: 1
AlternateSubs2: "'aalt' Access All Alternates lookup 0 subtable" o.sc
AlternateSubs2: "'aalt' Access All Alternates in Latin lookup 0 subtable" o.sc
Substitution2: "'c2sc' Capitals to Small Capitals in Latin lookup 13 subtable" o.sc
Position2: "'cpsp' Capital Spacing in Latin lookup 12 subtable" dx=7 dy=0 dh=14 dv=0
EndChar

StartChar: P
Encoding: 80 80 61
Width: 604
VWidth: 0
GlyphClass: 2
Flags: W
TeX: 692 0
HStem: -3 30<22 70 267 315> 324 32<279.638 400.645> 654 38<217.636 407.325> 662 30<23 68>
VStem: 121 95<35.1861 646.034> 480 100<447.726 590.775>
AnchorPoint: "bot_acc" 301 -143 basechar 0
AnchorPoint: "dotbelow" 301 -143 basechar 0
AnchorPoint: "ogon_acc" 169 -143 basechar 0
AnchorPoint: "top_accu" 301 819 basechar 0
AnchorPoint: "dotabove" 301 819 basechar 0
LayerCount: 2
Fore
SplineSet
22 -3 m 1xec
 22 27 l 1
 70 30 l 2
 116 33 121 41 121 120 c 2
 121 569 l 2
 121 643 113 656 68 659 c 2
 23 662 l 1
 23 692 l 1xdc
 84 690 144 689 205 689 c 0
 262 689 318 692 375 692 c 0
 502 692 580 633 580 537 c 0
 580 417 475 324 338 324 c 0
 318 324 304 325 280 330 c 1
 270 366 l 1
 296 358 311 356 332 356 c 0
 419 356 480 419 480 509 c 0
 480 604 422 654 314 654 c 0
 280 654 251 650 216 642 c 1
 216 120 l 2
 216 41 221 33 267 30 c 2
 315 27 l 1
 315 -3 l 1
 266 -1 217 0 168 0 c 0
 119 0 71 -1 22 -3 c 1xec
EndSplineSet
Validated: 1
AlternateSubs2: "'aalt' Access All Alternates lookup 0 subtable" p.sc
AlternateSubs2: "'aalt' Access All Alternates in Latin lookup 0 subtable" p.sc
Substitution2: "'c2sc' Capitals to Small Capitals in Latin lookup 13 subtable" p.sc
Position2: "'cpsp' Capital Spacing in Latin lookup 12 subtable" dx=7 dy=0 dh=14 dv=0
EndChar

StartChar: Q
Encoding: 81 81 62
Width: 786
VWidth: 0
GlyphClass: 2
Flags: W
TeX: 692 -176
HStem: -19 42<309.23 377> 667 42<273.237 495.239>
VStem: 22 107<234.827 473.478> 657 107<240.666 481.069>
AnchorPoint: "bot_acc" 393 -302 basechar 0
AnchorPoint: "dotbelow" 393 -302 basechar 0
AnchorPoint: "ogon_acc" 393 -252 basechar 0
AnchorPoint: "top_accu" 393 819 basechar 0
AnchorPoint: "dotabove" 393 819 basechar 0
LayerCount: 2
Fore
SplineSet
22 343 m 0
 22 561 174 709 398 709 c 0
 622 709 764 578 764 371 c 0
 764 227 690 97 569 28 c 0
 517 -2 480 -12 401 -19 c 1
 443 -24 460 -29 522 -56 c 0
 602 -90 657 -105 705 -105 c 0
 714 -105 725 -104 764 -99 c 1
 764 -120 l 1
 680 -176 l 1
 640 -168 609 -161 574 -150 c 2
 426 -104 l 2
 395 -94 367 -89 348 -89 c 0
 338 -89 332 -91 320 -97 c 2
 261 -129 l 1
 263 -97 l 1
 319 -54 353 -28 372 -21 c 2
 377 -19 l 1
 162 -19 22 124 22 343 c 0
129 375 m 0
 129 276 159 180 209 117 c 0
 259 55 327 23 412 23 c 0
 569 23 657 135 657 335 c 0
 657 545 557 667 385 667 c 0
 220 667 129 563 129 375 c 0
EndSplineSet
Validated: 1
AlternateSubs2: "'aalt' Access All Alternates lookup 0 subtable" q.sc
AlternateSubs2: "'aalt' Access All Alternates in Latin lookup 0 subtable" q.sc
Substitution2: "'c2sc' Capitals to Small Capitals in Latin lookup 13 subtable" q.sc
Position2: "'cpsp' Capital Spacing in Latin lookup 12 subtable" dx=7 dy=0 dh=14 dv=0
EndChar

StartChar: R
Encoding: 82 82 63
Width: 668
VWidth: 0
GlyphClass: 2
Flags: W
TeX: 692 0
HStem: -3 30<22 70 267 315 619.238 669> 654 38<217.591 404.613> 662 30<29 70>
VStem: 121 95<35.1861 646.342> 476 100<460.786 596.498>
AnchorPoint: "bot_acc" 315 -143 basechar 0
AnchorPoint: "dotbelow" 315 -143 basechar 0
AnchorPoint: "ogon_acc" 599 -143 basechar 0
AnchorPoint: "top_accu" 315 819 basechar 0
AnchorPoint: "dotabove" 315 819 basechar 0
LayerCount: 2
Fore
SplineSet
22 -3 m 1xd8
 22 27 l 1
 70 30 l 2
 116 33 121 41 121 120 c 2
 121 569 l 2
 121 647 116 656 70 659 c 2
 29 662 l 1
 29 692 l 1xb8
 87 690 144 689 202 689 c 0
 262 689 321 692 381 692 c 0
 511 692 576 638 576 542 c 0
 576 484 548 434 496 397 c 0
 463 374 437 363 381 349 c 1
 608 53 l 2
 621 36 637 30 669 27 c 1
 669 -3 l 1
 645 -1 621 0 597 0 c 0
 574 0 552 -1 529 -3 c 1
 488 51 l 1
 304 298 l 2
 288 320 280 331 258 355 c 1
 258 371 l 1
 287 371 l 2
 403 371 476 429 476 521 c 0
 476 606 418 654 314 654 c 0
 280 654 250 650 216 642 c 1
 216 120 l 2
 216 41 221 33 267 30 c 2
 315 27 l 1
 315 -3 l 1
 266 -1 217 0 168 0 c 0
 119 0 71 -1 22 -3 c 1xd8
EndSplineSet
Validated: 1
AlternateSubs2: "'aalt' Access All Alternates lookup 0 subtable" r.sc
AlternateSubs2: "'aalt' Access All Alternates in Latin lookup 0 subtable" r.sc
Substitution2: "'c2sc' Capitals to Small Capitals in Latin lookup 13 subtable" r.sc
Position2: "'cpsp' Capital Spacing in Latin lookup 12 subtable" dx=7 dy=0 dh=14 dv=0
EndChar

StartChar: S
Encoding: 83 83 64
Width: 525
VWidth: 0
GlyphClass: 2
Flags: W
TeX: 692 0
HStem: -20 44<136.967 330.709> 667 42<178.32 357.262>
VStem: 24 84<451.468 578.567> 37 32<131.289 171> 415 32<526 583> 419 84<133.375 249.165>
AnchorPoint: "bot_acc" 242 -143 basechar 0
AnchorPoint: "dotbelow" 242 -143 basechar 0
AnchorPoint: "ogon_acc" 242 -143 basechar 0
AnchorPoint: "top_accu" 242 819 basechar 0
AnchorPoint: "dotabove" 242 819 basechar 0
LayerCount: 2
Fore
SplineSet
24 484 m 0xe4
 24 615 132 709 281 709 c 0
 336 709 381 699 461 667 c 1
 451 613 447 579 447 526 c 1
 415 526 l 1
 409 583 l 2
 406 612 395 627 362 644 c 0
 335 659 298 667 259 667 c 0
 171 667 108 607 108 523 c 0xe8
 108 446 151 413 273 397 c 0
 385 382 427 369 462 336 c 0
 490 310 503 277 503 230 c 0
 503 85 377 -20 203 -20 c 0
 145 -20 87 -7 30 18 c 1
 36 63 38 85 38 131 c 0
 38 137 38 153 37 171 c 1
 69 171 l 1xd4
 77 104 l 2
 82 63 160 24 240 24 c 0
 344 24 419 89 419 179 c 0
 419 217 407 245 381 267 c 0
 355 289 320 301 243 312 c 0
 146 325 100 341 66 372 c 0
 37 399 24 435 24 484 c 0xe4
EndSplineSet
Validated: 1
AlternateSubs2: "'aalt' Access All Alternates lookup 0 subtable" s.sc
AlternateSubs2: "'aalt' Access All Alternates in Latin lookup 0 subtable" s.sc
Substitution2: "'c2sc' Capitals to Small Capitals in Latin lookup 13 subtable" s.sc
Position2: "'cpsp' Capital Spacing in Latin lookup 12 subtable" dx=7 dy=0 dh=14 dv=0
EndChar

StartChar: T
Encoding: 84 84 65
Width: 613
VWidth: 0
GlyphClass: 2
Flags: W
TeX: 692 0
HStem: -3 30<160 208 405 453> 643 46<61.4374 256.692 356.207 551.563>
VStem: 25 31<531 635.479> 259 95<35.1861 641.414> 557 31<531 635.479>
CounterMasks: 1 38
AnchorPoint: "bot_acc" 307 -143 basechar 0
AnchorPoint: "dotbelow" 307 -143 basechar 0
AnchorPoint: "ogon_acc" 307 -143 basechar 0
AnchorPoint: "top_accu" 307 819 basechar 0
AnchorPoint: "dotabove" 307 819 basechar 0
LayerCount: 2
Fore
SplineSet
18 692 m 1
 221 689 l 1
 379 689 l 1
 595 692 l 1
 590 635 588 596 588 531 c 1
 557 531 l 1
 553 610 l 2
 552 634 541 643 513 643 c 2
 358 643 l 1
 355 610 354 588 354 543 c 2
 354 120 l 2
 354 41 359 33 405 30 c 2
 453 27 l 1
 453 -3 l 1
 404 -1 355 0 306 0 c 0
 257 0 209 -1 160 -3 c 1
 160 27 l 1
 208 30 l 2
 254 33 259 41 259 120 c 2
 259 543 l 2
 259 586 258 609 255 643 c 1
 100 643 l 2
 72 643 61 634 60 610 c 2
 56 531 l 1
 25 531 l 1
 25 596 23 635 18 692 c 1
EndSplineSet
Validated: 1
AlternateSubs2: "'aalt' Access All Alternates lookup 0 subtable" t.sc
AlternateSubs2: "'aalt' Access All Alternates in Latin lookup 0 subtable" t.sc
Substitution2: "'c2sc' Capitals to Small Capitals in Latin lookup 13 subtable" t.sc
Position2: "'cpsp' Capital Spacing in Latin lookup 12 subtable" dx=7 dy=0 dh=14 dv=0
EndChar

StartChar: U
Encoding: 85 85 66
Width: 778
VWidth: 0
GlyphClass: 2
Flags: W
TeX: 692 0
HStem: -20 62<287.063 522.25> 662 30<12 60 257 305 523 567 715 759>
VStem: 111 95<121.943 653.814> 618 46<138.51 653.643>
AnchorPoint: "bot_acc" 412 -143 basechar 0
AnchorPoint: "dotbelow" 412 -143 basechar 0
AnchorPoint: "ogon_acc" 412 -143 basechar 0
AnchorPoint: "top_accu" 412 819 basechar 0
AnchorPoint: "dotabove" 412 819 basechar 0
LayerCount: 2
Fore
SplineSet
12 662 m 1
 12 692 l 1
 61 690 109 689 158 689 c 0
 207 689 256 690 305 692 c 1
 305 662 l 1
 257 659 l 2
 211 656 206 648 206 569 c 2
 206 225 l 2
 206 97 266 42 405 42 c 0
 550 42 618 108 618 249 c 2
 618 569 l 2
 618 647 613 656 567 659 c 2
 523 662 l 1
 523 692 l 1
 562 690 600 689 639 689 c 0
 679 689 719 690 759 692 c 1
 759 662 l 1
 715 659 l 2
 669 656 664 647 664 569 c 2
 664 280 l 2
 664 169 642 94 595 47 c 0
 550 1 481 -20 378 -20 c 0
 278 -20 207 1 167 42 c 0
 129 81 111 136 111 214 c 2
 111 569 l 2
 111 648 106 656 60 659 c 2
 12 662 l 1
EndSplineSet
Validated: 1
AlternateSubs2: "'aalt' Access All Alternates lookup 0 subtable" u.sc
AlternateSubs2: "'aalt' Access All Alternates in Latin lookup 0 subtable" u.sc
Substitution2: "'c2sc' Capitals to Small Capitals in Latin lookup 13 subtable" u.sc
Position2: "'cpsp' Capital Spacing in Latin lookup 12 subtable" dx=7 dy=0 dh=14 dv=0
EndChar

StartChar: V
Encoding: 86 86 67
Width: 722
VWidth: 0
GlyphClass: 2
Flags: W
TeX: 692 0
HStem: 662 30<8 44 190.156 274 490 542 676 706>
AnchorPoint: "bot_acc" 357 -143 basechar 0
AnchorPoint: "dotbelow" 357 -143 basechar 0
AnchorPoint: "ogon_acc" 357 -143 basechar 0
AnchorPoint: "top_accu" 357 819 basechar 0
AnchorPoint: "dotabove" 357 819 basechar 0
LayerCount: 2
Fore
SplineSet
8 662 m 1
 8 692 l 1
 52 690 97 689 141 689 c 0
 185 689 230 690 274 692 c 1
 274 662 l 1
 218 659 l 2
 191 658 183 642 188 628 c 2
 385 121 l 1
 568 594 l 2
 582 629 579 657 542 659 c 2
 490 662 l 1
 490 692 l 1
 526 690 562 689 598 689 c 0
 634 689 670 690 706 692 c 1
 706 662 l 1
 676 659 l 2
 658 657 645 642 622 587 c 2
 448 166 l 2
 415 86 403 53 384 -9 c 1
 334 -9 l 1
 319 45 307 80 276 156 c 2
 88 618 l 2
 76 647 65 657 44 659 c 2
 8 662 l 1
EndSplineSet
Validated: 33
AlternateSubs2: "'aalt' Access All Alternates lookup 0 subtable" v.sc
AlternateSubs2: "'aalt' Access All Alternates in Latin lookup 0 subtable" v.sc
Substitution2: "'c2sc' Capitals to Small Capitals in Latin lookup 13 subtable" v.sc
Position2: "'cpsp' Capital Spacing in Latin lookup 12 subtable" dx=7 dy=0 dh=14 dv=0
EndChar

StartChar: W
Encoding: 87 87 68
Width: 1000
VWidth: 0
GlyphClass: 2
Flags: W
TeX: 692 0
HStem: 662 30<8 36 218 260 774 814 952 984> 680 20G<488.5 535>
AnchorPoint: "bot_acc" 488 -143 basechar 0
AnchorPoint: "dotbelow" 488 -143 basechar 0
AnchorPoint: "ogon_acc" 709 -143 basechar 0
AnchorPoint: "top_accu" 488 819 basechar 0
AnchorPoint: "dotabove" 488 819 basechar 0
LayerCount: 2
Fore
SplineSet
8 662 m 1x80
 8 692 l 1
 50 690 92 689 134 689 c 0
 176 689 218 690 260 692 c 1
 260 662 l 1x80
 218 659 l 2
 179 656 177 631 185 593 c 2
 285 144 l 1
 409 459 l 2
 462 593 478 638 499 700 c 1
 531 700 l 1x40
 539 666 543 658 564 598 c 2
 728 137 l 1
 860 626 l 2
 865 646 856 656 814 659 c 2
 774 662 l 1
 774 692 l 1
 809 690 844 689 879 689 c 0
 914 689 949 690 984 692 c 1
 984 662 l 1
 952 659 l 2
 930 657 919 647 914 630 c 2
 761 92 l 1
 734 -9 l 1
 684 -9 l 1
 649 100 646 108 613 197 c 2
 488 536 l 1
 314 94 l 2
 295 47 287 23 278 -9 c 1
 228 -9 l 1
 86 609 l 2
 78 643 65 656 36 659 c 2
 8 662 l 1x80
EndSplineSet
Validated: 33
AlternateSubs2: "'aalt' Access All Alternates lookup 0 subtable" w.sc
AlternateSubs2: "'aalt' Access All Alternates in Latin lookup 0 subtable" w.sc
Substitution2: "'c2sc' Capitals to Small Capitals in Latin lookup 13 subtable" w.sc
Position2: "'cpsp' Capital Spacing in Latin lookup 12 subtable" dx=7 dy=0 dh=14 dv=0
EndChar

StartChar: X
Encoding: 88 88 69
Width: 667
VWidth: 0
GlyphClass: 2
Flags: W
TeX: 692 0
HStem: -3 30<14 65.2024 594.821 648> 647 26<29 63.5556> 659 30<598 639> 680 20G<63.5556 177.5>
AnchorPoint: "bot_acc" 331 -143 basechar 0
AnchorPoint: "dotbelow" 331 -143 basechar 0
AnchorPoint: "ogon_acc" 576 -143 basechar 0
AnchorPoint: "top_accu" 331 819 basechar 0
AnchorPoint: "dotabove" 331 819 basechar 0
LayerCount: 2
Fore
SplineSet
14 -3 m 1xa0
 14 27 l 1
 40 30 l 2
 62 33 74 44 99 78 c 2
 294 341 l 1
 166 554 l 2
 133 609 98 642 74 644 c 2
 29 647 l 1
 27 673 l 1
 168 700 l 1xd0
 187 690 202 673 225 635 c 2
 353 419 l 1
 538 689 l 1
 639 689 l 1
 639 659 l 1
 598 656 l 2
 583 655 570 642 530 588 c 2
 376 380 l 1
 552 100 l 2
 585 48 599 32 618 30 c 2
 648 27 l 1
 648 -3 l 1
 624 -1 601 0 577 0 c 0
 552 0 528 -1 503 -3 c 1
 319 303 l 1
 117 -3 l 1
 100 -1 83 0 66 0 c 0
 49 0 31 -1 14 -3 c 1xa0
EndSplineSet
Validated: 1
AlternateSubs2: "'aalt' Access All Alternates lookup 0 subtable" x.sc
AlternateSubs2: "'aalt' Access All Alternates in Latin lookup 0 subtable" x.sc
Substitution2: "'c2sc' Capitals to Small Capitals in Latin lookup 13 subtable" x.sc
Position2: "'cpsp' Capital Spacing in Latin lookup 12 subtable" dx=7 dy=0 dh=14 dv=0
EndChar

StartChar: Y
Encoding: 89 89 70
Width: 667
VWidth: 0
GlyphClass: 2
Flags: W
TeX: 692 0
HStem: -3 30<200 248 445 493> 651 29<9 38> 685 9G<33 138 555 654>
VStem: 299 95<35.1861 322.25>
AnchorPoint: "bot_acc" 347 -143 basechar 0
AnchorPoint: "dotbelow" 347 -143 basechar 0
AnchorPoint: "ogon_acc" 347 -143 basechar 0
AnchorPoint: "top_accu" 347 819 basechar 0
AnchorPoint: "dotabove" 347 819 basechar 0
LayerCount: 2
Fore
SplineSet
9 651 m 1
 9 680 l 1
 129 705 l 2
 147 705 188 660 220 602 c 2
 363 341 l 1
 466 504 l 2
 505 566 536 620 574 694 c 1
 654 694 l 1
 654 679 l 1
 573 582 540 537 466 426 c 0
 408 338 394 304 394 249 c 2
 394 120 l 2
 394 41 399 33 445 30 c 2
 493 27 l 1
 493 -3 l 1
 444 -1 395 0 346 0 c 0
 297 0 249 -1 200 -3 c 1
 200 27 l 1
 248 30 l 2
 294 33 299 41 299 120 c 2
 299 262 l 2
 299 278 296 292 290 302 c 2
 166 518 l 2
 124 591 72 644 38 648 c 2
 9 651 l 1
EndSplineSet
Validated: 1
AlternateSubs2: "'aalt' Access All Alternates lookup 0 subtable" y.sc
AlternateSubs2: "'aalt' Access All Alternates in Latin lookup 0 subtable" y.sc
Substitution2: "'c2sc' Capitals to Small Capitals in Latin lookup 13 subtable" y.sc
Position2: "'cpsp' Capital Spacing in Latin lookup 12 subtable" dx=7 dy=0 dh=14 dv=0
EndChar

StartChar: Z
Encoding: 90 90 71
Width: 667
VWidth: 0
GlyphClass: 2
Flags: W
TeX: 692 0
HStem: -3 47<151 581.614> 648 44<129.806 500>
VStem: 80 34<530 609.514> 598 40<62.9034 173>
AnchorPoint: "bot_acc" 324 -143 basechar 0
AnchorPoint: "dotbelow" 324 -143 basechar 0
AnchorPoint: "ogon_acc" 513 -143 basechar 0
AnchorPoint: "top_accu" 324 819 basechar 0
AnchorPoint: "dotabove" 324 819 basechar 0
LayerCount: 2
Fore
SplineSet
15 -3 m 1
 15 25 l 1
 15 25 98 123 112 142 c 2
 414 530 l 2
 451 577 475 606 500 648 c 1
 272 648 l 2
 150 648 123 640 120 601 c 2
 114 530 l 1
 80 530 l 1
 82 567 83 579 83 611 c 0
 83 643 82 655 80 692 c 1
 245 692 l 2
 335 692 387 689 477 689 c 0
 538 689 633 692 633 692 c 1
 637 663 l 1
 151 44 l 1
 424 44 l 2
 577 44 591 50 598 116 c 2
 604 173 l 1
 638 173 l 1
 633 118 632 83 632 -3 c 1
 530 -1 429 0 327 0 c 0
 223 0 119 -1 15 -3 c 1
EndSplineSet
Validated: 1
AlternateSubs2: "'aalt' Access All Alternates lookup 0 subtable" z.sc
AlternateSubs2: "'aalt' Access All Alternates in Latin lookup 0 subtable" z.sc
Substitution2: "'c2sc' Capitals to Small Capitals in Latin lookup 13 subtable" z.sc
Position2: "'cpsp' Capital Spacing in Latin lookup 12 subtable" dx=7 dy=0 dh=14 dv=0
EndChar

StartChar: asciicircum
Encoding: 94 94 72
Width: 606
VWidth: 0
Flags: W
TeX: 692 0
HStem: 669 20G<259.212 346.739>
LayerCount: 2
Fore
SplineSet
51 283 m 1
 270 689 l 1
 336 689 l 1
 554 283 l 1
 486 283 l 1
 303 621 l 1
 119 283 l 1
 51 283 l 1
EndSplineSet
Validated: 1
EndChar

StartChar: underscore
Encoding: 95 95 73
Width: 500
VWidth: 0
Flags: W
TeX: 0 -125
HStem: -125 50<0 500>
LayerCount: 2
Fore
SplineSet
0 -75 m 1
 500 -75 l 1
 500 -125 l 1
 0 -125 l 1
 0 -75 l 1
EndSplineSet
Validated: 1
EndChar

StartChar: a
Encoding: 97 97 74
Width: 500
VWidth: 0
GlyphClass: 2
Flags: W
TeX: 449 0
HStem: -12 57<143.351 219.313> -3 21G<320.176 332> 0 29<407.637 471> 416 53<147.953 277.865>
VStem: 32 86<70.4731 187.257> 324 80<99.6803 256 288 370.935>
AnchorPoint: "bot_acc" 246 -143 basechar 0
AnchorPoint: "dotbelow" 246 -143 basechar 0
AnchorPoint: "ogon_acc" 395 -143 basechar 0
AnchorPoint: "top_accl" 246 592 basechar 0
AnchorPoint: "dotabove" 246 592 basechar 0
LayerCount: 2
Fore
SplineSet
32 111 m 0x9c
 32 198 89 245 225 270 c 2
 324 288 l 1
 321 379 282 416 188 416 c 0
 142 416 131 409 111 362 c 2
 98 331 l 1
 72 338 l 1
 72 403 l 1
 125 435 l 2
 163 458 203 469 246 469 c 0
 362 469 404 416 404 270 c 2
 404 87 l 2
 404 38 408 30 432 29 c 2x3c
 471 27 l 1
 471 -3 l 1x5c
 446 -1 422 0 397 0 c 0x3c
 371 0 345 -1 319 -3 c 1x5c
 324 82 l 1
 200 -4 l 2
 193 -9 176 -12 158 -12 c 0
 79 -12 32 33 32 111 c 0x9c
118 125 m 0
 118 82 153 45 193 45 c 0x9c
 232 45 295 83 324 124 c 1
 324 256 l 1
 248 245 193 231 168 216 c 0
 138 197 118 162 118 125 c 0
EndSplineSet
Validated: 1
AlternateSubs2: "'aalt' Access All Alternates lookup 0 subtable" a.sc
AlternateSubs2: "'aalt' Access All Alternates in Latin lookup 0 subtable" a.sc
Substitution2: "'smcp' Lowercase to Small Capitals in Latin lookup 2 subtable" a.sc
EndChar

StartChar: b
Encoding: 98 98 75
Width: 553
VWidth: 0
GlyphClass: 2
Flags: W
TeX: 726 0
HStem: -12 51<187.035 328.41> 404 65<237.272 355.928> 661 28<-15 62.266> 706 20G<119 150>
VStem: 66 84<69.9265 352.941 369 660.869> 421 87<164.571 331.416>
AnchorPoint: "bot_acc" 247 -143 basechar 0
AnchorPoint: "dotbelow" 247 -143 basechar 0
AnchorPoint: "ogon_acc" 247 -143 basechar 0
AnchorPoint: "top_accu" 108 869 basechar 0
AnchorPoint: "dotabove" 326 592 basechar 0
LayerCount: 2
Fore
SplineSet
-15 661 m 1
 -15 689 l 1
 64 701 97 709 141 726 c 1
 150 718 l 1
 150 369 l 1
 205 425 l 2
 231 451 280 469 327 469 c 0
 433 469 508 386 508 270 c 0
 508 197 473 114 429 82 c 2
 329 10 l 2
 308 -5 282 -12 243 -12 c 0
 190 -12 154 -2 114 24 c 1
 74 -12 l 1
 58 -6 l 1
 65 64 66 91 66 153 c 2
 66 620 l 2
 66 650 59 661 41 661 c 2
 -15 661 l 1
150 93 m 2
 150 71 224 39 276 39 c 0
 361 39 421 117 421 229 c 0
 421 336 368 404 284 404 c 0
 243 404 204 387 176 358 c 0
 160 340 150 322 150 308 c 2
 150 93 l 2
EndSplineSet
Validated: 1
AlternateSubs2: "'aalt' Access All Alternates lookup 0 subtable" b.sc
AlternateSubs2: "'aalt' Access All Alternates in Latin lookup 0 subtable" b.sc
Substitution2: "'smcp' Lowercase to Small Capitals in Latin lookup 2 subtable" b.sc
EndChar

StartChar: c
Encoding: 99 99 76
Width: 444
VWidth: 0
GlyphClass: 2
Flags: W
TeX: 449 0
HStem: -20 52<211.304 372.345> 417 52<201.014 335.997>
VStem: 26 88<139.796 313.915> 371 28<311 372>
AnchorPoint: "bot_acc" 254 -143 basechar 0
AnchorPoint: "dotbelow" 254 -143 basechar 0
AnchorPoint: "ogon_acc" 254 -143 basechar 0
AnchorPoint: "top_accl" 254 592 basechar 0
AnchorPoint: "dotabove" 254 592 basechar 0
LayerCount: 2
Fore
SplineSet
26 210 m 0
 26 298 63 368 133 412 c 0
 193 450 249 469 297 469 c 0
 338 469 373 458 413 434 c 1
 404 398 399 357 399 311 c 1
 371 311 l 1
 364 372 l 1
 346 397 298 417 254 417 c 0
 164 417 114 357 114 250 c 0
 114 118 187 32 298 32 c 0
 334 32 366 41 403 61 c 1
 413 46 l 1
 392 14 l 2
 382 -1 307 -20 255 -20 c 0
 121 -20 26 75 26 210 c 0
EndSplineSet
Validated: 1
AlternateSubs2: "'aalt' Access All Alternates lookup 0 subtable" c.sc
AlternateSubs2: "'aalt' Access All Alternates in Latin lookup 0 subtable" c.sc
Substitution2: "'smcp' Lowercase to Small Capitals in Latin lookup 2 subtable" c.sc
EndChar

StartChar: d
Encoding: 100 100 77
Width: 611
VWidth: 0
GlyphClass: 2
Flags: W
TeX: 726 0
HStem: -12 57<201.706 312.998> -3 33<500.453 579> 422 47<211.897 353.552> 661 28<331 408.266> 706 20G<465 496>
VStem: 35 87<139.678 321.643> 412 84<112.284 376.626 437 660.869>
AnchorPoint: "bot_acc" 307 -143 basechar 0
AnchorPoint: "dotbelow" 307 -143 basechar 0
AnchorPoint: "ogon_acc" 495 -143 basechar 0
AnchorPoint: "top_accu" 454 869 basechar 0
AnchorPoint: "dotabove" 253 592 basechar 0
AnchorPoint: "ccmped" 594 634 basechar 0
LayerCount: 2
Fore
SplineSet
35 216 m 0x7e
 35 301 72 374 129 404 c 2
 217 450 l 2
 242 463 266 469 293 469 c 0
 328 469 356 461 412 437 c 1
 412 620 l 2
 412 650 405 661 387 661 c 2
 331 661 l 1
 331 689 l 1
 410 701 443 709 487 726 c 1
 496 718 l 1
 496 102 l 2
 496 39 499 32 533 30 c 2
 579 27 l 1
 579 -3 l 1
 549 -1 518 0 488 0 c 0
 462 0 437 -1 411 -3 c 1x7e
 416 89 l 1
 305 -4 l 2
 300 -8 277 -12 257 -12 c 0xbe
 192 -12 145 1 111 30 c 0
 62 70 35 136 35 216 c 0x7e
122 249 m 0
 122 130 185 45 273 45 c 0xbe
 320 45 369 76 397 123 c 0
 410 146 412 156 412 221 c 2
 412 350 l 2
 412 358 400 371 379 385 c 0
 344 409 304 422 266 422 c 0
 176 422 122 358 122 249 c 0
EndSplineSet
Validated: 1
AlternateSubs2: "'aalt' Access All Alternates lookup 0 subtable" d.sc
AlternateSubs2: "'aalt' Access All Alternates in Latin lookup 0 subtable" d.sc
Substitution2: "'smcp' Lowercase to Small Capitals in Latin lookup 2 subtable" d.sc
EndChar

StartChar: e
Encoding: 101 101 78
Width: 479
VWidth: 0
GlyphClass: 2
Flags: W
TeX: 449 0
HStem: -20 53<204.815 355.103> 230 34<123.511 358.125> 436 33<189.449 303.344>
VStem: 26 93<123.209 230 268.307 337.016> 359 89<267 374.026>
AnchorPoint: "bot_acc" 262 -143 basechar 0
AnchorPoint: "dotbelow" 262 -143 basechar 0
AnchorPoint: "ogon_acc" 262 -143 basechar 0
AnchorPoint: "top_accl" 262 592 basechar 0
AnchorPoint: "dotabove" 262 592 basechar 0
LayerCount: 2
Fore
SplineSet
26 219 m 0
 26 323 59 385 141 432 c 0
 182 456 225 469 262 469 c 0
 374 469 448 394 448 279 c 0
 448 267 447 258 446 244 c 1
 377 233 334 230 265 230 c 2
 119 230 l 1
 121 172 128 144 147 111 c 0
 175 62 229 33 294 33 c 0
 337 33 360 42 424 80 c 1
 437 70 l 1
 417 36 l 2
 413 30 392 17 365 6 c 0
 324 -12 287 -20 250 -20 c 0
 175 -20 107 11 68 64 c 0
 40 102 26 156 26 219 c 0
121 270 m 1
 175 265 201 264 247 264 c 2
 359 267 l 1
 359 334 349 363 327 396 c 0
 309 423 283 436 250 436 c 0
 202 436 159 409 138 365 c 0
 125 339 121 317 121 270 c 1
EndSplineSet
Validated: 1
AlternateSubs2: "'aalt' Access All Alternates lookup 0 subtable" e.sc
AlternateSubs2: "'aalt' Access All Alternates in Latin lookup 0 subtable" e.sc
Substitution2: "'smcp' Lowercase to Small Capitals in Latin lookup 2 subtable" e.sc
EndChar

StartChar: f
Encoding: 102 102 79
Width: 333
VWidth: 0
GlyphClass: 2
Flags: W
TeX: 726 -3
HStem: -3 30<23 69 227 273> 385 49<190 314> 662 66<230.199 321.352>
VStem: 106 84<31.9885 385 434 589.108>
AnchorPoint: "bot_acc" 182 -143 basechar 0
AnchorPoint: "dotbelow" 182 -143 basechar 0
AnchorPoint: "ogon_acc" 148 -143 basechar 0
AnchorPoint: "top_accl" 182 854 basechar 0
AnchorPoint: "dotabove" 182 854 basechar 0
LayerCount: 2
Fore
SplineSet
23 -3 m 1
 23 27 l 1
 69 30 l 2
 103 32 106 39 106 102 c 2
 106 385 l 1
 37 381 l 1
 37 403 l 1
 106 434 l 1
 106 476 l 2
 106 542 119 587 148 620 c 2
 206 686 l 2
 228 711 263 728 295 728 c 0
 308 728 320 725 341 717 c 1
 341 640 l 1
 329 634 l 1
 305 655 287 662 260 662 c 0
 203 662 190 634 190 519 c 2
 190 434 l 1
 234 434 277 435 321 438 c 1
 314 385 l 1
 190 385 l 1
 190 102 l 2
 190 39 193 32 227 30 c 2
 273 27 l 1
 273 -3 l 1
 231 -1 190 0 148 0 c 0
 106 0 65 -1 23 -3 c 1
EndSplineSet
Validated: 1
AlternateSubs2: "'aalt' Access All Alternates lookup 0 subtable" f.sc
AlternateSubs2: "'aalt' Access All Alternates in Latin lookup 0 subtable" f.sc
Substitution2: "'smcp' Lowercase to Small Capitals in Latin lookup 2 subtable" f.sc
EndChar

StartChar: longs
Encoding: 278 383 80
Width: 333
VWidth: 0
Flags: W
TeX: 728 -3
HStem: -3 30<23 69 227 273> 662 66<230.199 321.352>
VStem: 106 84<31.9885 385 434 589.108>
LayerCount: 2
Fore
SplineSet
23 -3 m 1
 23 27 l 1
 69 30 l 2
 103 32 106 39 106 102 c 2
 106 385 l 1
 37 381 l 1
 37 403 l 1
 106 434 l 1
 106 476 l 2
 106 542 119 587 148 620 c 2
 206 686 l 2
 228 711 263 728 295 728 c 0
 308 728 320 725 341 717 c 1
 341 640 l 1
 329 634 l 1
 305 655 287 662 260 662 c 0
 203 662 190 634 190 519 c 2
 190 102 l 2
 190 39 193 32 227 30 c 2
 273 27 l 1
 273 -3 l 1
 231 -1 190 0 148 0 c 0
 106 0 65 -1 23 -3 c 1
EndSplineSet
Validated: 1
EndChar

StartChar: g
Encoding: 103 103 81
Width: 556
VWidth: 0
GlyphClass: 2
Flags: W
TeX: 449 -283
HStem: -283 31<180.076 335.785> -14 70<168.562 406.497> 150 34<201.716 308.018> 378 49<427 519> 435 34<185.605 297.321>
VStem: 32 76<-195.752 -60.3831> 55 84<232.905 370.48> 81 83<38 97.7009> 354 84<245.146 376.494> 439 79<-151.353 -42.7517>
AnchorPoint: "bot_acc" 276 -426 basechar 0
AnchorPoint: "dotbelow" 276 -426 basechar 0
AnchorPoint: "ogon_acc" 276 -426 basechar 0
AnchorPoint: "top_accl" 276 592 basechar 0
AnchorPoint: "dotabove" 276 592 basechar 0
AnchorPoint: "ccmped" 276 592 basechar 0
LayerCount: 2
Fore
SplineSet
32 -129 m 0xfcc0
 32 -98 46 -61 60 -53 c 2
 147 -6 l 1
 99 8 81 24 81 52 c 0xf9c0
 81 67 86 80 96 95 c 1
 175 156 l 1
 101 164 55 215 55 289 c 0xfac0
 55 350 84 399 140 431 c 0
 181 455 232 469 276 469 c 0
 325 469 361 457 398 427 c 1
 540 431 l 1
 544 419 l 1
 519 378 l 1
 427 378 l 1
 435 357 438 344 438 324 c 0
 438 271 416 231 371 198 c 0
 330 169 277 150 234 150 c 0
 226 150 220 151 210 152 c 1
 206 148 204 146 198 141 c 0
 172 119 164 108 164 95 c 0xf9c0
 164 68 188 56 240 56 c 2
 400 56 l 2
 470 56 518 6 518 -66 c 0
 518 -188 399 -283 248 -283 c 0
 121 -283 32 -220 32 -129 c 0xfcc0
108 -127 m 0xfcc0
 108 -201 168 -252 255 -252 c 0
 360 -252 439 -188 439 -102 c 0
 439 -37 400 -14 287 -14 c 0
 218 -14 190 -17 174 -24 c 0
 134 -42 108 -82 108 -127 c 0xfcc0
139 313 m 0xfac0
 139 236 184 184 251 184 c 0
 312 184 354 229 354 294 c 0
 354 379 308 435 240 435 c 0
 176 435 139 390 139 313 c 0xfac0
EndSplineSet
Validated: 1
AlternateSubs2: "'aalt' Access All Alternates lookup 0 subtable" g.sc
AlternateSubs2: "'aalt' Access All Alternates in Latin lookup 0 subtable" g.sc
Substitution2: "'smcp' Lowercase to Small Capitals in Latin lookup 2 subtable" g.sc
EndChar

StartChar: h
Encoding: 104 104 82
Width: 582
VWidth: 0
GlyphClass: 2
Flags: W
TeX: 726 0
HStem: -3 30<6 51 209 254 500.231 572> 408 61<252.682 366.034> 661 28<7 84.266> 706 20G<141 172>
VStem: 88 84<31.9885 359.671 378 660.869> 410 84<31.9028 358.895>
AnchorPoint: "bot_acc" 289 -143 basechar 0
AnchorPoint: "dotbelow" 289 -143 basechar 0
AnchorPoint: "ogon_acc" 491 -143 basechar 0
AnchorPoint: "top_accu" 130 869 basechar 0
AnchorPoint: "dotabove" 348 592 basechar 0
LayerCount: 2
Fore
SplineSet
6 -3 m 1
 6 27 l 1
 51 30 l 2
 85 32 88 39 88 102 c 2
 88 620 l 2
 88 650 81 661 63 661 c 2
 7 661 l 1
 7 689 l 1
 86 701 119 709 163 726 c 1
 172 718 l 1
 172 378 l 1
 248 444 l 2
 269 462 290 469 327 469 c 0
 439 469 494 412 494 295 c 2
 494 102 l 2
 494 38 497 32 531 30 c 2
 572 27 l 1
 572 -3 l 1
 544 -1 517 0 489 0 c 0
 463 0 436 -1 410 -3 c 1
 410 281 l 2
 410 358 366 408 299 408 c 0
 238 408 172 359 172 314 c 2
 172 102 l 2
 172 39 175 32 209 30 c 2
 254 27 l 1
 254 -3 l 1
 213 -1 171 0 130 0 c 0
 89 0 47 -1 6 -3 c 1
EndSplineSet
Validated: 1
AlternateSubs2: "'aalt' Access All Alternates lookup 0 subtable" h.sc
AlternateSubs2: "'aalt' Access All Alternates in Latin lookup 0 subtable" h.sc
Substitution2: "'smcp' Lowercase to Small Capitals in Latin lookup 2 subtable" h.sc
EndChar

StartChar: k
Encoding: 107 107 83
Width: 556
VWidth: 0
GlyphClass: 2
Flags: W
TeX: 726 0
HStem: -3 30<21 67 225 269> 17 23<525.828 549> 429 30<452.189 511> 661 28<23 100.266> 706 20G<157 188>
VStem: 104 84<31.9885 240 261 660.869>
AnchorPoint: "bot_acc" 285 -143 basechar 0
AnchorPoint: "dotbelow" 285 -143 basechar 0
AnchorPoint: "ogon_acc" 453 -143 basechar 0
AnchorPoint: "top_accu" 146 869 basechar 0
AnchorPoint: "dotabove" 364 592 basechar 0
LayerCount: 2
Fore
SplineSet
21 -3 m 1xbc
 21 27 l 1xbc
 67 30 l 2
 101 32 104 39 104 102 c 2
 104 620 l 2
 104 650 97 661 79 661 c 2
 23 661 l 1
 23 689 l 1
 102 701 135 709 179 726 c 1
 188 718 l 1
 188 261 l 1
 261 320 l 2
 300 351 347 395 411 459 c 1
 511 459 l 1
 511 429 l 1
 477 429 450 418 403 382 c 2
 274 281 l 1
 291 261 302 248 338 213 c 2
 464 88 l 2
 496 57 525 40 549 40 c 1
 549 17 l 1x7c
 453 -12 l 1
 188 240 l 1
 188 102 l 2
 188 39 191 32 225 30 c 2
 269 27 l 1
 269 -3 l 1
 228 -1 188 0 147 0 c 0
 105 0 63 -1 21 -3 c 1xbc
EndSplineSet
Validated: 1
AlternateSubs2: "'aalt' Access All Alternates lookup 0 subtable" k.sc
AlternateSubs2: "'aalt' Access All Alternates in Latin lookup 0 subtable" k.sc
Substitution2: "'smcp' Lowercase to Small Capitals in Latin lookup 2 subtable" k.sc
EndChar

StartChar: l
Encoding: 108 108 84
Width: 291
VWidth: 0
GlyphClass: 2
Flags: W
TeX: 726 0
HStem: -3 30<21 67 225 271> 661 28<23 100.266> 706 20G<157 188>
VStem: 104 84<31.9885 660.869>
AnchorPoint: "bot_acc" 146 -143 basechar 0
AnchorPoint: "dotbelow" 146 -143 basechar 0
AnchorPoint: "ogon_acc" 146 -143 basechar 0
AnchorPoint: "top_accu" 146 869 basechar 0
AnchorPoint: "dotabove" 146 869 basechar 0
AnchorPoint: "ccmped" 286 634 basechar 0
LayerCount: 2
Fore
SplineSet
21 -3 m 1
 21 27 l 1
 67 30 l 2
 101 32 104 39 104 102 c 2
 104 620 l 2
 104 650 97 661 79 661 c 2
 23 661 l 1
 23 689 l 1
 102 701 135 709 179 726 c 1
 188 718 l 1
 188 102 l 2
 188 39 191 32 225 30 c 2
 271 27 l 1
 271 -3 l 1
 229 -1 188 0 146 0 c 0
 104 0 63 -1 21 -3 c 1
EndSplineSet
Validated: 1
AlternateSubs2: "'aalt' Access All Alternates lookup 0 subtable" l.sc
AlternateSubs2: "'aalt' Access All Alternates in Latin lookup 0 subtable" l.sc
Substitution2: "'smcp' Lowercase to Small Capitals in Latin lookup 2 subtable" l.sc
EndChar

StartChar: m
Encoding: 109 109 85
Width: 883
VWidth: 0
GlyphClass: 2
Flags: W
TeX: 449 0
HStem: -3 30<16 62 220 262 317 363 521 567 791.738 869> 400 28<18 91.8721> 408 61<256.131 362.904 557.139 664.122>
VStem: 99 84<31.9885 359.671 380 398.177> 400 84<31.9885 359.504> 701 84<31.9885 366.494>
CounterMasks: 1 1c
AnchorPoint: "bot_acc" 443 -143 basechar 0
AnchorPoint: "dotbelow" 443 -143 basechar 0
AnchorPoint: "ogon_acc" 785 -143 basechar 0
AnchorPoint: "top_accl" 443 592 basechar 0
AnchorPoint: "dotabove" 443 592 basechar 0
LayerCount: 2
Fore
SplineSet
16 -3 m 1xbc
 16 27 l 1
 62 30 l 2
 96 32 99 39 99 102 c 2
 99 327 l 2
 99 393 95 400 55 400 c 2
 18 400 l 1
 18 428 l 1xdc
 71 434 123 448 174 469 c 1
 183 465 l 1
 183 380 l 1
 252 444 l 2
 270 460 298 469 335 469 c 0
 404 469 445 442 477 376 c 1
 553 444 l 2
 571 460 600 469 635 469 c 0
 727 469 785 407 785 308 c 2
 785 102 l 2
 785 39 788 32 822 30 c 2
 869 27 l 1
 869 -3 l 1
 839 -1 810 0 780 0 c 0
 754 0 727 -1 701 -3 c 1
 701 281 l 2
 701 357 664 408 610 408 c 0
 550 408 484 359 484 314 c 2
 484 102 l 2
 484 39 487 32 521 30 c 2
 567 27 l 1
 567 -3 l 1
 525 -1 484 0 442 0 c 0
 400 0 359 -1 317 -3 c 1
 317 27 l 1
 363 30 l 2
 397 32 400 39 400 102 c 2
 400 281 l 2
 400 357 363 408 309 408 c 0
 249 408 183 359 183 314 c 2
 183 102 l 2
 183 39 186 32 220 30 c 2
 262 27 l 1
 262 -3 l 1
 222 -1 183 0 143 0 c 0
 101 0 58 -1 16 -3 c 1xbc
EndSplineSet
Validated: 1
AlternateSubs2: "'aalt' Access All Alternates lookup 0 subtable" m.sc
AlternateSubs2: "'aalt' Access All Alternates in Latin lookup 0 subtable" m.sc
Substitution2: "'smcp' Lowercase to Small Capitals in Latin lookup 2 subtable" m.sc
EndChar

StartChar: n
Encoding: 110 110 86
Width: 582
VWidth: 0
GlyphClass: 2
Flags: W
TeX: 449 0
HStem: -3 30<6 51 209 254 500.231 572> 400 28<7 80.8721> 408 61<252.682 366.034>
VStem: 88 84<31.9885 359.671 378 398.177> 410 84<31.9028 358.895>
AnchorPoint: "bot_acc" 291 -143 basechar 0
AnchorPoint: "dotbelow" 291 -143 basechar 0
AnchorPoint: "ogon_acc" 491 -143 basechar 0
AnchorPoint: "top_accl" 291 592 basechar 0
AnchorPoint: "dotabove" 291 592 basechar 0
LayerCount: 2
Fore
SplineSet
6 -3 m 1xb8
 6 27 l 1
 51 30 l 2
 85 32 88 39 88 102 c 2
 88 327 l 2
 88 393 84 400 44 400 c 2
 7 400 l 1
 7 428 l 1xd8
 60 434 112 448 163 469 c 1
 172 465 l 1
 172 378 l 1
 248 444 l 2
 269 462 290 469 327 469 c 0
 439 469 494 412 494 295 c 2
 494 102 l 2
 494 38 497 32 531 30 c 2
 572 27 l 1
 572 -3 l 1
 544 -1 517 0 489 0 c 0
 463 0 436 -1 410 -3 c 1
 410 281 l 2
 410 358 366 408 299 408 c 0
 238 408 172 359 172 314 c 2
 172 102 l 2
 172 39 175 32 209 30 c 2
 254 27 l 1
 254 -3 l 1
 213 -1 171 0 130 0 c 0
 89 0 47 -1 6 -3 c 1xb8
EndSplineSet
Validated: 1
AlternateSubs2: "'aalt' Access All Alternates lookup 0 subtable" n.sc
AlternateSubs2: "'aalt' Access All Alternates in Latin lookup 0 subtable" n.sc
Substitution2: "'smcp' Lowercase to Small Capitals in Latin lookup 2 subtable" n.sc
EndChar

StartChar: o
Encoding: 111 111 87
Width: 546
VWidth: 0
GlyphClass: 2
Flags: W
TeX: 449 0
HStem: -20 33<226.049 345.429> 436 33<196.245 321.821>
VStem: 32 93<126.887 325.556> 421 93<132.285 319.754>
AnchorPoint: "bot_acc" 279 -143 basechar 0
AnchorPoint: "dotbelow" 279 -143 basechar 0
AnchorPoint: "ogon_acc" 279 -143 basechar 0
AnchorPoint: "top_accl" 279 592 basechar 0
AnchorPoint: "dotabove" 279 592 basechar 0
LayerCount: 2
Fore
SplineSet
32 217 m 0
 32 366 133 469 279 469 c 0
 416 469 514 372 514 237 c 0
 514 87 404 -20 250 -20 c 0
 121 -20 32 76 32 217 c 0
125 251 m 0
 125 109 191 13 289 13 c 0
 370 13 421 85 421 200 c 0
 421 336 353 436 261 436 c 0
 173 436 125 371 125 251 c 0
EndSplineSet
Validated: 1
AlternateSubs2: "'aalt' Access All Alternates lookup 0 subtable" o.sc
AlternateSubs2: "'aalt' Access All Alternates in Latin lookup 0 subtable" o.sc
Substitution2: "'smcp' Lowercase to Small Capitals in Latin lookup 2 subtable" o.sc
EndChar

StartChar: p
Encoding: 112 112 88
Width: 601
VWidth: 0
GlyphClass: 2
Flags: W
TeX: 449 -281
HStem: -281 30<8 54 212 258> -12 51<221.793 361.767> 400 28<10 83.8721> 404 65<260.906 393.478>
VStem: 91 84<-246.011 13 78.8723 351.416 369 398.177> 467 87<178.49 326.215>
AnchorPoint: "bot_acc" 281 -424 basechar 0
AnchorPoint: "dotbelow" 336 -143 basechar 0
AnchorPoint: "ogon_acc" 133 -424 basechar 0
AnchorPoint: "top_accl" 281 592 basechar 0
AnchorPoint: "dotabove" 281 592 basechar 0
LayerCount: 2
Fore
SplineSet
8 -251 m 1xdc
 54 -248 l 2
 88 -246 91 -239 91 -176 c 2
 91 327 l 2
 91 393 87 400 47 400 c 2
 10 400 l 1
 10 428 l 1xec
 63 434 115 448 166 469 c 1
 175 465 l 1
 175 369 l 1
 257 444 l 2
 273 459 309 469 346 469 c 0
 462 469 554 382 554 271 c 0
 554 207 507 104 467 78 c 2
 353 4 l 2
 337 -6 311 -12 282 -12 c 0
 237 -12 205 -5 175 13 c 1
 175 -176 l 2
 175 -239 178 -246 212 -248 c 2
 258 -251 l 1
 258 -281 l 1
 216 -279 175 -278 133 -278 c 0
 91 -278 50 -279 8 -281 c 1
 8 -251 l 1xdc
175 98 m 1
 214 57 255 39 310 39 c 0
 400 39 467 122 467 234 c 0
 467 338 407 404 313 404 c 0xdc
 263 404 222 385 193 348 c 0
 180 331 175 320 175 306 c 2
 175 98 l 1
EndSplineSet
Validated: 1
AlternateSubs2: "'aalt' Access All Alternates lookup 0 subtable" p.sc
AlternateSubs2: "'aalt' Access All Alternates in Latin lookup 0 subtable" p.sc
Substitution2: "'smcp' Lowercase to Small Capitals in Latin lookup 2 subtable" p.sc
EndChar

StartChar: q
Encoding: 113 113 89
Width: 560
VWidth: 0
GlyphClass: 2
Flags: W
TeX: 449 -281
HStem: -281 30<298 356 514 560> -12 57<199.813 303.961> 422 47<209.594 364.789>
VStem: 35 87<137.106 310.638> 393 84<-246.011 66 86.2426 396>
AnchorPoint: "bot_acc" 298 -424 basechar 0
AnchorPoint: "dotbelow" 220 -143 basechar 0
AnchorPoint: "ogon_acc" 429 -424 basechar 0
AnchorPoint: "top_accl" 298 592 basechar 0
AnchorPoint: "dotabove" 298 592 basechar 0
LayerCount: 2
Fore
SplineSet
35 204 m 0
 35 291 68 357 132 398 c 2
 216 452 l 2
 231 461 266 469 295 469 c 0
 338 469 381 459 432 436 c 1
 481 467 l 1
 500 456 l 1
 483 418 477 380 477 318 c 2
 477 -176 l 2
 477 -239 480 -246 514 -248 c 2
 560 -251 l 1
 560 -281 l 1
 519 -279 478 -278 437 -278 c 0
 391 -278 344 -279 298 -281 c 1
 298 -251 l 1
 356 -248 l 2
 389 -246 393 -239 393 -176 c 2
 393 66 l 1
 289 0 l 2
 276 -8 259 -12 238 -12 c 0
 114 -12 35 73 35 204 c 0
122 248 m 0
 122 127 183 45 271 45 c 0
 295 45 318 52 342 65 c 0
 369 80 393 106 393 120 c 2
 393 381 l 1
 358 410 323 422 274 422 c 0
 178 422 122 358 122 248 c 0
EndSplineSet
Validated: 1
AlternateSubs2: "'aalt' Access All Alternates lookup 0 subtable" q.sc
AlternateSubs2: "'aalt' Access All Alternates in Latin lookup 0 subtable" q.sc
Substitution2: "'smcp' Lowercase to Small Capitals in Latin lookup 2 subtable" q.sc
EndChar

StartChar: r
Encoding: 114 114 90
Width: 395
VWidth: 0
GlyphClass: 2
Flags: W
TeX: 449 0
HStem: -3 30<21 67 235 287> 384 85<265.483 327.628> 400 28<23 96.8721>
VStem: 104 84<33.2344 345.681 362 398.177>
AnchorPoint: "bot_acc" 188 -143 basechar 0
AnchorPoint: "dotbelow" 188 -143 basechar 0
AnchorPoint: "ogon_acc" 154 -143 basechar 0
AnchorPoint: "top_accl" 188 592 basechar 0
AnchorPoint: "dotabove" 188 592 basechar 0
LayerCount: 2
Fore
SplineSet
21 -3 m 1xd0
 21 27 l 1
 67 30 l 2
 101 32 104 39 104 102 c 2
 104 327 l 2
 104 393 100 400 60 400 c 2
 23 400 l 1
 23 428 l 1xb0
 76 434 128 448 179 469 c 1xd0
 188 465 l 1
 188 362 l 1
 244 428 l 2xb0
 265 453 297 469 327 469 c 0
 345 469 363 465 374 458 c 1
 365 338 l 1
 344 338 l 1
 328 370 307 384 277 384 c 0
 228 384 188 334 188 274 c 2
 188 102 l 2
 188 36 190 33 235 30 c 2
 287 27 l 1
 287 -3 l 1
 239 -1 192 0 144 0 c 0
 103 0 62 -1 21 -3 c 1xd0
EndSplineSet
Validated: 1
AlternateSubs2: "'aalt' Access All Alternates lookup 0 subtable" r.sc
AlternateSubs2: "'aalt' Access All Alternates in Latin lookup 0 subtable" r.sc
Substitution2: "'smcp' Lowercase to Small Capitals in Latin lookup 2 subtable" r.sc
EndChar

StartChar: s
Encoding: 115 115 91
Width: 424
VWidth: 0
GlyphClass: 2
Flags: W
TeX: 449 0
HStem: -20 37<114.974 271.187> 436 33<138.001 274.63>
VStem: 37 70<308.468 398.706> 41 30<60.655 143> 317 74<72.3676 159.612> 321 28<331 392.715>
AnchorPoint: "bot_acc" 196 -143 basechar 0
AnchorPoint: "dotbelow" 196 -143 basechar 0
AnchorPoint: "ogon_acc" 196 -143 basechar 0
AnchorPoint: "top_accl" 196 592 basechar 0
AnchorPoint: "dotabove" 196 592 basechar 0
LayerCount: 2
Fore
SplineSet
30 4 m 1xe8
 38 44 41 74 41 143 c 1
 71 143 l 1
 71 102 l 2
 71 52 123 17 196 17 c 0
 267 17 317 55 317 109 c 0xd8
 317 147 298 168 253 178 c 0
 185 193 132 209 105 221 c 0
 59 242 37 276 37 324 c 0
 37 414 108 469 224 469 c 0
 265 469 301 462 354 444 c 1
 351 413 350 389 349 331 c 1
 321 331 l 1
 321 354 l 2xe4
 321 401 270 436 203 436 c 0
 142 436 107 408 107 358 c 0
 107 312 134 292 216 276 c 0
 304 259 337 248 363 222 c 0
 383 202 391 179 391 148 c 0
 391 50 298 -20 167 -20 c 0
 121 -20 82 -13 30 4 c 1xe8
EndSplineSet
Validated: 1
AlternateSubs2: "'aalt' Access All Alternates lookup 0 subtable" s.sc
AlternateSubs2: "'aalt' Access All Alternates in Latin lookup 0 subtable" s.sc
Substitution2: "'smcp' Lowercase to Small Capitals in Latin lookup 2 subtable" s.sc
EndChar

StartChar: t
Encoding: 116 116 92
Width: 326
VWidth: 0
GlyphClass: 2
Flags: W
TeX: 621 0
HStem: -12 63<192.572 265.125> 382 48<182 310>
VStem: 98 84<59.5151 382 434 581.602>
AnchorPoint: "bot_acc" 171 -143 basechar 0
AnchorPoint: "dotbelow" 171 -143 basechar 0
AnchorPoint: "ogon_acc" 235 -143 basechar 0
AnchorPoint: "top_accl" 145 764 basechar 0
AnchorPoint: "dotabove" 145 764 basechar 0
AnchorPoint: "ccmped" 291 634 basechar 0
LayerCount: 2
Fore
SplineSet
22 378 m 1
 22 399 l 1
 100 434 l 1
 100 504 l 2
 100 534 99 553 96 583 c 1
 127 593 157 606 181 621 c 1
 193 610 l 1
 185 546 182 510 182 468 c 2
 182 430 l 1
 319 436 l 1
 310 382 l 1
 182 382 l 1
 182 120 l 2
 182 71 198 51 237 51 c 0
 256 51 271 56 296 70 c 1
 309 53 l 1
 261 0 l 2
 255 -7 231 -12 208 -12 c 0
 131 -12 98 20 98 94 c 2
 98 382 l 1
 22 378 l 1
EndSplineSet
Validated: 1
AlternateSubs2: "'aalt' Access All Alternates lookup 0 subtable" t.sc
AlternateSubs2: "'aalt' Access All Alternates in Latin lookup 0 subtable" t.sc
Substitution2: "'smcp' Lowercase to Small Capitals in Latin lookup 2 subtable" t.sc
EndChar

StartChar: u
Encoding: 117 117 93
Width: 603
VWidth: 0
GlyphClass: 2
Flags: W
TeX: 449 0
HStem: -12 61<212.319 327.575> -3 33<507.453 581> 400 28<18 91.8721 338 411.872> 449 20G<148.5 183 468.5 503>
VStem: 99 84<79.125 398.177> 419 84<31.9028 89 109.016 398.177>
AnchorPoint: "bot_acc" 301 -143 basechar 0
AnchorPoint: "dotbelow" 301 -143 basechar 0
AnchorPoint: "ogon_acc" 498 -143 basechar 0
AnchorPoint: "top_accl" 301 592 basechar 0
AnchorPoint: "dotabove" 301 592 basechar 0
LayerCount: 2
Fore
SplineSet
18 400 m 1xbc
 18 428 l 1
 71 434 123 448 174 469 c 1
 183 465 l 1
 183 170 l 2
 183 126 190 95 204 79 c 0
 220 60 248 49 283 49 c 0xbc
 322 49 354 63 382 91 c 0
 405 114 419 142 419 164 c 2
 419 327 l 2
 419 393 415 400 375 400 c 2
 338 400 l 1
 338 428 l 1
 391 434 443 448 494 469 c 1
 503 465 l 1
 503 102 l 2
 503 38 506 32 540 30 c 2
 581 27 l 1
 581 -3 l 1
 553 -1 526 0 498 0 c 0
 470 0 443 -1 415 -3 c 1x7c
 418 44 419 60 419 89 c 1
 352 27 l 2
 325 2 285 -12 240 -12 c 0
 183 -12 145 3 123 33 c 0
 105 58 99 89 99 159 c 2
 99 327 l 2
 99 393 95 400 55 400 c 2
 18 400 l 1xbc
EndSplineSet
Validated: 1
AlternateSubs2: "'aalt' Access All Alternates lookup 0 subtable" u.sc
AlternateSubs2: "'aalt' Access All Alternates in Latin lookup 0 subtable" u.sc
Substitution2: "'smcp' Lowercase to Small Capitals in Latin lookup 2 subtable" u.sc
EndChar

StartChar: v
Encoding: 118 118 94
Width: 565
VWidth: 0
GlyphClass: 2
Flags: W
TeX: 449 0
HStem: 431 28<6 40 167.59 239 351 413.341 484.346 539>
AnchorPoint: "bot_acc" 273 -143 basechar 0
AnchorPoint: "dotbelow" 273 -143 basechar 0
AnchorPoint: "ogon_acc" 273 -143 basechar 0
AnchorPoint: "top_accl" 273 592 basechar 0
AnchorPoint: "dotabove" 273 592 basechar 0
LayerCount: 2
Fore
SplineSet
6 431 m 1
 6 459 l 1
 45 457 83 456 122 456 c 0
 161 456 200 457 239 459 c 1
 239 431 l 1
 190 429 l 2
 158 428 163 400 174 372 c 2
 293 84 l 1
 355 224 l 1
 397 330 l 2
 424 398 424 427 392 429 c 2
 351 431 l 1
 351 459 l 1
 382 457 414 456 445 456 c 0
 476 456 508 457 539 459 c 1
 539 431 l 1
 508 429 l 2
 488 428 475 413 452 362 c 2
 334 102 l 2
 314 57 299 26 293 -7 c 1
 243 -7 l 1
 71 396 l 2
 61 419 58 428 40 429 c 2
 6 431 l 1
EndSplineSet
Validated: 33
AlternateSubs2: "'aalt' Access All Alternates lookup 0 subtable" v.sc
AlternateSubs2: "'aalt' Access All Alternates in Latin lookup 0 subtable" v.sc
Substitution2: "'smcp' Lowercase to Small Capitals in Latin lookup 2 subtable" v.sc
EndChar

StartChar: w
Encoding: 119 119 95
Width: 834
VWidth: 0
GlyphClass: 2
Flags: W
TeX: 449 0
HStem: 431 28<6 34 170.903 244 612 677.395 782 808> 449 20G<404.288 440>
AnchorPoint: "bot_acc" 399 -143 basechar 0
AnchorPoint: "dotbelow" 399 -143 basechar 0
AnchorPoint: "ogon_acc" 558 -143 basechar 0
AnchorPoint: "top_accl" 399 592 basechar 0
AnchorPoint: "dotabove" 399 592 basechar 0
LayerCount: 2
Fore
SplineSet
6 431 m 1x80
 6 459 l 1
 46 457 85 456 125 456 c 0
 165 456 204 457 244 459 c 1
 244 431 l 1x80
 204 429 l 2
 166 427 161 410 170 380 c 2
 254 104 l 1
 413 469 l 1
 436 469 l 1x40
 444 442 451 422 465 388 c 2
 580 98 l 1
 628 222 l 1
 678 362 l 2
 692 402 686 427 646 429 c 2
 612 431 l 1
 612 459 l 1
 645 457 677 456 710 456 c 0
 743 456 775 457 808 459 c 1
 808 431 l 1
 782 429 l 2
 760 427 746 413 718 342 c 2
 581 -7 l 1
 535 -7 l 1
 399 335 l 1
 399 335 365 265 347 223 c 2
 249 -7 l 1
 202 -7 l 1
 100 329 l 2
 75 410 62 427 34 429 c 2
 6 431 l 1x80
EndSplineSet
Validated: 33
AlternateSubs2: "'aalt' Access All Alternates lookup 0 subtable" w.sc
AlternateSubs2: "'aalt' Access All Alternates in Latin lookup 0 subtable" w.sc
Substitution2: "'smcp' Lowercase to Small Capitals in Latin lookup 2 subtable" w.sc
EndChar

StartChar: x
Encoding: 120 120 96
Width: 516
VWidth: 0
GlyphClass: 2
Flags: W
TeX: 449 0
HStem: -3 21G<359.359 383> 0 27<20 65.6194 448.744 496> 423 26<25 46> 431 28<427.781 478> 449 20G<20 153>
AnchorPoint: "bot_acc" 258 -143 basechar 0
AnchorPoint: "dotbelow" 258 -143 basechar 0
AnchorPoint: "ogon_acc" 435 -143 basechar 0
AnchorPoint: "top_accl" 258 592 basechar 0
AnchorPoint: "dotabove" 258 592 basechar 0
LayerCount: 2
Fore
SplineSet
20 0 m 1x40
 20 27 l 1
 37 27 l 2
 47 27 60 33 67 42 c 2
 216 218 l 1
 96 392 l 2
 86 406 64 419 46 421 c 2
 25 423 l 1x60
 20 449 l 1
 136 469 l 1x08
 170 435 181 422 196 400 c 2
 272 284 l 1
 396 459 l 1
 478 459 l 1
 478 431 l 1
 464 431 l 2
 447 431 436 427 430 420 c 2
 288 254 l 1
 436 54 l 2
 447 39 459 31 471 30 c 2
 496 27 l 1x50
 496 -3 l 1x80
 475 -1 455 0 434 0 c 0x40
 414 0 393 -1 373 -3 c 1x80
 240 192 l 1
 166 94 l 2
 113 23 106 0 106 0 c 1
 20 0 l 1x40
EndSplineSet
Validated: 1
AlternateSubs2: "'aalt' Access All Alternates lookup 0 subtable" x.sc
AlternateSubs2: "'aalt' Access All Alternates in Latin lookup 0 subtable" x.sc
Substitution2: "'smcp' Lowercase to Small Capitals in Latin lookup 2 subtable" x.sc
EndChar

StartChar: y
Encoding: 121 121 97
Width: 556
VWidth: 0
GlyphClass: 2
Flags: W
TeX: 449 -283
HStem: -283 67<65.5719 156.366> -268 75<51 80.1115> 431 28<12 30 206 244 354 380 516 544>
AnchorPoint: "bot_acc" 299 -426 basechar 0
AnchorPoint: "dotbelow" 417 -143 basechar 0
AnchorPoint: "ogon_acc" 137 -426 basechar 0
AnchorPoint: "top_accl" 299 592 basechar 0
AnchorPoint: "dotabove" 299 592 basechar 0
LayerCount: 2
Fore
SplineSet
12 431 m 1xa0
 12 459 l 1
 51 457 89 456 128 456 c 0
 167 456 205 457 244 459 c 1
 244 431 l 1
 206 429 l 2
 167 427 165 408 182 364 c 2
 246 196 l 2
 265 147 275 124 297 86 c 1
 416 378 l 2
 431 414 422 426 380 429 c 2
 354 431 l 1
 354 459 l 1
 386 457 417 456 449 456 c 0
 481 456 512 457 544 459 c 1
 544 431 l 1
 516 429 l 2
 491 427 472 399 432 308 c 2
 229 -160 l 2
 191 -247 148 -283 81 -283 c 0xa0
 62 -283 46 -278 27 -268 c 1
 51 -193 l 1
 64 -193 l 1x60
 81 -208 99 -216 115 -216 c 0
 153 -216 192 -169 224 -85 c 2
 247 -24 l 1
 82 380 l 2
 68 415 55 426 30 429 c 2
 12 431 l 1xa0
EndSplineSet
Validated: 33
AlternateSubs2: "'aalt' Access All Alternates lookup 0 subtable" y.sc
AlternateSubs2: "'aalt' Access All Alternates in Latin lookup 0 subtable" y.sc
Substitution2: "'smcp' Lowercase to Small Capitals in Latin lookup 2 subtable" y.sc
EndChar

StartChar: z
Encoding: 122 122 98
Width: 500
VWidth: 0
GlyphClass: 2
Flags: W
TeX: 449 0
HStem: 0 35<141 413.281> 424 35<105.061 341>
VStem: 60 30<330 369.667> 436 30<108.278 139>
AnchorPoint: "bot_acc" 237 -143 basechar 0
AnchorPoint: "dotbelow" 237 -143 basechar 0
AnchorPoint: "ogon_acc" 237 -143 basechar 0
AnchorPoint: "top_accl" 237 592 basechar 0
AnchorPoint: "dotabove" 237 592 basechar 0
LayerCount: 2
Fore
SplineSet
16 17 m 1
 276 334 l 2
 304 368 320 391 341 424 c 1
 198 424 l 2
 124 424 106 419 102 398 c 2
 90 330 l 1
 60 330 l 1
 66 399 67 411 69 462 c 1
 152 460 234 459 317 459 c 0
 363 459 409 460 455 462 c 1
 455 432 l 1
 141 35 l 1
 276 35 l 2
 372 35 414 42 418 60 c 2
 436 139 l 1
 466 139 l 1
 460 92 l 2
 454 44 451 20 451 -3 c 1
 359 -1 267 0 175 0 c 0
 124 0 73 -1 22 -3 c 1
 16 17 l 1
EndSplineSet
Validated: 1
AlternateSubs2: "'aalt' Access All Alternates lookup 0 subtable" z.sc
AlternateSubs2: "'aalt' Access All Alternates in Latin lookup 0 subtable" z.sc
Substitution2: "'smcp' Lowercase to Small Capitals in Latin lookup 2 subtable" z.sc
EndChar

StartChar: asciitilde
Encoding: 126 126 99
Width: 606
VWidth: 0
Flags: W
TeX: 341 0
HStem: 201 56<344.602 470.15> 272 57<136.49 267.833>
LayerCount: 2
Fore
SplineSet
51 209 m 1
 100 296 139 329 190 329 c 0
 220 329 247 321 318 290 c 0
 379 263 397 257 416 257 c 0
 453 257 490 286 521 341 c 1
 555 314 l 1
 512 236 468 201 417 201 c 0
 391 201 363 210 287 242 c 0
 224 269 215 272 191 272 c 0
 151 272 125 250 85 182 c 1
 51 209 l 1
EndSplineSet
Validated: 1
EndChar

StartChar: Euro
Encoding: 128 8364 100
Width: 500
VWidth: 0
Flags: W
TeX: 692 0
HStem: -20 35<274.918 414.598> 274 51<13.5294 73 158 368> 376 44<16.6 73 162 404> 654 35<274.047 415.346>
VStem: 73 83<179.509 276 320 376 420 488.138> 453 32<47.7271 155 514 621.273>
LayerCount: 2
Fore
SplineSet
-2 274 m 1
 16 325 l 1
 31 322 41 320 73 320 c 1
 73 376 l 1
 44 376 12 376 -1 375 c 1
 17 426 l 1
 31 422 53 420 79 420 c 1
 98 553 174 689 337 689 c 0
 441 689 485 654 501 640 c 1
 498 616 485 555 485 514 c 1
 454 514 l 1
 452 604 l 1
 433 638 385 654 332 654 c 0
 253 654 181 564 162 420 c 1
 333 420 l 2
 366 420 397 422 422 426 c 1
 404 374 l 1
 157 376 l 1
 156 362 156 347 156 320 c 1
 231 320 313 320 386 325 c 1
 368 274 l 1
 158 276 l 1
 173 115 247 15 332 15 c 0
 376 15 428 29 450 61 c 1
 453 155 l 1
 485 155 l 1
 485 114 498 53 501 29 c 1
 485 15 441 -20 337 -20 c 0
 159 -20 88 133 75 276 c 1
 37 276 12 275 -2 274 c 1
EndSplineSet
Validated: 1
EndChar

StartChar: f_i
Encoding: 129 64257 101
Width: 605
VWidth: 0
GlyphClass: 3
Flags: W
TeX: 726 0
HStem: -3 30<23 69 227 273 337 383 541 587> 385 49<190 314> 398 28<339 412.741> 449 20G<473 504> 542 100<424.91 509.09> 662 66<230.199 321.352>
VStem: 106 84<31.9885 385 434 589.108> 417 100<549.285 634.09> 420 84<31.9885 396.177>
LayerCount: 2
Fore
SplineSet
23 -3 m 1xde
 23 27 l 1
 69 30 l 2
 103 32 106 39 106 102 c 2
 106 385 l 1
 37 381 l 1
 37 403 l 1
 106 434 l 1
 106 476 l 2
 106 542 119 587 148 620 c 2
 206 686 l 2
 228 711 263 728 295 728 c 0
 308 728 320 725 341 717 c 1
 341 640 l 1
 329 634 l 1
 305 655 287 662 260 662 c 0
 203 662 190 634 190 519 c 2
 190 434 l 1
 234 434 277 435 321 438 c 1
 314 385 l 1
 190 385 l 1
 190 102 l 2
 190 39 193 32 227 30 c 2
 273 27 l 1
 273 -3 l 1
 231 -1 190 0 148 0 c 0
 106 0 65 -1 23 -3 c 1xde
337 -3 m 1
 337 27 l 1
 383 30 l 2
 417 32 420 39 420 102 c 2
 420 325 l 2
 420 391 416 398 376 398 c 2
 339 398 l 1
 339 426 l 1
 398 433 451 447 495 469 c 1
 504 462 l 1
 504 102 l 2xbe80
 504 39 507 32 541 30 c 2
 587 27 l 1
 587 -3 l 1
 545 -1 504 0 462 0 c 0
 420 0 379 -1 337 -3 c 1
417 592 m 0x9f
 417 622 437 642 468 642 c 0
 497 642 517 621 517 592 c 0
 517 562 497 542 467 542 c 0
 437 542 417 562 417 592 c 0x9f
EndSplineSet
Validated: 1
Ligature2: "liga_PLK subtable" f i
Ligature2: "liga_NLDb subtable" f i
Ligature2: "liga_f_i subtable" f i
EndChar

StartChar: f_l
Encoding: 130 64258 102
Width: 608
VWidth: 0
GlyphClass: 3
Flags: W
TeX: 726 0
HStem: -3 30<23 69 227 279 340 386 544 590> 385 49<190 314> 662 66<229.486 324.773> 706 20G<477 507>
VStem: 106 84<31.9885 385 434 589.108> 423 84<31.9885 660.653>
LayerCount: 2
Fore
SplineSet
23 -3 m 1xec
 23 27 l 1
 69 30 l 2
 103 32 106 39 106 102 c 2
 106 385 l 1
 37 381 l 1
 37 403 l 1
 106 434 l 1
 106 476 l 2
 106 542 119 587 148 620 c 2
 206 686 l 2
 229 712 263 728 294 728 c 0xec
 304 728 313 727 334 722 c 0
 343 720 345 719 356 717 c 1
 356 689 l 1
 423 703 456 711 498 726 c 1xdc
 507 716 l 1
 507 102 l 2
 507 39 510 32 544 30 c 2
 590 27 l 1
 590 -3 l 1
 548 -1 507 0 465 0 c 0
 423 0 382 -1 340 -3 c 1
 340 27 l 1
 386 30 l 2
 420 32 423 39 423 102 c 2
 423 606 l 2
 423 642 414 661 398 661 c 2
 356 661 l 1
 356 640 l 1
 334 634 l 1
 304 655 286 662 259 662 c 0
 203 662 190 634 190 519 c 2
 190 434 l 1
 234 434 277 435 321 438 c 1
 314 385 l 1
 190 385 l 1
 190 102 l 2
 190 39 193 32 227 30 c 2
 279 27 l 1
 279 -3 l 1
 236 -1 192 0 149 0 c 0
 107 0 65 -1 23 -3 c 1xec
EndSplineSet
Validated: 1
Ligature2: "liga_f_f_l subtable" f l
EndChar

StartChar: quotedblbase
Encoding: 132 8222 103
Width: 500
VWidth: 0
GlyphClass: 3
Flags: W
TeX: 110 -153
HStem: -153 263
LayerCount: 2
Fore
SplineSet
51 -143 m 1
 99 -66 123 1 129 80 c 1
 226 110 l 1
 239 97 l 1
 205 11 167 -56 110 -129 c 1
 66 -153 l 1
 51 -143 l 1
261 -143 m 1
 309 -66 333 1 339 80 c 1
 436 110 l 1
 449 97 l 1
 415 11 377 -56 320 -129 c 1
 276 -153 l 1
 261 -143 l 1
EndSplineSet
Validated: 1
Ligature2: "'dlig' Discretionary Ligatures in Latin lookup 12 subtable" comma comma
EndChar

StartChar: dagger
Encoding: 134 8224 104
Width: 500
VWidth: 0
Flags: W
TeX: 692 0
HStem: 397 63<39.0552 213 287 460.942> 447 20G<34 39 346 466> 674 20G<200 220.5 279.5 300>
VStem: 213 74<81.6228 397 460 688.895>
LayerCount: 2
Fore
SplineSet
34 395 m 1xb0
 36 410 37 415 37 428 c 0
 37 441 36 446 34 462 c 1
 39 467 l 1x70
 39 467 115 460 154 460 c 2
 213 460 l 1
 213 512 l 2
 213 544 200 689 200 689 c 1
 205 694 l 1
 236 691 232 691 250 691 c 0
 268 691 264 691 295 694 c 1
 300 689 l 1
 300 689 287 545 287 512 c 2
 287 460 l 1
 346 460 l 1xb0
 461 467 l 1x70
 466 462 l 1
 464 447 463 441 463 428 c 0
 463 415 464 410 466 395 c 1
 461 391 l 1
 461 391 381 397 346 397 c 2
 287 397 l 1
 287 319 l 2
 287 166 296 0 296 0 c 1
 291 -5 l 1
 268 -2 266 -1 250 -1 c 0
 234 -1 233 -2 209 -5 c 1
 204 0 l 1
 204 0 213 170 213 319 c 2
 213 397 l 1
 154 397 l 1
 39 390 l 1
 34 395 l 1xb0
EndSplineSet
Validated: 1
EndChar

StartChar: daggerdbl
Encoding: 135 8225 105
Width: 500
VWidth: 0
Flags: W
TeX: 692 -250
HStem: -38 63<42.3255 213 287 457.81> 420 63<42.3255 213 287 457.811> 674 20G<200 220.5 279.5 300>
VStem: 205 90<28.951 416.094> 213 74<-243.904 -38 25 222.417 223.497 420 483 615.615>
LayerCount: 2
Fore
SplineSet
34 27 m 1xe8
 39 32 l 1
 111 26 115 25 138 25 c 2
 213 25 l 1xe8
 213 109 205 212 205 223 c 0xf0
 205 232 213 337 213 420 c 1
 138 420 l 2
 113 420 93 418 39 413 c 1
 34 418 l 1
 36 435 37 439 37 453 c 0
 37 465 36 470 34 485 c 1
 39 490 l 1
 111 484 115 483 138 483 c 2
 213 483 l 1
 213 530 l 2xe8
 213 553 200 689 200 689 c 1
 205 694 l 1
 236 691 232 691 250 691 c 0
 268 691 264 691 295 694 c 1xf0
 300 689 l 1
 287 530 l 1
 287 483 l 1
 362 483 l 2
 385 483 392 484 461 490 c 1
 466 485 l 1
 464 471 463 465 463 453 c 0
 463 439 464 434 466 418 c 1
 461 413 l 1
 408 418 385 420 362 420 c 2
 287 420 l 1xe8
 287 344 295 232 295 223 c 0xf0
 295 214 287 103 287 25 c 1
 362 25 l 2
 385 25 392 26 461 32 c 1
 466 27 l 1
 464 13 463 7 463 -5 c 0
 463 -19 464 -24 466 -40 c 1
 461 -45 l 1
 392 -39 384 -38 362 -38 c 2
 287 -38 l 1
 287 -85 l 2xe8
 287 -121 300 -244 300 -244 c 1
 295 -249 l 1
 264 -246 268 -246 250 -246 c 0
 232 -246 236 -246 205 -249 c 1xf0
 200 -244 l 1
 200 -244 213 -111 213 -85 c 2
 213 -38 l 1
 138 -38 l 2
 116 -38 110 -39 39 -45 c 1
 34 -40 l 1
 36 -23 37 -19 37 -5 c 0
 37 7 36 12 34 27 c 1xe8
EndSplineSet
Validated: 1
EndChar

StartChar: OE
Encoding: 141 338 106
Width: 998
VWidth: 0
Flags: W
TeX: 692 0
HStem: -20 44<293.706 491.635> -2 41<615.352 897.812> 330 41<614 830.915> 441 20G<839.077 871> 650 42<615.443 886.574> 665 44<271.871 480.614>
VStem: 22 100<224.344 473.262> 519 95<57.2591 328.382 375 619.741> 841 30<234 292 409 461> 895 35<537 632.858> 922 40<66.2569 164>
LayerCount: 2
Fore
SplineSet
22 340 m 0xb3a0
 22 560 175 709 399 709 c 0xb7a0
 457 709 571 689 588 689 c 2
 825 692 l 1
 946 689 l 1
 935 645 930 597 930 537 c 1
 895 537 l 1
 895 602 l 2x3bc0
 895 625 892 630 868 636 c 0
 837 644 779 650 727 650 c 0
 662 650 645 649 614 642 c 1
 614 375 l 1
 662 372 700 371 765 371 c 0
 808 371 833 375 836 409 c 2
 841 461 l 1
 871 461 l 1
 869 422 868 384 868 345 c 0
 868 308 869 271 871 234 c 1
 841 234 l 1
 836 292 l 2
 833 326 808 330 765 330 c 2
 711 330 l 2
 668 330 640 329 614 327 c 1
 614 47 l 1
 643 41 662 39 711 39 c 0
 795 39 869 44 888 51 c 0
 901 56 915 86 922 130 c 2
 927 164 l 1
 962 164 l 1
 952 112 946 58 946 0 c 1
 786 -3 l 1
 679 -2 l 2x7ba0
 562 -1 453 -21 391 -20 c 0
 172 -20 22 123 22 340 c 0xb3a0
122 370 m 0
 122 167 231 24 385 24 c 0
 431 24 489 38 514 56 c 1
 518 83 519 101 519 139 c 2
 519 538 l 2
 519 576 518 594 514 621 c 1
 480 651 438 665 381 665 c 0
 218 665 122 555 122 370 c 0
EndSplineSet
Validated: 33
AlternateSubs2: "'aalt' Access All Alternates lookup 0 subtable" oe.sc
AlternateSubs2: "'aalt' Access All Alternates in Latin lookup 0 subtable" oe.sc
Substitution2: "'c2sc' Capitals to Small Capitals in Latin lookup 13 subtable" oe.sc
Position2: "'cpsp' Capital Spacing in Latin lookup 12 subtable" dx=7 dy=0 dh=14 dv=0
EndChar

StartChar: quoteleft
Encoding: 145 8216 107
Width: 278
VWidth: 0
Flags: W
TeX: 692 0
HStem: 446 263
VStem: 45 188
LayerCount: 2
Fore
SplineSet
45 459 m 1
 79 545 117 612 174 685 c 1
 218 709 l 1
 233 699 l 1
 185 623 161 555 155 476 c 1
 58 446 l 1
 45 459 l 1
EndSplineSet
Validated: 1
EndChar

StartChar: quoteright
Encoding: 146 8217 108
Width: 278
VWidth: 0
Flags: W
TeX: 692 0
HStem: 446 263
VStem: 45 188
LayerCount: 2
Fore
SplineSet
45 456 m 1
 93 533 117 599 123 679 c 1
 220 709 l 1
 233 696 l 1
 199 610 161 543 104 470 c 1
 60 446 l 1
 45 456 l 1
EndSplineSet
Validated: 1
EndChar

StartChar: quotedblleft
Encoding: 147 8220 109
Width: 500
VWidth: 0
GlyphClass: 3
Flags: W
TeX: 692 0
HStem: 446 263
LayerCount: 2
Fore
SplineSet
51 459 m 1
 85 545 123 612 180 685 c 1
 224 709 l 1
 239 699 l 1
 191 623 167 555 161 476 c 1
 64 446 l 1
 51 459 l 1
261 459 m 1
 295 545 333 612 390 685 c 1
 434 709 l 1
 449 699 l 1
 401 623 377 555 371 476 c 1
 274 446 l 1
 261 459 l 1
EndSplineSet
Validated: 1
Ligature2: "'dlig' Discretionary Ligatures in Latin lookup 12 subtable" quoteleft quoteleft
EndChar

StartChar: quotedblright
Encoding: 148 8221 110
Width: 500
VWidth: 0
GlyphClass: 3
Flags: W
TeX: 692 0
HStem: 446 263
LayerCount: 2
Fore
SplineSet
51 456 m 1
 99 533 123 599 129 679 c 1
 226 709 l 1
 239 696 l 1
 205 610 167 543 110 470 c 1
 66 446 l 1
 51 456 l 1
261 456 m 1
 309 533 333 599 339 679 c 1
 436 709 l 1
 449 696 l 1
 415 610 377 543 320 470 c 1
 276 446 l 1
 261 456 l 1
EndSplineSet
Validated: 1
Ligature2: "'dlig' Discretionary Ligatures in Latin lookup 12 subtable" quoteright quoteright
EndChar

StartChar: endash
Encoding: 150 8211 111
Width: 500
VWidth: 0
GlyphClass: 3
Flags: W
TeX: 277 0
HStem: 219 58<0 500>
LayerCount: 2
Fore
SplineSet
0 219 m 1
 0 277 l 1
 500 277 l 1
 500 219 l 1
 0 219 l 1
EndSplineSet
Validated: 1
Ligature2: "'dlig' Discretionary Ligatures in Latin lookup 12 subtable" hyphen hyphen
EndChar

StartChar: emdash
Encoding: 151 8212 112
Width: 1000
VWidth: 0
GlyphClass: 3
Flags: W
TeX: 277 0
HStem: 219 58<0 1000>
LayerCount: 2
Fore
SplineSet
0 219 m 1
 0 277 l 1
 1000 277 l 1
 1000 219 l 1
 0 219 l 1
EndSplineSet
Validated: 1
Ligature2: "'dlig' Discretionary Ligatures in Latin lookup 12 subtable" hyphen hyphen hyphen hyphen
EndChar

StartChar: oe
Encoding: 157 339 113
Width: 827
VWidth: 0
Flags: W
TeX: 449 0
HStem: -20 53<556.614 708.489> -20 33<221.002 336.814> 230 34<475.511 715.38> 436 33<189.511 315.465 543.237 658.122>
VStem: 32 93<128.504 337.636> 403 68<123.209 230 268.266 335.362> 717 83<267 374.017>
LayerCount: 2
Fore
SplineSet
32 230 m 0x7e
 32 373 128 469 272 469 c 0
 343 469 388 449 445 393 c 1
 510 451 549 469 611 469 c 0
 726 469 800 395 800 279 c 0
 800 267 799 258 798 244 c 1
 729 233 686 230 617 230 c 2
 471 230 l 1
 473 172 480 144 499 111 c 0
 527 61 581 33 647 33 c 0
 691 33 718 43 778 80 c 1
 792 70 l 1
 772 36 l 2
 768 30 747 18 722 7 c 0
 681 -10 642 -20 607 -20 c 0xbe
 539 -20 493 4 435 67 c 1
 374 3 327 -20 258 -20 c 0
 126 -20 32 84 32 230 c 0x7e
125 260 m 0
 125 114 188 13 279 13 c 0x7e
 358 13 403 82 403 203 c 0
 403 347 346 436 253 436 c 0
 168 436 125 377 125 260 c 0
473 270 m 1
 527 265 553 263 600 264 c 2
 717 267 l 1
 717 319 711 345 694 377 c 0
 672 418 645 436 608 436 c 0
 566 436 525 416 503 385 c 0
 482 356 475 327 473 270 c 1
EndSplineSet
Validated: 33
AlternateSubs2: "'aalt' Access All Alternates lookup 0 subtable" oe.sc
AlternateSubs2: "'aalt' Access All Alternates in Latin lookup 0 subtable" oe.sc
Substitution2: "'smcp' Lowercase to Small Capitals in Latin lookup 2 subtable" oe.sc
EndChar

StartChar: Lslash
Encoding: 163 321 114
Width: 611
VWidth: 0
GlyphClass: 2
Flags: W
TeX: 692 0
HStem: -3 42<217.217 508.647> 662 30<22 70 267 315>
VStem: 121 95<43.1865 314 360 382 428 653.814> 554 32<142.833 172>
AnchorPoint: "bot_acc" 304 -143 basechar 0
AnchorPoint: "dotbelow" 304 -143 basechar 0
AnchorPoint: "ogon_acc" 473 -143 basechar 0
AnchorPoint: "top_accu" 169 819 basechar 0
AnchorPoint: "dotabove" 169 819 basechar 0
LayerCount: 2
Fore
SplineSet
22 662 m 1
 22 692 l 1
 71 690 119 689 168 689 c 0
 217 689 266 690 315 692 c 1
 315 662 l 1
 267 659 l 2
 221 656 216 648 216 569 c 2
 216 428 l 1
 357 545 l 1
 377 516 l 1
 216 382 l 1
 216 47 l 1
 242 41 265 39 301 39 c 0
 420 39 507 46 520 57 c 0
 526 62 533 83 542 122 c 2
 554 172 l 1
 586 172 l 1
 576 75 572 43 565 0 c 1
 429 -3 439 -3 397 -3 c 0
 319 -3 242 0 164 0 c 0
 131 0 98 -1 65 -3 c 1
 65 20 l 1
 96 36 l 2
 112 44 121 66 121 95 c 2
 121 314 l 1
 71 273 l 1
 50 302 l 1
 121 360 l 1
 121 569 l 2
 121 648 116 656 70 659 c 2
 22 662 l 1
EndSplineSet
Validated: 1
AlternateSubs2: "'aalt' Access All Alternates lookup 0 subtable" lslash.sc
AlternateSubs2: "'aalt' Access All Alternates in Latin lookup 0 subtable" lslash.sc
Substitution2: "'c2sc' Capitals to Small Capitals in Latin lookup 13 subtable" lslash.sc
Position2: "'cpsp' Capital Spacing in Latin lookup 12 subtable" dx=7 dy=0 dh=14 dv=0
EndChar

StartChar: currency
Encoding: 164 164 115
Width: 500
VWidth: 0
Flags: W
TeX: 531 0
HStem: 102 59<170.445 327.59> 465 59<172.338 328.239>
VStem: 37 59<236.529 388.822> 404 59<236.827 389.418>
LayerCount: 2
Fore
SplineSet
30 141 m 1
 79 190 l 1
 49 228 37 262 37 313 c 0
 37 365 49 401 79 435 c 1
 30 484 l 1
 77 531 l 1
 125 483 l 1
 162 511 202 524 250 524 c 0
 298 524 337 511 375 483 c 1
 423 531 l 1
 470 484 l 1
 421 435 l 1
 451 401 463 365 463 313 c 0
 463 263 451 228 421 190 c 1
 470 141 l 1
 425 96 l 1
 377 144 l 1
 339 114 303 102 250 102 c 0
 196 102 160 114 123 144 c 1
 75 96 l 1
 30 141 l 1
96 313 m 0
 96 229 165 161 250 161 c 0
 335 161 404 229 404 314 c 0
 404 397 334 465 248 465 c 0
 165 465 96 395 96 313 c 0
EndSplineSet
Validated: 1
EndChar

StartChar: Aogonek
Encoding: 165 260 116
Width: 778
VWidth: 0
GlyphClass: 3
Flags: W
TeX: 692 -250
HStem: -250 46<621.503 710.522> -3 30<15 52 208 245 490 537 722 756> 229 40<240 493> 680 20G<376 416.521>
VStem: 540 69<-194.442 -83.8633> 730 26<-158.125 -138>
AnchorPoint: "bot_acc" 648 -373 basechar 0
AnchorPoint: "dotbelow" 648 -373 basechar 0
AnchorPoint: "ogon_acc" 648 -373 basechar 0
AnchorPoint: "top_accu" 386 819 basechar 0
AnchorPoint: "dotabove" 386 819 basechar 0
LayerCount: 2
Fore
SplineSet
15 -3 m 1
 15 27 l 1
 52 30 l 2
 74 32 93 50 106 79 c 2
 327 581 l 2
 365 666 376 700 376 700 c 1
 408 700 l 1
 650 132 l 2
 685 51 696 32 722 30 c 2
 756 27 l 1
 756 -3 l 1
 718 -1 l 2
 680 0 652 -33 631 -66 c 0
 618 -87 609 -110 609 -132 c 0
 609 -182 632 -204 657 -204 c 0
 686 -204 715 -189 722 -162 c 2
 730 -131 l 1
 756 -138 l 1
 756 -193 l 1
 719 -225 l 2
 694 -246 661 -250 628 -250 c 0
 569 -250 540 -201 540 -158 c 0
 540 -97 586 -39 643 0 c 1
 629 0 l 1
 490 -3 l 1
 490 27 l 1
 537 30 l 2
 562 32 578 39 578 50 c 0
 578 59 574 72 557 114 c 2
 511 229 l 1
 223 229 l 1
 195 162 l 2
 174 112 160 69 160 56 c 0
 160 40 173 33 208 30 c 2
 245 27 l 1
 245 -3 l 1
 205 -1 164 0 124 0 c 0
 88 0 51 -1 15 -3 c 1
240 269 m 1
 493 269 l 1
 367 567 l 1
 240 269 l 1
EndSplineSet
Validated: 33
AlternateSubs2: "'aalt' Access All Alternates lookup 0 subtable" aogonek.sc
AlternateSubs2: "'aalt' Access All Alternates in Latin lookup 0 subtable" aogonek.sc
Ligature2: "ccmp_lig subtable" A ogonekcomb
Substitution2: "'c2sc' Capitals to Small Capitals in Latin lookup 13 subtable" aogonek.sc
Position2: "'cpsp' Capital Spacing in Latin lookup 12 subtable" dx=7 dy=0 dh=14 dv=0
EndChar

StartChar: section
Encoding: 167 167 117
Width: 500
VWidth: 0
Flags: W
TeX: 692 -250
HStem: -219 52<137.799 297.594> 657 52<188.312 329.181>
VStem: 26 66<230.832 318.796> 51 58<481.337 576.474> 56 32<-108 -18> 372 31<521 608> 384 63<-76.3011 13.9788> 399 66<174.639 269.297>
LayerCount: 2
Fore
SplineSet
26 243 m 0xe2
 26 296 53 341 109 382 c 1
 70 411 51 446 51 485 c 0
 51 606 158 709 283 709 c 0
 332 709 371 698 416 673 c 1
 408 616 405 578 403 521 c 1
 372 521 l 1xd4
 367 608 l 1
 325 644 293 657 246 657 c 0
 166 657 109 607 109 537 c 0
 109 506 121 485 150 465 c 0
 174 449 196 439 287 410 c 0
 420 367 465 327 465 253 c 0xd1
 465 200 442 158 387 111 c 1
 429 88 447 57 447 7 c 0
 447 -107 326 -219 201 -219 c 0
 149 -219 96 -204 44 -175 c 1
 51 -111 54 -74 56 -18 c 1
 88 -18 l 1xca
 93 -108 l 1
 134 -152 169 -167 231 -167 c 0
 324 -167 384 -120 384 -47 c 0
 384 -12 369 14 338 36 c 0
 314 53 288 63 205 90 c 0
 124 116 94 131 62 159 c 0
 40 178 26 210 26 243 c 0xe2
92 282 m 0xe1
 92 229 141 195 281 153 c 0
 329 138 340 134 365 123 c 1
 390 162 399 186 399 213 c 0
 399 244 383 271 353 290 c 0
 324 308 294 319 225 339 c 0
 173 354 163 358 135 369 c 1
 104 341 92 316 92 282 c 0xe1
EndSplineSet
Validated: 1
EndChar

StartChar: Uogonek
Encoding: 168 370 118
Width: 778
VWidth: 0
GlyphClass: 3
Flags: W
TeX: 692 -250
HStem: -250 46<371.503 460.745> -20 62<288.889 367> 662 30<12 60 257 305 523 567 715 759>
VStem: 111 95<121.943 653.814> 290 69<-194.442 -84.0711> 480 26<-158.125 -138> 618 46<138.51 653.643>
AnchorPoint: "bot_acc" 398 -373 basechar 0
AnchorPoint: "dotbelow" 398 -373 basechar 0
AnchorPoint: "ogon_acc" 398 -373 basechar 0
AnchorPoint: "top_accu" 386 819 basechar 0
AnchorPoint: "dotabove" 386 819 basechar 0
LayerCount: 2
Fore
SplineSet
12 662 m 1
 12 692 l 1
 61 690 109 689 158 689 c 0
 207 689 256 690 305 692 c 1
 305 662 l 1
 257 659 l 2
 211 656 206 648 206 569 c 2
 206 225 l 2
 206 97 266 42 405 42 c 0
 550 42 618 108 618 249 c 2
 618 569 l 2
 618 647 613 656 567 659 c 2
 523 662 l 1
 523 692 l 1
 562 690 600 689 639 689 c 0
 679 689 719 690 759 692 c 1
 759 662 l 1
 715 659 l 2
 669 656 664 647 664 569 c 2
 664 280 l 2
 664 169 642 94 595 47 c 0
 568 19 532 1 486 -10 c 0
 451 -17 410 -27 392 -51 c 0
 373 -76 359 -104 359 -132 c 0
 359 -182 382 -204 407 -204 c 0
 437 -204 465 -189 472 -162 c 2
 480 -131 l 1
 506 -138 l 1
 506 -193 l 1
 469 -225 l 2
 445 -246 411 -250 378 -250 c 0
 319 -250 290 -201 290 -158 c 0
 290 -107 322 -58 367 -20 c 1
 273 -18 205 3 167 42 c 0
 129 81 111 136 111 214 c 2
 111 569 l 2
 111 648 106 656 60 659 c 2
 12 662 l 1
EndSplineSet
Validated: 1
AlternateSubs2: "'aalt' Access All Alternates lookup 0 subtable" uogonek.sc
AlternateSubs2: "'aalt' Access All Alternates in Latin lookup 0 subtable" uogonek.sc
Ligature2: "ccmp_lig subtable" U ogonekcomb
Substitution2: "'c2sc' Capitals to Small Capitals in Latin lookup 13 subtable" uogonek.sc
Position2: "'cpsp' Capital Spacing in Latin lookup 12 subtable" dx=7 dy=0 dh=14 dv=0
EndChar

StartChar: AE
Encoding: 170 198 119
Width: 944
VWidth: 0
Flags: W
TeX: 692 0
HStem: -3 42<553.351 845.63> -3 30<-10 24 179 215> 242 41<242 462> 327 48<552 779.435> 441 20G<785.077 817> 655 34<450 462 553.443 804.386> 662 30<286 330>
VStem: 462 90<43.3806 242 283 327 375 646.203> 787 30<234 293 409 461> 841 35<537 632.793> 873 35<79.4272 164>
LayerCount: 2
Fore
SplineSet
-10 -3 m 1x79a0
 -10 27 l 1
 24 32 l 2
 38 34 57 53 76 87 c 2
 365 599 l 2
 377 620 384 638 384 646 c 0
 384 653 371 656 330 659 c 2
 286 662 l 1
 286 692 l 1x7ba0
 372 690 457 689 543 689 c 0x3da0
 618 689 694 690 769 692 c 2x3ba0
 892 689 l 1
 881 645 876 597 876 537 c 1
 841 537 l 1
 841 602 l 2x3dc0
 841 624 838 629 814 636 c 0
 782 644 726 650 669 650 c 0
 600 650 583 649 552 642 c 1
 552 375 l 1
 596 372 656 371 710 371 c 0
 754 371 779 375 782 409 c 2
 787 461 l 1
 817 461 l 1
 815 422 814 384 814 345 c 0
 814 308 815 271 817 234 c 1
 787 234 l 1
 782 293 l 2
 779 326 754 330 709 330 c 2
 552 327 l 1
 552 47 l 1
 581 41 599 39 651 39 c 0
 741 39 814 44 835 51 c 0
 854 57 865 102 873 164 c 1
 908 164 l 1
 898 112 892 58 892 0 c 1
 724 -3 l 2xbda0
 642 -1 559 0 477 0 c 0
 454 0 431 -1 408 -3 c 1
 408 20 l 1
 436 36 l 2
 455 47 462 68 462 120 c 2
 462 242 l 1
 421 244 380 245 339 245 c 0
 299 245 258 244 218 242 c 1
 154 128 l 2
 130 85 126 74 126 59 c 0
 126 43 144 33 179 30 c 2
 215 27 l 1
 215 -3 l 1
 182 -1 150 0 117 0 c 0
 75 0 32 -1 -10 -3 c 1x79a0
242 283 m 1
 462 283 l 1
 462 655 l 1
 450 655 l 1x3d80
 242 283 l 1
EndSplineSet
Validated: 1
AlternateSubs2: "'aalt' Access All Alternates lookup 0 subtable" ae.sc
AlternateSubs2: "'aalt' Access All Alternates in Latin lookup 0 subtable" ae.sc
Substitution2: "'c2sc' Capitals to Small Capitals in Latin lookup 13 subtable" ae.sc
Position2: "'cpsp' Capital Spacing in Latin lookup 12 subtable" dx=7 dy=0 dh=14 dv=0
EndChar

StartChar: guillemotleft
Encoding: 171 171 120
Width: 500
VWidth: 0
Flags: W
TeX: 428 0
LayerCount: 2
Fore
SplineSet
50 242 m 1
 50 254 l 1
 226 428 l 1
 249 415 l 1
 130 248 l 1
 249 86 l 1
 226 71 l 1
 50 242 l 1
251 242 m 1
 251 254 l 1
 427 428 l 1
 450 415 l 1
 331 248 l 1
 450 86 l 1
 427 71 l 1
 251 242 l 1
EndSplineSet
Validated: 1
EndChar

StartChar: degree
Encoding: 176 176 121
Width: 400
VWidth: 0
Flags: W
TeX: 692 0
HStem: 389 40<138.295 261.055> 649 40<137.975 261.165>
VStem: 50 40<477.295 600.705> 310 40<477.09 599.63>
LayerCount: 2
Fore
SplineSet
50 539 m 0
 50 622 117 689 199 689 c 0
 283 689 350 621 350 537 c 0
 350 457 281 389 200 389 c 0
 117 389 50 456 50 539 c 0
90 539 m 0
 90 478 139 429 200 429 c 0
 260 429 310 479 310 537 c 0
 310 599 260 649 199 649 c 0
 139 649 90 600 90 539 c 0
EndSplineSet
Validated: 1
EndChar

StartChar: lslash
Encoding: 179 322 122
Width: 291
VWidth: 0
GlyphClass: 2
Flags: W
TeX: 726 0
HStem: -3 30<21 67 225 271> 661 28<23 100.266> 706 20G<157 188>
VStem: 104 84<31.9885 373 419 433 479 660.869>
AnchorPoint: "bot_acc" 148 -143 basechar 0
AnchorPoint: "dotbelow" 148 -143 basechar 0
AnchorPoint: "ogon_acc" 148 -143 basechar 0
AnchorPoint: "top_accl" 146 869 basechar 0
AnchorPoint: "dotabove" 146 869 basechar 0
LayerCount: 2
Fore
SplineSet
0 334 m 1
 104 419 l 1
 104 620 l 2
 104 650 97 661 79 661 c 2
 23 661 l 1
 23 689 l 1
 102 701 135 709 179 726 c 1
 188 718 l 1
 188 479 l 1
 276 551 l 1
 296 522 l 1
 188 433 l 1
 188 102 l 2
 188 39 191 32 225 30 c 2
 271 27 l 1
 271 -3 l 1
 229 -1 188 0 146 0 c 0
 104 0 63 -1 21 -3 c 1
 21 27 l 1
 67 30 l 2
 101 32 104 39 104 102 c 2
 104 373 l 1
 21 305 l 1
 0 334 l 1
EndSplineSet
Validated: 1
AlternateSubs2: "'aalt' Access All Alternates lookup 0 subtable" lslash.sc
AlternateSubs2: "'aalt' Access All Alternates in Latin lookup 0 subtable" lslash.sc
Substitution2: "'smcp' Lowercase to Small Capitals in Latin lookup 2 subtable" lslash.sc
EndChar

StartChar: paragraph
Encoding: 182 182 123
Width: 628
VWidth: 0
Flags: W
TeX: 692 -150
HStem: -150 30<185 227 353 421 547 589> 345 37<230.414 280> 655 34<207.251 280 353 421> 664 30<557 589>
VStem: 39 111<460.887 603.543> 280 73<-110.35 346.68 382 655> 421 73<-110.35 649.785>
LayerCount: 2
Fore
SplineSet
39 542 m 0xde
 39 632 112 699 217 695 c 2
 276 693 l 1
 421 689 l 2xee
 476 689 518 690 589 694 c 1
 589 664 l 1
 557 661 l 2
 505 656 494 641 494 574 c 2
 494 -27 l 2
 494 -101 502 -114 547 -117 c 2
 589 -120 l 1
 589 -150 l 1
 387 -147 l 1
 185 -150 l 1
 185 -120 l 1
 227 -117 l 2
 272 -114 280 -101 280 -27 c 2
 280 345 l 1
 207 350 163 365 114 402 c 0
 65 439 39 487 39 542 c 0xde
150 526 m 0
 150 452 196 401 280 382 c 1
 280 655 l 1
 274 656 268 656 265 656 c 0
 199 656 150 601 150 526 c 0
353 -120 m 1
 421 -120 l 1
 421 655 l 1
 353 655 l 1
 353 -120 l 1
EndSplineSet
Validated: 33
AlternateSubs2: "'aalt' Access All Alternates lookup 0 subtable" paragraph.alt
AlternateSubs2: "'aalt' Access All Alternates in Latin lookup 0 subtable" paragraph.alt
Substitution2: "'ss02' Style Set 2 in Latin lookup 16 subtable" paragraph.alt
Substitution2: "'ss01' Style Set 1 in Latin lookup 15 subtable" paragraph.alt
Substitution2: "'salt' Stylistic Alternatives in Latin lookup 14 subtable" paragraph.alt
EndChar

StartChar: paragraph.alt
Encoding: 279 -1 124
Width: 494
VWidth: 0
Flags: W
TeX: 701 -150
HStem: -150 30<185 227 406 448> 345 37<230.414 280> 661 33<368.781 448>
VStem: 39 111<460.887 603.684> 280 73<-110.35 346.68 382 649.785>
LayerCount: 2
Fore
SplineSet
39 542 m 0
 39 632 111 701 217 695 c 2
 320 689 l 2
 375 689 388 689 448 694 c 1
 448 664 l 1
 416 661 l 2
 364 656 353 641 353 574 c 2
 353 -27 l 2
 353 -101 361 -114 406 -117 c 2
 448 -120 l 1
 448 -150 l 1
 316 -147 l 1
 185 -150 l 1
 185 -120 l 1
 227 -117 l 2
 272 -114 280 -101 280 -27 c 2
 280 345 l 1
 207 350 163 365 114 402 c 0
 65 439 39 487 39 542 c 0
150 526 m 0
 150 452 196 401 280 382 c 1
 280 655 l 1
 274 656 268 656 265 656 c 0
 199 656 150 601 150 526 c 0
EndSplineSet
Validated: 33
EndChar

StartChar: uogonek
Encoding: 184 371 125
Width: 603
VWidth: 0
GlyphClass: 3
Flags: W
TeX: 449 -250
HStem: -250 46<446.503 535.522> -12 61<212.319 327.575> -3 21G<416.5 467> -1 31<508.706 581> 400 28<18 91.8721 338 411.872> 449 20G<148.5 183 468.5 503>
VStem: 99 84<79.125 398.177> 365 69<-194.442 -84.0201> 419 84<31.9028 89 109.016 398.177> 555 26<-158.125 -138>
AnchorPoint: "bot_acc" 473 -373 basechar 0
AnchorPoint: "dotbelow" 473 -373 basechar 0
AnchorPoint: "ogon_acc" 473 -373 basechar 0
AnchorPoint: "top_accl" 300 592 basechar 0
AnchorPoint: "dotabove" 300 592 basechar 0
LayerCount: 2
Fore
SplineSet
18 400 m 1xcec0
 18 428 l 1
 71 434 123 448 174 469 c 1
 183 465 l 1
 183 170 l 2
 183 126 190 95 204 79 c 0
 220 60 248 49 283 49 c 0xcec0
 322 49 354 63 382 91 c 0
 405 114 419 142 419 164 c 2
 419 327 l 2
 419 393 415 400 375 400 c 2
 338 400 l 1
 338 428 l 1
 391 434 443 448 494 469 c 1
 503 465 l 1
 503 102 l 2
 503 38 506 32 540 30 c 2x9ec0
 581 27 l 1
 581 -3 l 1xaec0
 548 -1 l 2x9ec0
 514 0 487 -24 467 -51 c 0
 448 -76 434 -104 434 -132 c 0
 434 -182 457 -204 482 -204 c 0
 511 -204 540 -189 547 -162 c 2
 555 -131 l 1
 581 -138 l 1
 581 -193 l 1
 544 -225 l 2
 519 -246 486 -250 453 -250 c 0
 394 -250 365 -201 365 -158 c 0
 365 -98 410 -39 467 0 c 1
 415 -3 l 1xaf40
 418 44 419 60 419 89 c 1
 352 27 l 2
 325 2 285 -12 240 -12 c 0
 183 -12 145 3 123 33 c 0
 105 58 99 89 99 159 c 2
 99 327 l 2
 99 393 95 400 55 400 c 2
 18 400 l 1xcec0
EndSplineSet
Validated: 33
AlternateSubs2: "'aalt' Access All Alternates lookup 0 subtable" uogonek.sc
AlternateSubs2: "'aalt' Access All Alternates in Latin lookup 0 subtable" uogonek.sc
Ligature2: "ccmp_lig subtable" u ogonekcomb
Substitution2: "'smcp' Lowercase to Small Capitals in Latin lookup 2 subtable" uogonek.sc
EndChar

StartChar: aogonek
Encoding: 185 261 126
Width: 500
VWidth: 0
GlyphClass: 3
Flags: W
TeX: 449 -250
HStem: -250 46<336.503 425.522> -12 57<143.351 219.313> -3 21G<320.176 357> -1 30<407.832 471> 416 53<147.953 277.865>
VStem: 32 86<70.4731 187.257> 255 69<-194.442 -84.212> 324 80<99.6803 256 288 370.935> 445 26<-158.125 -138>
AnchorPoint: "bot_acc" 363 -373 basechar 0
AnchorPoint: "dotbelow" 363 -373 basechar 0
AnchorPoint: "ogon_acc" 363 -373 basechar 0
AnchorPoint: "top_accl" 252 592 basechar 0
AnchorPoint: "dotabove" 252 592 basechar 0
LayerCount: 2
Fore
SplineSet
32 111 m 0xcd80
 32 198 89 245 225 270 c 2
 324 288 l 1
 321 379 282 416 188 416 c 0
 142 416 131 409 111 362 c 2
 98 331 l 1
 72 338 l 1
 72 403 l 1
 125 435 l 2
 163 458 203 469 246 469 c 0
 362 469 404 416 404 270 c 2
 404 87 l 2
 404 38 408 30 432 29 c 2x9d80
 471 27 l 1
 471 -3 l 1xad80
 441 -1 l 2
 407 1 378 -23 357 -51 c 0
 338 -76 324 -104 324 -132 c 0
 324 -182 347 -204 372 -204 c 0
 401 -204 430 -189 437 -162 c 2
 445 -131 l 1
 471 -138 l 1
 471 -193 l 1
 434 -225 l 2
 409 -246 376 -250 343 -250 c 0
 284 -250 255 -201 255 -158 c 0
 255 -98 300 -40 357 -1 c 1x9e80
 319 -3 l 1xae80
 324 82 l 1
 200 -4 l 2
 193 -9 176 -12 158 -12 c 0
 79 -12 32 33 32 111 c 0xcd80
118 125 m 0
 118 82 153 45 193 45 c 0xcd80
 232 45 295 83 324 124 c 1
 324 256 l 1
 248 245 193 231 168 216 c 0
 138 197 118 162 118 125 c 0
EndSplineSet
Validated: 33
AlternateSubs2: "'aalt' Access All Alternates lookup 0 subtable" aogonek.sc
AlternateSubs2: "'aalt' Access All Alternates in Latin lookup 0 subtable" aogonek.sc
Ligature2: "ccmp_lig subtable" a ogonekcomb
Substitution2: "'smcp' Lowercase to Small Capitals in Latin lookup 2 subtable" aogonek.sc
EndChar

StartChar: ae
Encoding: 186 230 127
Width: 758
VWidth: 0
Flags: W
TeX: 449 0
HStem: -20 65<138.335 230.835> -20 53<487.447 640.471> 230 34<407.511 647.38> 416 53<158.332 277.453> 436 33<476.044 590.292>
VStem: 30 86<66.7232 182.351> 69 26<337 367.704> 324 79<120.178 230> 649 83<267 374.017>
LayerCount: 2
Fore
SplineSet
30 107 m 0xa580
 30 151 44 184 71 205 c 0
 101 227 184 250 268 259 c 2
 324 265 l 1
 321 323 316 347 297 374 c 0
 279 400 246 416 211 416 c 0
 177 416 132 403 120 389 c 0
 113 381 102 357 95 331 c 1
 69 337 l 1
 69 399 l 1
 167 452 l 2
 189 464 210 469 238 469 c 0xb380
 303 469 345 448 384 398 c 1
 449 452 488 469 545 469 c 0
 615 469 676 436 708 382 c 0
 723 356 732 318 732 278 c 0
 732 266 731 258 730 244 c 1
 661 233 618 230 549 230 c 2
 403 230 l 1
 405 172 411 144 430 111 c 0
 458 61 513 33 579 33 c 0
 623 33 650 43 710 80 c 1
 724 70 l 1
 704 36 l 2
 700 30 680 18 654 7 c 0
 613 -11 573 -20 536 -20 c 0
 480 -20 426 0 388 33 c 0x6b80
 372 48 361 60 344 89 c 1
 221 -7 l 2
 211 -15 190 -20 166 -20 c 0
 83 -20 30 30 30 107 c 0xa580
116 122 m 0xa580
 116 74 147 45 200 45 c 0
 247 45 280 64 324 117 c 1
 324 233 l 1
 243 224 233 222 190 210 c 0
 157 200 143 193 134 181 c 0
 123 165 116 144 116 122 c 0xa580
405 270 m 1
 459 265 485 263 532 264 c 2
 649 267 l 1
 649 319 643 345 626 377 c 0
 604 418 577 436 539 436 c 0x2980
 498 436 458 416 435 385 c 0
 415 357 407 327 405 270 c 1
EndSplineSet
Validated: 33
AlternateSubs2: "'aalt' Access All Alternates lookup 0 subtable" ae.sc
AlternateSubs2: "'aalt' Access All Alternates in Latin lookup 0 subtable" ae.sc
Substitution2: "'smcp' Lowercase to Small Capitals in Latin lookup 2 subtable" ae.sc
EndChar

StartChar: guillemotright
Encoding: 187 187 128
Width: 500
VWidth: 0
Flags: W
TeX: 428 0
LayerCount: 2
Fore
SplineSet
50 86 m 1
 169 248 l 1
 50 415 l 1
 73 428 l 1
 249 254 l 1
 249 242 l 1
 73 71 l 1
 50 86 l 1
251 86 m 1
 370 248 l 1
 251 415 l 1
 274 428 l 1
 450 254 l 1
 450 242 l 1
 274 71 l 1
 251 86 l 1
EndSplineSet
Validated: 1
EndChar

StartChar: Ccedilla
Encoding: 199 199 129
Width: 709
VWidth: 0
GlyphClass: 3
Flags: W
TeX: 692 -250
HStem: -225 36<292.763 408.93> -107 36<370.5 411.041> -20 54<401 561.738> 667 42<301.753 540.235>
VStem: 22 107<235.08 471.557> 417 75<-182.244 -111.259> 614 31<516 613.571>
AnchorPoint: "bot_acc" 388 -348 basechar 0
AnchorPoint: "dotbelow" 388 -348 basechar 0
AnchorPoint: "ogon_acc" 388 -348 basechar 0
AnchorPoint: "top_accu" 346 819 basechar 0
AnchorPoint: "dotabove" 346 819 basechar 0
LayerCount: 2
Fore
SplineSet
22 342 m 0
 22 477 82 583 196 649 c 0
 264 688 345 709 433 709 c 0
 506 709 578 696 664 668 c 1
 650 602 646 566 645 516 c 1
 614 516 l 1
 614 588 l 2
 614 627 513 667 415 667 c 0
 242 667 129 546 129 361 c 0
 129 164 258 34 454 34 c 0
 531 34 599 54 661 94 c 1
 670 84 l 1
 642 34 l 1
 573 -2 498 -20 415 -20 c 2
 401 -20 l 1
 380 -75 l 1
 390 -72 396 -71 406 -71 c 0
 459 -71 492 -98 492 -141 c 0
 492 -193 445 -225 368 -225 c 0
 340 -225 328 -223 284 -209 c 1
 298 -178 l 1
 330 -187 345 -189 364 -189 c 0
 398 -189 417 -174 417 -146 c 0
 417 -123 401 -107 377 -107 c 0
 364 -107 355 -109 336 -114 c 1
 329 -108 l 1
 368 -18 l 1
 150 6 22 140 22 342 c 0
EndSplineSet
Validated: 1
AlternateSubs2: "'aalt' Access All Alternates lookup 0 subtable" ccedilla.sc
AlternateSubs2: "'aalt' Access All Alternates in Latin lookup 0 subtable" ccedilla.sc
Ligature2: "ccmp_lig subtable" C cedillacmb
Substitution2: "'c2sc' Capitals to Small Capitals in Latin lookup 13 subtable" ccedilla.sc
Position2: "'cpsp' Capital Spacing in Latin lookup 12 subtable" dx=7 dy=0 dh=14 dv=0
EndChar

StartChar: Eogonek
Encoding: 202 280 130
Width: 611
VWidth: 0
GlyphClass: 3
Flags: W
TeX: 692 -250
HStem: -250 46<417.503 506.522> -3 42<217.351 436 468.037 509.219> -3 30<34 70> 327 48<216 441.79> 441 20G<451 481> 650 42<217.443 495.478> 662 30<22 70>
VStem: 121 95<43.7049 327 375 645.702> 336 69<-194.442 -84.4039> 505 35<537 632.855> 526 26<-158.125 -138> 532 40<63.8252 164>
AnchorPoint: "bot_acc" 444 -373 basechar 0
AnchorPoint: "dotbelow" 444 -373 basechar 0
AnchorPoint: "ogon_acc" 444 -373 basechar 0
AnchorPoint: "top_accu" 297 819 basechar 0
AnchorPoint: "dotabove" 297 819 basechar 0
LayerCount: 2
Fore
SplineSet
22 662 m 1xbba0
 22 692 l 1xbba0
 81 690 141 689 200 689 c 0
 277 689 355 690 432 692 c 2
 556 689 l 1
 545 645 540 597 540 537 c 1
 505 537 l 1
 505 602 l 2x9dc0
 505 625 502 629 478 636 c 0
 446 645 390 650 333 650 c 0
 264 650 247 649 216 642 c 1
 216 375 l 1
 260 372 326 371 376 371 c 0
 419 371 438 375 446 409 c 0
 451 428 451 461 451 461 c 1
 481 461 l 1
 479 422 478 384 478 345 c 0
 478 308 479 271 481 234 c 1
 451 234 l 1
 451 234 450 271 446 293 c 0
 439 326 420 330 376 330 c 2
 216 327 l 1
 216 47 l 1
 245 41 263 39 315 39 c 0
 405 39 478 44 499 51 c 0
 513 56 526 87 532 130 c 2
 537 164 l 1
 572 164 l 1xdd90
 562 112 556 58 556 0 c 1
 555 0 l 2
 510 -1 465 -15 438 -51 c 0
 419 -76 405 -104 405 -132 c 0
 405 -182 428 -204 453 -204 c 0
 482 -204 511 -189 518 -162 c 2
 526 -131 l 1
 552 -138 l 1
 552 -193 l 1
 515 -225 l 2
 490 -246 457 -250 424 -250 c 0
 365 -250 336 -201 336 -158 c 0
 336 -98 380 -41 436 -2 c 1
 389 -3 l 2xdda0
 312 -1 234 0 157 0 c 0
 116 0 75 -1 34 -3 c 1
 34 27 l 1
 70 30 l 2
 117 34 121 41 121 120 c 2
 121 569 l 2
 121 648 116 656 70 659 c 2
 22 662 l 1xbba0
EndSplineSet
Validated: 1
AlternateSubs2: "'aalt' Access All Alternates lookup 0 subtable" eogonek.sc
AlternateSubs2: "'aalt' Access All Alternates in Latin lookup 0 subtable" eogonek.sc
Ligature2: "ccmp_lig subtable" E ogonekcomb
Substitution2: "'c2sc' Capitals to Small Capitals in Latin lookup 13 subtable" eogonek.sc
Position2: "'cpsp' Capital Spacing in Latin lookup 12 subtable" dx=7 dy=0 dh=14 dv=0
EndChar

StartChar: Eth
Encoding: 208 208 131
Width: 774
VWidth: 0
Flags: W
TeX: 692 0
HStem: -3 44<209.222 466.88> 346 36<14 113 208 392> 652 37<209.225 468.529> 662 30<22 62>
VStem: 113 95<45.2072 346 382 647.269> 644 107<254.803 497.87>
LayerCount: 2
Fore
SplineSet
14 346 m 1xdc
 14 382 l 1
 113 382 l 1
 113 569 l 2
 113 647 108 656 62 659 c 2
 22 662 l 1
 22 692 l 1xdc
 91 690 159 689 228 689 c 0xec
 286 689 344 692 402 692 c 0
 613 692 751 571 751 385 c 0
 751 278 707 170 635 99 c 0
 565 30 469 -3 341 -3 c 0
 293 -3 244 0 196 0 c 0
 150 0 103 -1 57 -3 c 1
 57 20 l 1
 88 36 l 2
 104 44 113 66 113 95 c 2
 113 346 l 1
 14 346 l 1xdc
208 49 m 1
 234 43 265 41 311 41 c 0
 424 41 484 58 544 107 c 0
 610 161 644 247 644 359 c 0
 644 459 621 531 573 579 c 0
 520 632 430 652 319 652 c 0xec
 269 652 234 649 208 644 c 1
 208 382 l 1
 392 382 l 1
 392 346 l 1
 208 346 l 1
 208 49 l 1
EndSplineSet
Validated: 1
AlternateSubs2: "'aalt' Access All Alternates lookup 0 subtable" eth.sc
AlternateSubs2: "'aalt' Access All Alternates in Latin lookup 0 subtable" eth.sc
Substitution2: "'c2sc' Capitals to Small Capitals in Latin lookup 13 subtable" eth.sc
Position2: "'cpsp' Capital Spacing in Latin lookup 12 subtable" dx=7 dy=0 dh=14 dv=0
EndChar

StartChar: Oslash
Encoding: 216 216 132
Width: 833
VWidth: 0
GlyphClass: 2
Flags: W
TeX: 692 0
HStem: -20 42<323.286 524.03> 667 42<295.747 510.779>
VStem: 45 107<221.952 476.872> 680 107<242.988 488.22>
AnchorPoint: "bot_acc" 414 -143 basechar 0
AnchorPoint: "dotbelow" 414 -143 basechar 0
AnchorPoint: "ogon_acc" 414 -143 basechar 0
AnchorPoint: "top_accu" 414 819 basechar 0
AnchorPoint: "dotabove" 414 819 basechar 0
LayerCount: 2
Fore
SplineSet
30 11 m 1
 124 99 l 1
 95 137 85 154 73 186 c 0
 55 232 45 288 45 342 c 0
 45 563 196 709 424 709 c 0
 488 709 553 696 604 673 c 0
 628 662 645 652 679 626 c 1
 765 709 l 1
 797 679 l 1
 709 596 l 1
 764 526 787 461 787 370 c 0
 787 148 618 -20 395 -20 c 0
 336 -20 277 -7 229 16 c 0
 205 27 188 39 154 67 c 1
 63 -18 l 1
 30 11 l 1
152 375 m 0
 152 292 164 233 196 167 c 1
 616 570 l 1
 577 614 554 631 507 648 c 0
 473 661 439 667 403 667 c 0
 243 667 152 561 152 375 c 0
219 131 m 1
 278 54 340 22 431 22 c 0
 589 22 680 138 680 340 c 0
 680 420 670 469 641 531 c 1
 219 131 l 1
EndSplineSet
Validated: 1
AlternateSubs2: "'aalt' Access All Alternates lookup 0 subtable" oslash.sc
AlternateSubs2: "'aalt' Access All Alternates in Latin lookup 0 subtable" oslash.sc
Substitution2: "'c2sc' Capitals to Small Capitals in Latin lookup 13 subtable" oslash.sc
Position2: "'cpsp' Capital Spacing in Latin lookup 12 subtable" dx=7 dy=0 dh=14 dv=0
EndChar

StartChar: Iogonek
Encoding: 222 302 133
Width: 337
VWidth: 0
GlyphClass: 3
Flags: W
TeX: 692 -250
HStem: -250 46<170.503 259.522> -3 30<22 70 267 315> 662 30<22 70 267 315>
VStem: 89 69<-194.442 -83.8633> 121 95<35.1861 653.814> 279 26<-158.125 -138>
AnchorPoint: "bot_acc" 197 -373 basechar 0
AnchorPoint: "dotbelow" 197 -373 basechar 0
AnchorPoint: "ogon_acc" 197 -373 basechar 0
AnchorPoint: "top_accu" 169 819 basechar 0
AnchorPoint: "dotabove" 169 819 basechar 0
LayerCount: 2
Fore
SplineSet
22 -3 m 1xf4
 22 27 l 1
 70 30 l 2
 116 33 121 41 121 120 c 2
 121 569 l 2
 121 648 116 656 70 659 c 2
 22 662 l 1
 22 692 l 1
 71 690 119 689 168 689 c 0
 217 689 266 690 315 692 c 1
 315 662 l 1
 267 659 l 2
 221 656 216 648 216 569 c 2
 216 120 l 2xec
 216 41 221 33 267 30 c 2
 315 27 l 1
 315 -3 l 1
 271 -1 l 2
 231 0 202 -32 180 -66 c 0
 167 -87 158 -110 158 -132 c 0
 158 -182 181 -204 206 -204 c 0
 235 -204 264 -189 271 -162 c 2
 279 -131 l 1
 305 -138 l 1
 305 -193 l 1
 268 -225 l 2
 243 -246 210 -250 177 -250 c 0
 118 -250 89 -201 89 -158 c 0
 89 -97 135 -39 192 0 c 1
 168 0 l 1
 22 -3 l 1xf4
EndSplineSet
Validated: 33
AlternateSubs2: "'aalt' Access All Alternates lookup 0 subtable" iogonek.sc
AlternateSubs2: "'aalt' Access All Alternates in Latin lookup 0 subtable" iogonek.sc
Ligature2: "ccmp_lig subtable" I ogonekcomb
Substitution2: "'c2sc' Capitals to Small Capitals in Latin lookup 13 subtable" iogonek.sc
Position2: "'cpsp' Capital Spacing in Latin lookup 12 subtable" dx=7 dy=0 dh=14 dv=0
EndChar

StartChar: germandbls
Encoding: 223 223 134
Width: 556
VWidth: 0
Flags: W
TeX: 731 0
HStem: -9 43<315.416 415.922> -3 30<23 59 192.695 252> 414 47<341.645 432.791> 686 45<253.889 384.021>
VStem: 96 84<32.9973 385 434 577.724> 268 60<304.5 385.675> 275 27<83.6667 112> 440 56<462.885 629.032> 454 65<79.8291 170.17>
LayerCount: 2
Fore
SplineSet
23 -3 m 1x7c80
 23 27 l 1
 59 30 l 2
 93 33 96 39 96 102 c 2
 96 385 l 1
 27 385 l 1
 27 399 l 1
 96 434 l 1
 96 500 l 2
 96 539 108 571 142 618 c 0
 192 686 272 731 345 731 c 0
 434 731 496 672 496 587 c 0x79
 496 530 483 471 452 391 c 1
 422 408 405 414 381 414 c 0
 349 414 328 397 328 371 c 0
 328 343 351 321 414 289 c 0
 488 252 519 215 519 163 c 0
 519 122 503 78 482 62 c 2
 424 18 l 2
 401 0 373 -9 345 -9 c 0xbc80
 313 -9 284 -3 252 11 c 1
 252 -3 l 1
 214 -1 175 0 137 0 c 0
 99 0 61 -1 23 -3 c 1x7c80
180 107 m 2
 180 48 192 27 226 27 c 2
 254 27 l 1
 275 112 l 1
 302 112 l 1
 302 66 l 1x7b
 329 42 346 34 373 34 c 0
 419 34 454 66 454 110 c 0
 454 157 429 186 361 222 c 0
 286 261 268 282 268 327 c 0xbc80
 268 350 274 369 287 383 c 2
 326 426 l 2
 346 448 383 461 429 461 c 1
 435 485 440 518 440 543 c 0
 440 631 390 686 309 686 c 0
 216 686 180 625 180 466 c 2
 180 107 l 2
EndSplineSet
Validated: 1
AlternateSubs2: "'aalt' Access All Alternates lookup 0 subtable" germandbls.sc
AlternateSubs2: "'aalt' Access All Alternates in Latin lookup 0 subtable" germandbls.sc
Substitution2: "'smcp' Lowercase to Small Capitals in Latin lookup 2 subtable" germandbls.sc
EndChar

StartChar: ccedilla
Encoding: 231 231 135
Width: 444
VWidth: 0
GlyphClass: 3
Flags: W
TeX: 449 -250
HStem: -225 36<160.763 276.93> -107 36<238.5 279.041> -20 52<269 372.332> 417 52<200.377 337.009>
VStem: 26 88<141.57 316.568> 285 75<-182.244 -111.259> 371 28<311 372>
AnchorPoint: "bot_acc" 256 -348 basechar 0
AnchorPoint: "dotbelow" 256 -348 basechar 0
AnchorPoint: "ogon_acc" 256 -348 basechar 0
AnchorPoint: "top_accl" 220 592 basechar 0
AnchorPoint: "dotabove" 220 592 basechar 0
LayerCount: 2
Fore
SplineSet
26 210 m 0
 26 300 63 369 135 414 c 0
 195 451 249 469 297 469 c 0
 338 469 373 458 413 434 c 1
 404 398 399 357 399 311 c 1
 371 311 l 1
 364 372 l 1
 346 398 299 417 254 417 c 0
 164 417 114 357 114 250 c 0
 114 118 187 32 298 32 c 0
 334 32 365 41 403 61 c 1
 413 46 l 1
 392 14 l 2
 382 -1 312 -19 269 -20 c 1
 248 -75 l 1
 258 -72 264 -71 274 -71 c 0
 327 -71 360 -98 360 -141 c 0
 360 -193 313 -225 236 -225 c 0
 208 -225 196 -223 152 -209 c 1
 166 -178 l 1
 198 -187 213 -189 232 -189 c 0
 266 -189 285 -174 285 -146 c 0
 285 -123 269 -107 245 -107 c 0
 232 -107 223 -109 204 -114 c 1
 197 -108 l 1
 235 -19 l 1
 110 -9 26 82 26 210 c 0
EndSplineSet
Validated: 1
AlternateSubs2: "'aalt' Access All Alternates lookup 0 subtable" ccedilla.sc
AlternateSubs2: "'aalt' Access All Alternates in Latin lookup 0 subtable" ccedilla.sc
Ligature2: "ccmp_lig subtable" c cedillacmb
Substitution2: "'smcp' Lowercase to Small Capitals in Latin lookup 2 subtable" ccedilla.sc
EndChar

StartChar: eogonek
Encoding: 234 281 136
Width: 479
VWidth: 0
GlyphClass: 3
Flags: W
TeX: 449 -250
HStem: -250 46<293.503 382.522> -20 53<204.815 330.04> 230 34<123.511 358.125> 436 33<189.449 303.344>
VStem: 26 93<123.209 230 268.307 337.016> 212 69<-194.442 -83.8297> 359 89<267 374.026> 402 26<-158.125 -138>
AnchorPoint: "bot_acc" 320 -373 basechar 0
AnchorPoint: "dotbelow" 320 -373 basechar 0
AnchorPoint: "ogon_acc" 320 -373 basechar 0
AnchorPoint: "top_accl" 237 592 basechar 0
AnchorPoint: "dotabove" 237 592 basechar 0
LayerCount: 2
Fore
SplineSet
26 219 m 0xfd
 26 323 59 385 141 432 c 0
 182 456 225 469 262 469 c 0
 374 469 448 394 448 279 c 0xfe
 448 267 447 258 446 244 c 1
 377 233 334 230 265 230 c 2
 119 230 l 1
 121 172 128 144 147 111 c 0
 175 62 229 33 294 33 c 0
 337 33 360 42 424 80 c 1
 437 70 l 1
 417 36 l 2
 415 33 409 28 400 23 c 0
 367 4 337 -20 314 -51 c 0
 295 -76 281 -104 281 -132 c 0
 281 -182 304 -204 329 -204 c 0
 358 -204 387 -189 394 -162 c 2
 402 -131 l 1
 428 -138 l 1
 428 -193 l 1
 391 -225 l 2
 366 -246 333 -250 300 -250 c 0
 241 -250 212 -201 212 -158 c 0
 212 -105 246 -54 293 -16 c 1
 278 -19 264 -20 250 -20 c 0
 175 -20 107 11 68 64 c 0
 40 102 26 156 26 219 c 0xfd
121 270 m 1
 175 265 201 264 247 264 c 2
 359 267 l 1
 359 334 349 363 327 396 c 0
 309 423 283 436 250 436 c 0
 202 436 159 409 138 365 c 0
 125 339 121 317 121 270 c 1
EndSplineSet
Validated: 1
AlternateSubs2: "'aalt' Access All Alternates lookup 0 subtable" eogonek.sc
AlternateSubs2: "'aalt' Access All Alternates in Latin lookup 0 subtable" eogonek.sc
Ligature2: "ccmp_lig subtable" e ogonekcomb
Substitution2: "'smcp' Lowercase to Small Capitals in Latin lookup 2 subtable" eogonek.sc
EndChar

StartChar: eth
Encoding: 240 240 137
Width: 546
VWidth: 0
Flags: W
TeX: 726 0
HStem: -20 33<216.953 331.883> 436 33<196.906 328.364> 688 20G<407.143 460>
VStem: 32 93<120.062 325.359> 416 88<140.278 353.744>
LayerCount: 2
Fore
SplineSet
32 217 m 0
 32 365 131 469 271 469 c 0
 309 469 345 461 378 444 c 1
 380 446 l 1
 352 508 321 552 282 588 c 1
 142 520 l 1
 124 550 l 1
 260 616 l 1
 229 645 193 668 138 696 c 1
 172 728 l 1
 245 684 272 666 305 638 c 1
 448 708 l 1
 466 678 l 1
 335 614 l 1
 389 560 411 532 438 489 c 0
 482 416 504 342 504 262 c 0
 504 94 402 -20 254 -20 c 0
 121 -20 32 76 32 217 c 0
125 252 m 0
 125 112 186 13 272 13 c 0
 304 13 331 24 352 45 c 0
 392 86 416 158 416 240 c 0
 416 302 403 349 377 381 c 0
 348 416 306 436 261 436 c 0
 174 436 125 370 125 252 c 0
EndSplineSet
Validated: 1
AlternateSubs2: "'aalt' Access All Alternates lookup 0 subtable" eth.sc
AlternateSubs2: "'aalt' Access All Alternates in Latin lookup 0 subtable" eth.sc
Substitution2: "'smcp' Lowercase to Small Capitals in Latin lookup 2 subtable" eth.sc
EndChar

StartChar: oslash
Encoding: 248 248 138
Width: 556
VWidth: 0
GlyphClass: 2
Flags: W
TeX: 449 0
HStem: -20 33<227.61 350.517> 436 33<202.87 328.767>
VStem: 37 93<131.153 323.704> 426 93<129.502 325.761>
AnchorPoint: "bot_acc" 273 -166 basechar 0
AnchorPoint: "dotbelow" 273 -166 basechar 0
AnchorPoint: "ogon_acc" 273 -166 basechar 0
AnchorPoint: "top_accl" 273 592 basechar 0
AnchorPoint: "dotabove" 273 592 basechar 0
LayerCount: 2
Fore
SplineSet
16 0 m 1
 83 64 l 1
 50 115 37 157 37 216 c 0
 37 364 141 469 288 469 c 0
 349 469 391 454 441 414 c 1
 503 474 l 1
 530 449 l 1
 467 388 l 1
 505 337 519 296 519 238 c 0
 519 89 409 -20 258 -20 c 0
 195 -20 154 -5 106 37 c 1
 44 -23 l 1
 16 0 l 1
130 256 m 0
 130 211 136 175 150 130 c 1
 388 362 l 1
 355 412 316 436 265 436 c 0
 179 436 130 370 130 256 c 0
166 95 m 1
 200 38 239 13 293 13 c 0
 373 13 426 86 426 197 c 0
 426 240 419 279 404 327 c 1
 166 95 l 1
EndSplineSet
Validated: 1
AlternateSubs2: "'aalt' Access All Alternates lookup 0 subtable" oslash.sc
AlternateSubs2: "'aalt' Access All Alternates in Latin lookup 0 subtable" oslash.sc
Substitution2: "'smcp' Lowercase to Small Capitals in Latin lookup 2 subtable" oslash.sc
EndChar

StartChar: dotlessiogonek
Encoding: 280 -1 139
Width: 287
VWidth: 0
GlyphClass: 3
Flags: W
TeX: 469 -219
HStem: -250 46<126.503 215.522> -3 30<21 67 225 271> 400 28<23 96.8721> 449 20G<153.5 188>
VStem: 45 69<-194.442 -83.8086> 104 84<31.9885 398.177> 235 26<-158.125 -138>
AnchorPoint: "bot_acc" 153 -373 basechar 0
AnchorPoint: "dotbelow" 153 -373 basechar 0
AnchorPoint: "ogon_acc" 153 -373 basechar 0
AnchorPoint: "top_accl" 146 592 basechar 0
AnchorPoint: "dotabove" 146 592 basechar 0
LayerCount: 2
Fore
SplineSet
21 -3 m 1xfa
 21 27 l 1
 67 30 l 2
 101 32 104 39 104 102 c 2
 104 327 l 2
 104 393 100 400 60 400 c 2
 23 400 l 1
 23 428 l 1
 76 434 128 448 179 469 c 1
 188 465 l 1
 188 102 l 2xf6
 188 39 191 32 225 30 c 2
 271 27 l 1
 271 -3 l 1
 227 -1 l 2
 194 0 167 -24 147 -51 c 0
 128 -76 114 -104 114 -132 c 0
 114 -182 137 -204 162 -204 c 0
 191 -204 220 -189 227 -162 c 2
 235 -131 l 1
 261 -138 l 1
 261 -193 l 1
 224 -225 l 2
 199 -246 166 -250 133 -250 c 0
 74 -250 45 -201 45 -158 c 0
 45 -97 91 -39 148 0 c 1
 146 0 l 1
 21 -3 l 1xfa
EndSplineSet
Validated: 33
Ligature2: "ccmp_lig subtable" dotlessi ogonekcomb
EndChar

StartChar: space_uni0326
Encoding: 281 -1 140
Width: 333
VWidth: 0
Flags: W
TeX: 0 -250
HStem: -271 194
VStem: 122 89<-137.168 -95.6674>
LayerCount: 2
Fore
SplineSet
69 -262 m 1
 107 -200 116 -166 122 -102 c 1
 164 -90 171 -87 201 -77 c 1
 211 -88 l 1
 184 -158 163 -191 116 -252 c 1
 81 -271 l 1
 69 -262 l 1
EndSplineSet
Validated: 1
EndChar

StartChar: tcedilla
Encoding: 282 355 141
Width: 326
VWidth: 0
GlyphClass: 3
Flags: W
TeX: 621 -250
HStem: -225 36<112.763 228.93> -107 36<190.5 231.041> 382 48<182 310>
VStem: 98 84<59.4019 382 434 581.602> 237 75<-182.244 -111.259>
AnchorPoint: "bot_acc" 208 -348 basechar 0
AnchorPoint: "dotbelow" 208 -348 basechar 0
AnchorPoint: "ogon_acc" 208 -348 basechar 0
AnchorPoint: "top_accl" 145 764 basechar 0
AnchorPoint: "dotabove" 145 764 basechar 0
LayerCount: 2
Fore
SplineSet
22 378 m 1
 22 399 l 1
 100 434 l 1
 100 504 l 2
 100 534 99 553 96 583 c 1
 127 593 157 606 181 621 c 1
 193 610 l 1
 185 546 182 510 182 468 c 2
 182 430 l 1
 319 436 l 1
 310 382 l 1
 182 382 l 1
 182 120 l 2
 182 71 198 51 237 51 c 0
 257 51 270 55 296 70 c 1
 309 53 l 1
 261 0 l 2
 256 -5 241 -9 224 -11 c 1
 200 -75 l 1
 210 -72 216 -71 226 -71 c 0
 279 -71 312 -98 312 -141 c 0
 312 -193 265 -225 188 -225 c 0
 160 -225 148 -223 104 -209 c 1
 118 -178 l 1
 150 -187 165 -189 184 -189 c 0
 218 -189 237 -174 237 -146 c 0
 237 -123 221 -107 197 -107 c 0
 184 -107 175 -109 156 -114 c 1
 149 -108 l 1
 190 -11 l 1
 126 -7 98 26 98 94 c 2
 98 382 l 1
 22 378 l 1
EndSplineSet
Validated: 1
AlternateSubs2: "'aalt' Access All Alternates lookup 0 subtable" tcedilla.sc
AlternateSubs2: "'aalt' Access All Alternates in Latin lookup 0 subtable" tcedilla.sc uni021B
Ligature2: "ccmp_lig subtable" t cedillacmb
Substitution2: "'smcp' Lowercase to Small Capitals in Latin lookup 2 subtable" tcedilla.sc
Substitution2: "locl_ROM subtable" uni021B
EndChar

StartChar: Tcedilla
Encoding: 283 354 142
Width: 613
VWidth: 0
GlyphClass: 3
Flags: W
TeX: 692 -250
HStem: -225 36<214.763 330.93> -107 36<292.5 333.041> -3 30<160 208 405 453> 643 46<61.4374 256.692 356.207 551.563>
VStem: 25 31<531 635.479> 259 95<35.1861 641.414> 339 75<-182.244 -111.259> 557 31<531 635.479>
AnchorPoint: "bot_acc" 310 -348 basechar 0
AnchorPoint: "dotbelow" 310 -348 basechar 0
AnchorPoint: "ogon_acc" 310 -348 basechar 0
AnchorPoint: "top_accu" 307 819 basechar 0
AnchorPoint: "dotabove" 307 819 basechar 0
LayerCount: 2
Fore
SplineSet
18 692 m 1xfd
 86 691 l 1
 221 689 l 1
 379 689 l 1
 462 690 l 1
 595 692 l 1
 590 635 588 596 588 531 c 1
 557 531 l 1
 553 610 l 2
 552 634 541 643 513 643 c 2
 358 643 l 1
 355 610 354 588 354 543 c 2
 354 120 l 2xfd
 354 41 359 33 405 30 c 2
 453 27 l 1
 453 -3 l 1
 332 0 l 1
 302 -75 l 1
 312 -72 318 -71 328 -71 c 0
 381 -71 414 -98 414 -141 c 0
 414 -193 367 -225 290 -225 c 0
 262 -225 250 -223 206 -209 c 1
 220 -178 l 1
 252 -187 267 -189 286 -189 c 0
 320 -189 339 -174 339 -146 c 0xfb
 339 -123 323 -107 299 -107 c 0
 286 -107 277 -109 258 -114 c 1
 251 -108 l 1
 298 0 l 1
 160 -3 l 1
 160 27 l 1
 208 30 l 2
 254 33 259 41 259 120 c 2
 259 543 l 2
 259 586 258 609 255 643 c 1
 100 643 l 2
 72 643 61 634 60 610 c 2
 56 531 l 1
 25 531 l 1
 25 596 23 635 18 692 c 1xfd
EndSplineSet
Validated: 1
AlternateSubs2: "'aalt' Access All Alternates lookup 0 subtable" tcedilla.sc
AlternateSubs2: "'aalt' Access All Alternates in Latin lookup 0 subtable" tcedilla.sc uni021A
Ligature2: "ccmp_lig subtable" T cedillacmb
Substitution2: "'c2sc' Capitals to Small Capitals in Latin lookup 13 subtable" tcedilla.sc
Position2: "'cpsp' Capital Spacing in Latin lookup 12 subtable" dx=7 dy=0 dh=14 dv=0
Substitution2: "locl_ROM subtable" uni021A
EndChar

StartChar: scedilla
Encoding: 284 351 143
Width: 424
VWidth: 0
GlyphClass: 3
Flags: W
TeX: 449 -250
HStem: -225 36<114.763 230.93> -107 36<192.5 233.041> -20 37<115.113 233.095> 436 33<138.001 274.902>
VStem: 37 70<308.501 398.706> 41 30<60.655 143> 239 75<-182.244 -111.259> 317 74<72.5374 159.758> 321 28<331 392.715>
AnchorPoint: "bot_acc" 210 -348 basechar 0
AnchorPoint: "dotbelow" 210 -348 basechar 0
AnchorPoint: "ogon_acc" 210 -348 basechar 0
AnchorPoint: "top_accl" 211 592 basechar 0
AnchorPoint: "dotabove" 211 592 basechar 0
LayerCount: 2
Fore
SplineSet
30 4 m 1xfb
 39 44 41 74 41 143 c 1
 71 143 l 1
 71 102 l 2
 71 52 123 17 196 17 c 0
 267 17 317 55 317 109 c 0xf7
 317 148 298 168 253 178 c 0
 183 194 130 210 104 222 c 0
 58 244 37 276 37 324 c 0
 37 414 108 469 224 469 c 0
 266 469 300 462 354 444 c 1
 351 413 350 389 349 331 c 1
 321 331 l 1
 321 354 l 2xfa80
 321 401 271 436 203 436 c 0
 142 436 107 408 107 358 c 0
 107 312 134 292 216 276 c 0
 306 259 338 247 364 221 c 0
 383 202 391 179 391 148 c 0
 391 64 325 2 225 -15 c 1
 202 -75 l 1
 212 -72 218 -71 228 -71 c 0
 281 -71 314 -98 314 -141 c 0
 314 -193 267 -225 190 -225 c 0
 162 -225 150 -223 106 -209 c 1
 120 -178 l 1
 152 -187 167 -189 186 -189 c 0
 220 -189 239 -174 239 -146 c 0
 239 -123 223 -107 199 -107 c 0
 186 -107 177 -109 158 -114 c 1
 151 -108 l 1
 189 -19 l 1
 182 -20 174 -20 167 -20 c 0
 121 -20 83 -13 30 4 c 1xfb
EndSplineSet
Validated: 1
AlternateSubs2: "'aalt' Access All Alternates lookup 0 subtable" scedilla.sc
AlternateSubs2: "'aalt' Access All Alternates in Latin lookup 0 subtable" scedilla.sc uni0219
Ligature2: "ccmp_lig subtable" s cedillacmb
Substitution2: "'smcp' Lowercase to Small Capitals in Latin lookup 2 subtable" scedilla.sc
Substitution2: "locl_ROM subtable" uni0219
EndChar

StartChar: Scedilla
Encoding: 285 350 144
Width: 525
VWidth: 0
GlyphClass: 3
Flags: W
TeX: 692 -250
HStem: -225 36<164.763 280.93> -107 36<242.5 283.041> -20 44<136.672 285.04> 667 42<178.32 357.464>
VStem: 24 84<451.544 578.567> 37 32<112.375 171> 289 75<-182.244 -111.259> 415 32<526 583> 419 84<132.319 249.745>
AnchorPoint: "bot_acc" 260 -348 basechar 0
AnchorPoint: "dotbelow" 260 -348 basechar 0
AnchorPoint: "ogon_acc" 260 -348 basechar 0
AnchorPoint: "top_accu" 264 819 basechar 0
AnchorPoint: "dotabove" 264 819 basechar 0
LayerCount: 2
Fore
SplineSet
24 484 m 0xfa80
 24 615 132 709 281 709 c 0
 337 709 381 699 461 667 c 1
 451 613 447 578 447 526 c 1
 415 526 l 1
 409 583 l 2
 406 612 395 627 362 644 c 0
 335 659 299 667 259 667 c 0
 171 667 108 607 108 523 c 0xfb
 108 446 151 413 273 397 c 0
 387 382 429 368 464 335 c 0
 491 308 503 277 503 230 c 0
 503 106 411 12 276 -13 c 1
 252 -75 l 1
 262 -72 268 -71 278 -71 c 0
 331 -71 364 -98 364 -141 c 0
 364 -193 317 -225 240 -225 c 0
 212 -225 200 -223 156 -209 c 1
 170 -178 l 1
 202 -187 217 -189 236 -189 c 0
 270 -189 289 -174 289 -146 c 0
 289 -123 273 -107 249 -107 c 0
 236 -107 227 -109 208 -114 c 1
 201 -108 l 1
 239 -18 l 1
 227 -20 215 -20 203 -20 c 0
 144 -20 87 -8 30 18 c 1
 36 62 37 94 37 171 c 1
 69 171 l 1xf680
 77 104 l 2
 82 62 160 24 239 24 c 0
 344 24 419 89 419 179 c 0
 419 217 406 247 380 268 c 0
 353 291 319 302 243 312 c 0
 144 326 98 342 65 374 c 0
 37 400 24 435 24 484 c 0xfa80
EndSplineSet
Validated: 1
AlternateSubs2: "'aalt' Access All Alternates lookup 0 subtable" scedilla.sc
AlternateSubs2: "'aalt' Access All Alternates in Latin lookup 0 subtable" scedilla.sc uni0218
Ligature2: "ccmp_lig subtable" S cedillacmb
Substitution2: "'c2sc' Capitals to Small Capitals in Latin lookup 13 subtable" scedilla.sc
Position2: "'cpsp' Capital Spacing in Latin lookup 12 subtable" dx=7 dy=0 dh=14 dv=0
Substitution2: "locl_ROM subtable" uni0218
EndChar

StartChar: thorn
Encoding: 286 254 145
Width: 601
VWidth: 0
Flags: W
TeX: 726 -281
HStem: -281 30<-2 44 202 248> -12 51<210.65 363.402> 404 65<252.43 383.456> 661 28<0 77.266> 706 20G<134 165>
VStem: 81 84<-246.011 13 78.5187 351.416 369 660.869> 457 87<165.26 328.141>
LayerCount: 2
Fore
SplineSet
-2 -251 m 1
 44 -248 l 2
 78 -246 81 -239 81 -176 c 2
 81 620 l 2
 81 650 74 661 56 661 c 2
 0 661 l 1
 0 689 l 1
 79 701 112 709 156 726 c 1
 165 718 l 1
 165 369 l 1
 220 425 l 2
 246 451 295 469 342 469 c 0
 454 469 544 379 544 267 c 0
 544 197 508 113 465 82 c 2
 365 10 l 2
 344 -5 318 -12 283 -12 c 0
 241 -12 210 -5 165 13 c 1
 165 -176 l 2
 165 -239 168 -246 202 -248 c 2
 248 -251 l 1
 248 -281 l 1
 206 -279 165 -278 123 -278 c 0
 81 -278 40 -279 -2 -281 c 1
 -2 -251 l 1
165 98 m 1
 205 56 243 39 300 39 c 0
 397 39 457 113 457 230 c 0
 457 338 398 404 303 404 c 0
 253 404 212 385 183 348 c 0
 170 331 165 320 165 306 c 2
 165 98 l 1
EndSplineSet
Validated: 1
AlternateSubs2: "'aalt' Access All Alternates lookup 0 subtable" thorn.sc
AlternateSubs2: "'aalt' Access All Alternates in Latin lookup 0 subtable" thorn.sc
Substitution2: "'smcp' Lowercase to Small Capitals in Latin lookup 2 subtable" thorn.sc
EndChar

StartChar: Thorn
Encoding: 287 222 146
Width: 604
VWidth: 0
Flags: W
TeX: 692 0
HStem: -3 30<32 80 277 325> 176 34<294.975 404.517> 500 40<227.216 404.66> 662 30<32 80 277 325>
VStem: 131 95<35.1861 495.351 540.227 653.814> 474 100<295.737 440.731>
LayerCount: 2
Fore
SplineSet
32 -3 m 1
 32 27 l 1
 80 30 l 2
 126 33 131 41 131 120 c 2
 131 569 l 2
 131 648 126 656 80 659 c 2
 32 662 l 1
 32 692 l 1
 81 690 129 689 178 689 c 0
 227 689 276 690 325 692 c 1
 325 662 l 1
 277 659 l 2
 231 656 226 648 226 569 c 2
 226 542 l 1
 243 540 250 540 272 540 c 0
 368 541 350 541 371 541 c 0
 495 541 574 481 574 387 c 0
 574 270 476 176 354 176 c 0
 333 176 311 178 296 182 c 1
 285 219 l 1
 307 213 329 210 347 210 c 0
 418 210 474 275 474 357 c 0
 474 453 418 500 304 500 c 0
 274 500 252 497 226 491 c 1
 226 120 l 2
 226 41 231 33 277 30 c 2
 325 27 l 1
 325 -3 l 1
 276 -1 227 0 178 0 c 0
 129 0 81 -1 32 -3 c 1
EndSplineSet
Validated: 1
AlternateSubs2: "'aalt' Access All Alternates lookup 0 subtable" thorn.sc
AlternateSubs2: "'aalt' Access All Alternates in Latin lookup 0 subtable" thorn.sc
Substitution2: "'c2sc' Capitals to Small Capitals in Latin lookup 13 subtable" thorn.sc
Position2: "'cpsp' Capital Spacing in Latin lookup 12 subtable" dx=7 dy=0 dh=14 dv=0
EndChar

StartChar: three.superior
Encoding: 288 179 147
Width: 300
VWidth: 0
Flags: W
TeX: 689 0
HStem: 261 31<73.5628 178.843> 470 27<93.7449 163.501> 640 46<71.5503 179.553>
VStem: 5 22<350.265 371.545> 198 56<536.763 622.302> 219 62<343.172 449.319>
LayerCount: 2
Fore
SplineSet
5 369 m 1xf4
 27 377 l 1
 38 347 43 338 52 326 c 0
 70 304 97 292 130 292 c 0
 184 292 219 330 219 388 c 0xf4
 219 440 191 470 143 470 c 0
 127 470 114 467 92 457 c 1
 85 463 l 1
 93 499 l 1
 109 498 118 497 124 497 c 0
 164 497 198 533 198 575 c 0
 198 610 168 640 131 640 c 0
 101 640 65 621 59 602 c 2
 47 567 l 1
 22 567 l 1
 40 645 l 1
 72 675 98 686 140 686 c 0
 208 686 254 649 254 596 c 0xf8
 254 561 236 533 193 499 c 1
 253 487 281 458 281 408 c 0
 281 334 197 261 111 261 c 0
 89 261 65 266 34 275 c 2
 27 277 l 1
 24 308 18 330 5 369 c 1xf4
EndSplineSet
Validated: 1
EndChar

StartChar: two.superior
Encoding: 289 178 148
Width: 300
VWidth: 0
Flags: W
TeX: 689 0
HStem: 273 52<81 282> 634 52<64.0622 179.459>
VStem: 19 24<558 581.333> 201 61<501.074 612.397>
LayerCount: 2
Fore
SplineSet
6 271 m 1
 6 291 l 1
 109 399 l 2
 176 469 201 512 201 556 c 0
 201 604 170 634 120 634 c 0
 81 634 62 620 52 588 c 2
 43 558 l 1
 19 558 l 1
 30 643 l 1
 61 674 91 686 136 686 c 0
 214 686 262 642 262 573 c 0
 262 528 244 495 185 433 c 2
 81 325 l 1
 284 331 l 1
 283 324 l 2
 281 313 282 309 282 301 c 0
 282 292 281 289 283 278 c 2
 284 271 l 1
 143 273 l 1
 6 271 l 1
EndSplineSet
Validated: 1
EndChar

StartChar: one.superior
Encoding: 290 185 149
Width: 300
VWidth: 0
Flags: W
TeX: 689 0
HStem: 271 24<220 254> 600 31<37 47> 669 20G<151 184>
VStem: 127 57<298.58 634.813>
LayerCount: 2
Fore
SplineSet
32 631 m 1
 92 652 130 668 172 689 c 1
 184 685 l 1
 184 333 l 2
 184 304 189 299 220 297 c 2
 254 295 l 1
 254 271 l 1
 222 272 194 273 156 273 c 0
 116 273 54 271 54 271 c 1
 54 295 l 1
 91 297 l 2
 122 299 127 304 127 333 c 2
 127 619 l 2
 127 628 127 631 125 635 c 1
 47 600 l 1
 37 600 l 1
 32 631 l 1
EndSplineSet
Validated: 1
EndChar

StartChar: threequarters
Encoding: 291 190 150
Width: 750
VWidth: 0
GlyphClass: 3
Flags: W
TeX: 689 0
HStem: 107 46<474 603 665 733.56> 266 32<92.1222 208.725> 458 47<113 161.067> 471 33<113.702 192.357> 643 46<91.3935 206.098>
VStem: 225 60<544.988 624.242> 247 66<342.343 450.545> 603 60<27.748 107 153 345>
LayerCount: 2
Fore
SplineSet
15 376 m 1xdb
 46 384 l 1
 67 322 97 298 152 298 c 0
 209 298 247 335 247 391 c 0
 247 443 217 471 162 471 c 0xdb
 142 471 128 467 113 458 c 1
 103 462 l 1
 113 505 l 1xeb
 121 505 129 505 131 504 c 2
 145 504 l 2
 188 504 225 540 225 580 c 0
 225 615 192 643 151 643 c 0
 108 643 76 618 66 578 c 1
 41 578 l 1
 60 649 l 1
 91 678 120 689 164 689 c 0
 237 689 285 654 285 600 c 0xdd
 285 565 265 538 213 501 c 1
 283 490 313 463 313 410 c 0
 313 332 232 266 137 266 c 0
 108 266 84 270 41 282 c 1
 39 300 36 310 24 347 c 2
 15 376 l 1xdb
165 0 m 1
 616 689 l 1
 668 689 l 1
 217 0 l 1
 165 0 l 1
425 122 m 1
 434 140 435 147 452 172 c 2
 610 400 l 1
 659 416 l 1
 668 413 l 1
 664 341 663 299 663 230 c 2
 663 153 l 1
 680 153 l 1
 682 153 l 2
 691 152 704 152 735 155 c 1
 735 104 l 1
 717 106 704 107 665 107 c 1
 665 71 l 2
 665 38 679 22 709 22 c 2
 730 22 l 1
 730 -3 l 1
 730 -3 669 0 630 0 c 0
 588 0 523 -3 523 -3 c 1
 523 22 l 1
 544 22 l 2
 588 22 603 34 603 71 c 2
 603 107 l 1
 430 107 l 1
 425 122 l 1
474 153 m 1
 603 153 l 1
 603 345 l 1
 474 153 l 1
EndSplineSet
Validated: 33
Ligature2: "'frac' Diagonal Fractions in Latin lookup 20 subtable" three fraction four
Ligature2: "'frac' Diagonal Fractions in Latin lookup 20 subtable" three slash four
EndChar

StartChar: onehalf
Encoding: 292 189 151
Width: 750
VWidth: 0
GlyphClass: 3
Flags: W
TeX: 689 0
HStem: 0 53<519 731.844> 273 26<35 104.775 186.678 253> 364 49<500.522 619.318> 669 20G<559.909 625> 672 20G<120.483 186>
VStem: 114 64<302.078 635.227> 642 68<228.585 341.301>
LayerCount: 2
Fore
SplineSet
15 634 m 1xf6
 176 692 l 1xee
 186 689 l 1
 180 599 178 550 178 485 c 2
 178 379 l 2
 178 311 184 299 220 299 c 2
 253 299 l 1
 253 273 l 1
 216 274 178 276 141 276 c 0
 106 276 70 274 35 273 c 1
 35 299 l 1
 71 299 l 2
 107 299 114 312 114 379 c 2
 114 617 l 2
 114 631 113 635 109 636 c 2
 106 636 l 1
 26 602 l 1
 19 602 l 1
 15 634 l 1xf6
122 0 m 1
 573 689 l 1
 625 689 l 1xf6
 174 0 l 1
 122 0 l 1
434 -3 m 1
 434 17 l 1
 542 121 l 2
 616 192 642 234 642 281 c 0
 642 334 611 364 557 364 c 0
 520 364 498 349 486 317 c 2
 473 282 l 1
 449 282 l 1
 461 371 l 1
 493 401 524 413 572 413 c 0
 655 413 710 368 710 301 c 0
 710 255 686 212 634 162 c 2
 519 53 l 1
 641 53 l 2
 678 53 701 54 735 58 c 1
 733 42 733 34 733 25 c 0
 733 15 733 9 735 -3 c 1
 735 -3 639 0 578 0 c 0
 522 0 434 -3 434 -3 c 1
EndSplineSet
Validated: 1
Ligature2: "'frac' Diagonal Fractions in Latin lookup 20 subtable" one fraction two
Ligature2: "'frac' Diagonal Fractions in Latin lookup 20 subtable" one slash two
EndChar

StartChar: onequarter
Encoding: 293 188 152
Width: 750
VWidth: 0
GlyphClass: 3
Flags: W
TeX: 689 0
HStem: 107 46<466 595 657 725.56> 273 26<50 119.775 201.678 268> 669 20G<593.909 659> 672 20G<135.483 201>
VStem: 129 64<302.078 635.227> 595 60<27.748 107 153 345>
LayerCount: 2
Fore
SplineSet
30 634 m 1xec
 191 692 l 1xdc
 201 689 l 1
 195 599 193 550 193 485 c 2
 193 379 l 2
 193 311 199 299 235 299 c 2
 268 299 l 1
 268 273 l 1
 231 274 193 276 156 276 c 0
 121 276 85 274 50 273 c 1
 50 299 l 1
 86 299 l 2
 122 299 129 312 129 379 c 2
 129 617 l 2
 129 631 128 635 124 636 c 2
 121 636 l 1
 41 602 l 1
 34 602 l 1
 30 634 l 1xec
156 0 m 1
 607 689 l 1
 659 689 l 1xec
 208 0 l 1
 156 0 l 1
417 122 m 1
 426 140 427 147 444 172 c 2
 602 400 l 1
 651 416 l 1
 660 413 l 1
 656 341 655 299 655 230 c 2
 655 153 l 1
 672 153 l 1
 674 153 l 2
 683 152 696 152 727 155 c 1
 727 104 l 1
 709 106 696 107 657 107 c 1
 657 71 l 2
 657 38 671 22 701 22 c 2
 722 22 l 1
 722 -3 l 1
 722 -3 661 0 622 0 c 0
 580 0 515 -3 515 -3 c 1
 515 22 l 1
 536 22 l 2
 580 22 595 34 595 71 c 2
 595 107 l 1
 422 107 l 1
 417 122 l 1
466 153 m 1
 595 153 l 1
 595 345 l 1
 466 153 l 1
EndSplineSet
Validated: 33
Ligature2: "'frac' Diagonal Fractions in Latin lookup 20 subtable" one fraction four
Ligature2: "'frac' Diagonal Fractions in Latin lookup 20 subtable" one slash four
EndChar

StartChar: ordmasculine
Encoding: 294 186 153
Width: 333
VWidth: 0
Flags: W
TeX: 692 0
HStem: 355 34<10 323> 416 20<133.288 211.318> 689 20<117.508 197.406>
VStem: 10 60<487.995 638.548> 263 60<491.445 636.834>
LayerCount: 2
Fore
SplineSet
10 355 m 1
 10 389 l 1
 323 389 l 1
 323 355 l 1
 10 355 l 1
10 558 m 0
 10 647 76 709 173 709 c 0
 261 709 323 650 323 567 c 0
 323 483 250 416 157 416 c 0
 69 416 10 473 10 558 c 0
70 579 m 0
 70 495 112 436 173 436 c 0
 227 436 263 482 263 551 c 0
 263 629 218 689 159 689 c 0
 102 689 70 650 70 579 c 0
EndSplineSet
Validated: 1
EndChar

StartChar: ordfeminine
Encoding: 295 170 154
Width: 333
VWidth: 0
Flags: W
TeX: 692 0
HStem: 361 34<24 310> 422 34<91.8414 143.382> 429 15<270.449 310> 677 32<92.7663 189.698>
VStem: 24 56<464.372 548.294> 214 52<502 581 600 658.484>
LayerCount: 2
Fore
SplineSet
24 361 m 1x9c
 24 395 l 1
 310 395 l 1
 310 361 l 1
 24 361 l 1x9c
24 493 m 0
 24 546 63 576 150 590 c 2
 214 600 l 1
 213 654 187 677 126 677 c 0
 98 677 93 674 82 656 c 2
 79 651 l 1
 76 645 l 1
 67 626 l 1
 50 630 l 1
 50 669 l 1
 85 689 l 2
 108 702 134 709 161 709 c 0
 205 709 235 696 253 670 c 0
 263 655 266 642 266 590 c 2
 266 488 l 2
 266 450 269 444 290 444 c 2
 310 444 l 1
 310 426 l 1
 299 427 288 427 285 428 c 0
 273 429 264 429 261 429 c 2xbc
 234 428 l 2
 225 428 217 427 217 427 c 1
 211 426 l 1
 214 477 l 1
 133 425 l 1
 119 423 111 422 101 422 c 0xdc
 54 422 24 449 24 493 c 0
80 503 m 0
 80 476 102 456 130 456 c 0xdc
 148 456 180 469 193 482 c 2
 214 502 l 1
 214 581 l 1
 115 569 80 548 80 503 c 0
EndSplineSet
Validated: 1
EndChar

StartChar: quotesinglbase
Encoding: 296 8218 155
Width: 278
VWidth: 0
Flags: W
TeX: 110 -153
HStem: -153 263
VStem: 22 188
LayerCount: 2
Fore
SplineSet
22 -143 m 1
 70 -66 94 1 100 80 c 1
 197 110 l 1
 210 97 l 1
 176 11 138 -56 81 -129 c 1
 37 -153 l 1
 22 -143 l 1
EndSplineSet
Validated: 1
EndChar

StartChar: guilsinglright
Encoding: 297 8250 156
Width: 331
VWidth: 0
Flags: W
TeX: 428 0
VStem: 66 199
LayerCount: 2
Fore
SplineSet
66 86 m 1
 185 248 l 1
 66 415 l 1
 89 428 l 1
 265 254 l 1
 265 242 l 1
 89 71 l 1
 66 86 l 1
EndSplineSet
Validated: 1
EndChar

StartChar: guilsinglleft
Encoding: 298 8249 157
Width: 331
VWidth: 0
Flags: W
TeX: 428 0
VStem: 66 199
LayerCount: 2
Fore
SplineSet
66 242 m 1
 66 254 l 1
 242 428 l 1
 265 415 l 1
 146 248 l 1
 265 86 l 1
 242 71 l 1
 66 242 l 1
EndSplineSet
Validated: 1
EndChar

StartChar: florin
Encoding: 299 402 158
Width: 500
VWidth: 0
Flags: W
TeX: 706 -262
HStem: -262 76<26.6563 87.2949> 364 44<127 225 320 416.949> 630 76<391.781 445.689>
LayerCount: 2
Fore
SplineSet
0 -262 m 1
 8 -227 11 -205 15 -173 c 1
 26 -166 l 1
 40 -180 54 -186 72 -186 c 0
 109 -186 125 -156 145 -52 c 2
 225 364 l 1
 117 359 l 1
 127 412 l 1
 234 408 l 1
 276 602 355 701 473 706 c 1
 465 677 462 655 459 614 c 1
 449 606 l 2
 446 608 445 608 441 612 c 0
 426 625 415 630 400 630 c 0
 370 630 357 613 347 558 c 2
 320 408 l 1
 425 412 l 1
 420 383 418 373 416 358 c 1
 382 361 356 363 311 364 c 1
 239 16 l 2
 201 -167 120 -261 0 -262 c 1
EndSplineSet
Validated: 1
EndChar

StartChar: yen
Encoding: 300 165 159
Width: 500
VWidth: 0
Flags: W
TeX: 692 0
HStem: -3 30<142 183 344 385> 207 39<71 227 300 456> 343 39<71 182 334 456> 681 13G<105 120 417.895 496>
VStem: 227 73<33.9092 207 246 330.232>
LayerCount: 2
Fore
SplineSet
5 650 m 1
 5 679 l 1
 97 700 l 2
 100 701 103 701 107 701 c 0
 133 701 146 684 167 625 c 0
 172 609 174 605 175 602 c 2
 279 341 l 1
 349 504 l 1
 426 694 l 1
 496 694 l 1
 496 679 l 1
 453 619 410 543 366 450 c 2
 334 382 l 1
 456 382 l 1
 456 343 l 1
 317 343 l 1
 304 314 300 297 300 278 c 2
 300 246 l 1
 456 246 l 1
 456 207 l 1
 300 207 l 1
 300 120 l 2
 300 42 304 33 344 30 c 2
 385 27 l 1
 385 -3 l 1
 342 -1 298 0 255 0 c 0
 217 0 180 -1 142 -3 c 1
 142 27 l 1
 183 30 l 2
 223 33 227 42 227 120 c 2
 227 207 l 1
 71 207 l 1
 71 246 l 1
 227 246 l 1
 227 262 l 2
 227 276 226 281 221 293 c 2
 200 343 l 1
 71 343 l 1
 71 382 l 1
 182 382 l 1
 107 542 l 2
 64 633 47 652 5 650 c 1
EndSplineSet
Validated: 33
EndChar

StartChar: sterling
Encoding: 301 163 160
Width: 500
VWidth: 0
Flags: W
TeX: 692 0
HStem: -10 79<306.799 433.971> 317 37<20 108 192 370> 647 47<282.08 410.901>
VStem: 108 84<216.25 316 355 545.516> 436 32<532 614.271> 444 26<106 158>
LayerCount: 2
Fore
SplineSet
12 -13 m 1xf4
 12 36 l 1
 21 45 35 55 50 63 c 0
 65 70 67 72 74 86 c 0
 94 126 108 207 108 286 c 2
 108 316 l 1
 12 313 l 1
 20 358 l 1
 108 355 l 1
 108 461 l 2
 108 526 141 581 207 629 c 0
 270 674 323 694 380 694 c 0
 421 694 444 688 478 668 c 1
 471 633 468 598 468 566 c 0
 468 558 468 547 469 532 c 1
 436 532 l 1xf8
 435 590 429 611 409 627 c 0
 392 640 367 647 338 647 c 0
 278 647 241 624 216 573 c 0
 200 539 192 494 192 443 c 2
 192 354 l 1
 374 360 l 1
 370 312 l 1
 189 317 l 1
 184 230 157 158 95 69 c 1
 132 74 172 78 228 76 c 2
 385 70 l 2
 395 70 402 69 408 69 c 0
 427 69 433 77 437 106 c 2
 444 158 l 1
 470 158 l 1
 470 10 l 1
 449 -7 441 -10 420 -10 c 0
 360 -10 297 -3 241 9 c 0
 185 22 144 28 79 32 c 1
 34 -13 l 1
 12 -13 l 1xf4
EndSplineSet
Validated: 33
EndChar

StartChar: cent
Encoding: 302 162 161
Width: 500
VWidth: 0
Flags: W
TeX: 562 -101
HStem: -14 50<241.734 400.002> 424 46<228 309>
VStem: 61 89<135.001 332.218> 406 28<314 365.333>
LayerCount: 2
Fore
SplineSet
61 222 m 0
 61 317 95 382 163 416 c 2
 243 456 l 2
 261 465 287 470 325 470 c 1
 352 562 l 1
 392 562 l 1
 365 470 l 1
 391 469 418 460 445 444 c 1
 437 395 434 360 434 314 c 1
 406 314 l 1
 397 380 l 1
 384 394 372 401 347 411 c 1
 241 58 l 1
 271 42 294 36 326 36 c 0
 360 36 390 44 439 64 c 1
 448 53 l 1
 428 20 l 1
 377 -4 336 -14 283 -14 c 0
 261 -14 246 -13 221 -9 c 1
 193 -101 l 1
 152 -101 l 1
 184 3 l 1
 142 25 122 42 100 74 c 0
 75 111 61 163 61 222 c 0
150 251 m 0
 150 217 155 185 164 156 c 0
 174 124 183 110 208 84 c 1
 309 419 l 1
 284 423 277 424 270 424 c 0
 194 424 150 360 150 251 c 0
EndSplineSet
Validated: 1
AlternateSubs2: "'aalt' Access All Alternates lookup 0 subtable" cent.oldstyle
AlternateSubs2: "'aalt' Access All Alternates in Latin lookup 0 subtable" cent.oldstyle
Substitution2: "'onum' Oldstyle Figures in Latin lookup 3 subtable" cent.oldstyle
EndChar

StartChar: Oogonek
Encoding: 303 490 162
Width: 786
VWidth: 0
GlyphClass: 3
Flags: W
TeX: 692 -250
HStem: -250 46<374.503 463.506> -20 42<308.253 369> 667 42<274.46 491.965>
VStem: 22 107<230.899 473.806> 293 69<-194.442 -84.0711> 483 26<-158.125 -138> 657 107<238.651 484.367>
AnchorPoint: "bot_acc" 401 -373 basechar 0
AnchorPoint: "dotbelow" 401 -373 basechar 0
AnchorPoint: "ogon_acc" 401 -373 basechar 0
AnchorPoint: "top_accu" 393 819 basechar 0
AnchorPoint: "dotabove" 393 819 basechar 0
LayerCount: 2
Fore
SplineSet
22 341 m 0
 22 561 174 709 402 709 c 0
 624 709 764 577 764 367 c 0
 764 191 655 49 497 -1 c 0
 460 -13 412 -28 395 -51 c 0
 375 -76 362 -104 362 -132 c 0
 362 -182 385 -204 410 -204 c 0
 439 -204 468 -189 475 -162 c 2
 483 -131 l 1
 509 -138 l 1
 509 -193 l 1
 472 -225 l 2
 447 -246 413 -250 381 -250 c 0
 322 -250 293 -201 293 -158 c 0
 293 -107 325 -58 369 -20 c 1
 168 -20 22 131 22 341 c 0
129 378 m 0
 129 164 242 22 410 22 c 0
 565 22 657 139 657 337 c 0
 657 545 556 667 385 667 c 0
 221 667 129 563 129 378 c 0
EndSplineSet
Validated: 1
AlternateSubs2: "'aalt' Access All Alternates lookup 0 subtable" oogonek.sc
AlternateSubs2: "'aalt' Access All Alternates in Latin lookup 0 subtable" oogonek.sc
Ligature2: "ccmp_lig subtable" O ogonekcomb
Substitution2: "'c2sc' Capitals to Small Capitals in Latin lookup 13 subtable" oogonek.sc
Position2: "'cpsp' Capital Spacing in Latin lookup 12 subtable" dx=7 dy=0 dh=14 dv=0
EndChar

StartChar: oogonek
Encoding: 304 491 163
Width: 546
VWidth: 0
GlyphClass: 3
Flags: W
TeX: 449 -250
HStem: -250 46<245.503 334.506> 436 33<196.245 321.821>
VStem: 32 93<128.027 325.556> 164 69<-194.442 -83.8836> 354 26<-158.125 -138> 421 93<130.919 319.754>
AnchorPoint: "bot_acc" 272 -373 basechar 0
AnchorPoint: "dotbelow" 272 -373 basechar 0
AnchorPoint: "ogon_acc" 272 -373 basechar 0
AnchorPoint: "top_accl" 273 592 basechar 0
AnchorPoint: "dotabove" 273 592 basechar 0
LayerCount: 2
Fore
SplineSet
32 217 m 0
 32 366 133 469 279 469 c 0
 416 469 514 372 514 237 c 0
 514 125 452 36 356 -1 c 0
 323 -14 281 -30 266 -51 c 0
 246 -76 233 -104 233 -132 c 0
 233 -182 256 -204 281 -204 c 0
 310 -204 339 -189 346 -162 c 2
 354 -131 l 1
 380 -138 l 1
 380 -193 l 1
 343 -225 l 2
 318 -246 284 -250 252 -250 c 0
 193 -250 164 -201 164 -158 c 0
 164 -107 196 -57 240 -20 c 1
 117 -15 32 80 32 217 c 0
125 251 m 0
 125 109 191 13 289 13 c 0
 370 13 421 85 421 200 c 0
 421 336 353 436 261 436 c 0
 173 436 125 371 125 251 c 0
EndSplineSet
Validated: 1
AlternateSubs2: "'aalt' Access All Alternates lookup 0 subtable" oogonek.sc
AlternateSubs2: "'aalt' Access All Alternates in Latin lookup 0 subtable" oogonek.sc
Ligature2: "ccmp_lig subtable" o ogonekcomb
Substitution2: "'smcp' Lowercase to Small Capitals in Latin lookup 2 subtable" oogonek.sc
EndChar

StartChar: Ohorn
Encoding: 305 416 164
Width: 786
VWidth: 0
GlyphClass: 2
Flags: W
TeX: 692 0
HStem: -20 42<307.049 500.607> 667 42<274.46 494.46>
VStem: 22 107<230.899 473.806> 657 107<241.36 484.258>
AnchorPoint: "bot_acc" 402 -143 basechar 0
AnchorPoint: "dotbelow" 402 -143 basechar 0
AnchorPoint: "ogon_acc" 402 -143 basechar 0
AnchorPoint: "top_accu" 402 819 basechar 0
AnchorPoint: "dotabove" 402 819 basechar 0
LayerCount: 2
Fore
SplineSet
22 341 m 0
 22 561 174 709 402 709 c 0
 490 709 566 688 624 649 c 1
 655 669 661 698 661 734 c 0
 661 743 660 752 660 762 c 1
 705 771 714 774 746 781 c 1
 757 774 l 1
 749 747 717 664 658 623 c 1
 726 564 764 476 764 367 c 0
 764 147 594 -20 370 -20 c 0
 168 -20 22 131 22 341 c 0
129 378 m 0
 129 164 242 22 410 22 c 0
 565 22 657 139 657 337 c 0
 657 545 556 667 385 667 c 0
 221 667 129 563 129 378 c 0
EndSplineSet
Validated: 1
AlternateSubs2: "'aalt' Access All Alternates lookup 0 subtable" ohorn.sc
AlternateSubs2: "'aalt' Access All Alternates in Latin lookup 0 subtable" ohorn.sc
Substitution2: "'c2sc' Capitals to Small Capitals in Latin lookup 13 subtable" ohorn.sc
Position2: "'cpsp' Capital Spacing in Latin lookup 12 subtable" dx=7 dy=0 dh=14 dv=0
EndChar

StartChar: Uhorn
Encoding: 306 431 165
Width: 778
VWidth: 0
GlyphClass: 2
Flags: W
TeX: 692 0
HStem: -20 62<287.063 522.25> 662 30<12 60 257 305 523 567>
VStem: 111 95<121.943 653.814> 618 46<138.51 612.174>
AnchorPoint: "bot_acc" 412 -143 basechar 0
AnchorPoint: "dotbelow" 412 -143 basechar 0
AnchorPoint: "ogon_acc" 412 -143 basechar 0
AnchorPoint: "top_accu" 412 819 basechar 0
AnchorPoint: "dotabove" 412 819 basechar 0
LayerCount: 2
Fore
SplineSet
12 662 m 1
 12 692 l 1
 61 690 109 689 158 689 c 0
 207 689 256 690 305 692 c 1
 305 662 l 1
 257 659 l 2
 211 656 206 648 206 569 c 2
 206 225 l 2
 206 97 266 42 405 42 c 0
 550 42 618 108 618 249 c 2
 618 569 l 2
 618 647 613 656 567 659 c 2
 523 662 l 1
 523 692 l 1
 664 692 l 1
 664 647 l 1
 698 667 705 697 705 734 c 0
 705 743 704 752 704 762 c 1
 749 771 758 774 790 781 c 1
 801 774 l 1
 792 742 747 629 664 605 c 1
 664 280 l 2
 664 169 642 94 595 47 c 0
 550 1 481 -20 378 -20 c 0
 278 -20 207 1 167 42 c 0
 129 81 111 136 111 214 c 2
 111 569 l 2
 111 648 106 656 60 659 c 2
 12 662 l 1
EndSplineSet
Validated: 1
AlternateSubs2: "'aalt' Access All Alternates lookup 0 subtable" uhorn.sc
AlternateSubs2: "'aalt' Access All Alternates in Latin lookup 0 subtable" uhorn.sc
Substitution2: "'c2sc' Capitals to Small Capitals in Latin lookup 13 subtable" uhorn.sc
Position2: "'cpsp' Capital Spacing in Latin lookup 12 subtable" dx=7 dy=0 dh=14 dv=0
EndChar

StartChar: ohorn
Encoding: 307 417 166
Width: 546
VWidth: 0
GlyphClass: 2
Flags: W
TeX: 449 0
HStem: -20 33<226.049 345.429> 436 33<196.245 321.057>
VStem: 32 93<126.887 325.556> 421 93<132.285 321.619>
AnchorPoint: "bot_acc" 279 -143 basechar 0
AnchorPoint: "dotbelow" 279 -143 basechar 0
AnchorPoint: "ogon_acc" 279 -143 basechar 0
AnchorPoint: "top_accl" 279 592 basechar 0
AnchorPoint: "dotabove" 279 592 basechar 0
LayerCount: 2
Fore
SplineSet
32 217 m 0
 32 366 133 469 279 469 c 0
 345 469 402 446 443 407 c 1
 466 427 471 453 471 485 c 0
 471 494 470 503 470 513 c 1
 515 522 524 525 556 532 c 1
 567 525 l 1
 559 498 528 418 471 376 c 1
 498 338 514 291 514 237 c 0
 514 87 404 -20 250 -20 c 0
 121 -20 32 76 32 217 c 0
125 251 m 0
 125 109 191 13 289 13 c 0
 370 13 421 85 421 200 c 0
 421 336 353 436 261 436 c 0
 173 436 125 371 125 251 c 0
EndSplineSet
Validated: 1
AlternateSubs2: "'aalt' Access All Alternates lookup 0 subtable" ohorn.sc
AlternateSubs2: "'aalt' Access All Alternates in Latin lookup 0 subtable" ohorn.sc
Substitution2: "'smcp' Lowercase to Small Capitals in Latin lookup 2 subtable" ohorn.sc
EndChar

StartChar: uhorn
Encoding: 308 432 167
Width: 640
VWidth: 0
GlyphClass: 2
Flags: W
TeX: 449 0
HStem: -12 61<212.319 327.575> -3 30<540 581> 400 28<18 91.8721 338 411.872> 449 20G<148.5 183 468.5 503>
VStem: 99 84<79.125 398.177> 419 84<31.9028 89 109.016 363.174>
AnchorPoint: "bot_acc" 301 -143 basechar 0
AnchorPoint: "dotbelow" 301 -143 basechar 0
AnchorPoint: "ogon_acc" 301 -143 basechar 0
AnchorPoint: "top_accl" 301 592 basechar 0
AnchorPoint: "dotabove" 301 592 basechar 0
LayerCount: 2
Fore
SplineSet
18 400 m 1xbc
 18 428 l 1
 71 434 123 448 174 469 c 1
 183 465 l 1
 183 170 l 2
 183 126 190 95 204 79 c 0
 220 60 248 49 283 49 c 0xbc
 322 49 354 63 382 91 c 0
 405 114 419 142 419 164 c 2
 419 327 l 2
 419 393 415 400 375 400 c 2
 338 400 l 1
 338 428 l 1
 391 434 443 448 494 469 c 1
 503 465 l 1
 503 398 l 1
 537 418 544 448 544 485 c 0
 544 494 543 503 543 513 c 1
 588 522 597 525 629 532 c 1
 640 525 l 1
 631 493 586 380 503 356 c 1
 503 102 l 2
 503 38 506 32 540 30 c 2
 581 27 l 1
 581 -3 l 1
 512 0 512 0 498 0 c 0
 483 0 482 0 415 -3 c 1
 418 44 419 60 419 89 c 1
 352 27 l 2x7c
 325 2 285 -12 240 -12 c 0
 183 -12 145 3 123 33 c 0
 105 58 99 89 99 159 c 2
 99 327 l 2
 99 393 95 400 55 400 c 2
 18 400 l 1xbc
EndSplineSet
Validated: 1
AlternateSubs2: "'aalt' Access All Alternates lookup 0 subtable" uhorn.sc
AlternateSubs2: "'aalt' Access All Alternates in Latin lookup 0 subtable" uhorn.sc
Substitution2: "'smcp' Lowercase to Small Capitals in Latin lookup 2 subtable" uhorn.sc
EndChar

StartChar: space_uni0309
Encoding: 309 -1 168
Width: 333
VWidth: 0
Flags: W
TeX: 703 0
HStem: 663 40<119.335 195.743>
VStem: 130 35<551 567.627> 197 57<610.416 659.175>
LayerCount: 2
Fore
SplineSet
79 640 m 1
 103 689 l 1
 131 698 148 703 166 703 c 0
 217 703 254 677 254 644 c 0
 254 623 234 602 203 582 c 0
 171 560 165 558 165 551 c 1
 165 551 170 545 182 534 c 1
 157 522 l 1
 149 525 130 542 130 555 c 0
 130 569 137 579 165 602 c 0
 190 621 197 629 197 639 c 0
 197 652 178 663 152 663 c 0
 136 663 125 659 122 654 c 2
 110 633 l 1
 79 640 l 1
EndSplineSet
Validated: 1
EndChar

StartChar: space_uni0309.cap
Encoding: 310 -1 169
Width: 333
VWidth: 0
Flags: W
TeX: 687 0
HStem: 647 40<119.335 195.743>
VStem: 130 35<535 551.627> 197 57<594.416 643.175>
LayerCount: 2
Fore
SplineSet
79 624 m 1
 103 673 l 1
 131 682 148 687 166 687 c 0
 217 687 254 661 254 628 c 0
 254 607 234 586 203 566 c 0
 171 544 165 542 165 535 c 1
 165 535 170 529 182 518 c 1
 157 506 l 1
 149 509 130 526 130 539 c 0
 130 553 137 563 165 586 c 0
 190 605 197 613 197 623 c 0
 197 636 178 647 152 647 c 0
 136 647 125 643 122 638 c 2
 110 617 l 1
 79 624 l 1
EndSplineSet
Validated: 1
EndChar

StartChar: zero.taboldstyle
Encoding: 311 -1 170
Width: 500
VWidth: 0
Flags: W
TeX: 479 -20
HStem: -20 35<179.277 317.799> 444 35<181.981 328.027>
VStem: 25 84<98.1641 339.569> 391 84<129.114 363.892>
LayerCount: 2
Fore
SplineSet
25 219 m 0
 25 369 108 479 263 479 c 0
 400 479 475 381 475 261 c 0
 475 86 389 -20 238 -20 c 0
 148 -20 25 21 25 219 c 0
109 255 m 0
 109 71 154 15 251 15 c 0
 326 15 391 63 391 211 c 0
 391 410 342 444 245 444 c 0
 150 444 109 364 109 255 c 0
EndSplineSet
Validated: 1
AlternateSubs2: "'aalt' Access All Alternates lookup 0 subtable" zero.oldstyle zero
AlternateSubs2: "'aalt' Access All Alternates in Latin lookup 0 subtable" zero.oldstyle zero
Substitution2: "'pnum' Proportional Numbers in Latin lookup 5 subtable" zero.oldstyle
Substitution2: "'lnum' Lining Figures in Latin lookup 4 subtable" zero
EndChar

StartChar: one.taboldstyle
Encoding: 312 -1 171
Width: 500
VWidth: 0
Flags: W
TeX: 485 -3
HStem: -3 30<96 152 366 418> 346 43<67 77>
VStem: 217 84<37.8656 404.993>
LayerCount: 2
Fore
SplineSet
60 389 m 1
 151 421 222 451 287 485 c 1
 301 480 l 1
 301 96 l 2
 301 44 311 33 366 30 c 2
 418 27 l 1
 418 -3 l 1
 366 -1 313 0 261 0 c 0
 206 0 151 -1 96 -3 c 1
 96 27 l 1
 152 30 l 2
 206 33 217 44 217 96 c 2
 217 372 l 2
 217 396 215 405 209 405 c 2
 206 404 l 1
 77 346 l 1
 67 346 l 1
 60 389 l 1
EndSplineSet
Validated: 1
AlternateSubs2: "'aalt' Access All Alternates lookup 0 subtable" one.oldstyle one
AlternateSubs2: "'aalt' Access All Alternates in Latin lookup 0 subtable" one.oldstyle one
Substitution2: "'pnum' Proportional Numbers in Latin lookup 5 subtable" one.oldstyle
Substitution2: "'lnum' Lining Figures in Latin lookup 4 subtable" one
EndChar

StartChar: two.taboldstyle
Encoding: 313 -1 172
Width: 500
VWidth: 0
Flags: W
TeX: 478 -3
HStem: -3 21G<21 21 467 468> 0 77<142 385.501> 401 77<120.206 290.964>
VStem: 326 90<266.088 366.508>
LayerCount: 2
Fore
SplineSet
21 -3 m 1xb0
 21 23 l 1
 67 74 l 1
 235 176 326 237 326 299 c 0
 326 369 286 401 200 401 c 0
 133 401 90 373 81 348 c 2
 68 312 l 1
 39 312 l 1
 56 408 l 1
 105 458 154 478 226 478 c 0
 353 478 416 433 416 329 c 0
 416 252 327 185 142 77 c 1x70
 319 77 372 81 468 87 c 1
 466 65 466 55 466 42 c 0
 466 28 466 18 468 -3 c 1xb0
 468 -3 328 0 239 0 c 0x70
 152 0 21 -3 21 -3 c 1xb0
EndSplineSet
Validated: 1
AlternateSubs2: "'aalt' Access All Alternates lookup 0 subtable" two.oldstyle two
AlternateSubs2: "'aalt' Access All Alternates in Latin lookup 0 subtable" two.oldstyle two
Substitution2: "'pnum' Proportional Numbers in Latin lookup 5 subtable" two.oldstyle
Substitution2: "'lnum' Lining Figures in Latin lookup 4 subtable" two
EndChar

StartChar: three.taboldstyle
Encoding: 314 -1 173
Width: 500
VWidth: 0
Flags: W
TeX: 477 -238
HStem: -238 45<81.3738 247.644> 122 34<165.822 267.459> 410 67<139.913 284.208>
VStem: 336 82<252.514 360.8> 369 93<-65.5367 66.5717>
LayerCount: 2
Fore
SplineSet
23 -171 m 1xe8
 37 -147 l 1
 108 -187 118 -193 171 -193 c 0
 222 -193 368 -131 369 -22 c 0xe8
 369 69 321 122 238 122 c 0
 211 122 192 117 154 100 c 1
 147 106 l 1
 159 159 l 1
 159 159 198 156 206 156 c 0
 277 156 336 219 336 294 c 0
 336 357 283 410 218 410 c 0
 166 410 103 376 92 342 c 1
 74 306 l 1
 43 306 l 1
 72 410 l 1
 120 458 165 477 233 477 c 0
 344 477 418 418 418 329 c 0xf0
 418 270 388 224 308 162 c 1
 358 153 381 145 406 127 c 0
 442 102 462 60 462 12 c 0
 462 -106 295 -238 153 -238 c 0
 115 -238 73 -225 23 -171 c 1xe8
EndSplineSet
Validated: 1
AlternateSubs2: "'aalt' Access All Alternates lookup 0 subtable" three.oldstyle three
AlternateSubs2: "'aalt' Access All Alternates in Latin lookup 0 subtable" three.oldstyle three
Substitution2: "'pnum' Proportional Numbers in Latin lookup 5 subtable" three.oldstyle
Substitution2: "'lnum' Lining Figures in Latin lookup 4 subtable" three
EndChar

StartChar: four.taboldstyle
Encoding: 315 -1 174
Width: 500
VWidth: 0
Flags: W
TeX: 513 -225
HStem: -4 21G<458 472> 0 64<65 280 364 470.692>
VStem: 280 84<-195 0 64 415.84>
LayerCount: 2
Fore
SplineSet
2 23 m 1x60
 285 486 l 1
 359 513 l 1
 371 508 l 1
 366 467 364 381 364 203 c 2
 364 64 l 1
 391 64 l 2x60
 423 64 472 67 472 67 c 1
 472 -4 l 1xa0
 444 -1 423 0 364 0 c 1
 364 -195 l 1
 280 -225 l 1
 280 0 l 1
 13 0 l 1
 2 23 l 1x60
65 64 m 1
 280 64 l 1
 280 416 l 1
 65 64 l 1
EndSplineSet
Validated: 1
AlternateSubs2: "'aalt' Access All Alternates lookup 0 subtable" four.oldstyle four
AlternateSubs2: "'aalt' Access All Alternates in Latin lookup 0 subtable" four.oldstyle four
Substitution2: "'pnum' Proportional Numbers in Latin lookup 5 subtable" four.oldstyle
Substitution2: "'lnum' Lining Figures in Latin lookup 4 subtable" four
EndChar

StartChar: five.taboldstyle
Encoding: 316 -1 175
Width: 500
VWidth: 0
Flags: W
TeX: 471 -238
HStem: -238 45<81.3738 232.195> 159 69<170.959 303.734> 387 79<127 431.923>
VStem: 75 43<178 340.556> 81 46<224.444 387> 354 85<-42.7821 104.891>
LayerCount: 2
Fore
SplineSet
23 -171 m 1xf4
 37 -147 l 1
 108 -187 118 -193 171 -193 c 0
 222 -193 354 -108 354 3 c 0
 354 111 314 159 218 159 c 0
 169 159 142 145 95 98 c 1
 75 104 l 1xf4
 78 148 81 241 81 329 c 2
 79 466 l 1
 84 471 l 1
 84 471 190 466 258 466 c 0
 326 466 432 471 432 471 c 1
 437 466 l 1
 435 448 435 442 435 426 c 0
 435 411 435 405 437 387 c 1
 432 382 l 1
 127 387 l 1xec
 118 178 l 1
 180 215 216 228 264 228 c 0
 378 228 439 168 439 55 c 0
 439 -85 295 -238 153 -238 c 0
 115 -238 73 -225 23 -171 c 1xf4
EndSplineSet
Validated: 1
AlternateSubs2: "'aalt' Access All Alternates lookup 0 subtable" five.oldstyle five
AlternateSubs2: "'aalt' Access All Alternates in Latin lookup 0 subtable" five.oldstyle five
Substitution2: "'pnum' Proportional Numbers in Latin lookup 5 subtable" five.oldstyle
Substitution2: "'lnum' Lining Figures in Latin lookup 4 subtable" five
EndChar

StartChar: six.taboldstyle
Encoding: 317 -1 176
Width: 500
VWidth: 0
Flags: W
TeX: 692 -20
HStem: -20 33<194.817 311.233> 349 60<209.435 321.315> 669 20G<331 416>
VStem: 32 91<117.412 344.125> 382 86<113.522 281.09>
LayerCount: 2
Fore
SplineSet
32 247 m 0
 32 384 88 506 191 593 c 0
 242 637 283 657 379 689 c 1
 416 672 l 1
 416 664 l 1
 236 610 152 512 131 331 c 1
 197 385 234 409 293 409 c 0
 399 409 468 334 468 219 c 0
 468 83 371 -20 241 -20 c 0
 112 -20 32 82 32 247 c 0
123 220 m 0
 123 86 169 13 254 13 c 0
 331 13 382 80 382 184 c 0
 382 283 331 349 255 349 c 0
 207 349 160 325 138 291 c 0
 127 274 123 255 123 220 c 0
EndSplineSet
Validated: 1
AlternateSubs2: "'aalt' Access All Alternates lookup 0 subtable" six.oldstyle six
AlternateSubs2: "'aalt' Access All Alternates in Latin lookup 0 subtable" six.oldstyle six
Substitution2: "'pnum' Proportional Numbers in Latin lookup 5 subtable" six.oldstyle
Substitution2: "'lnum' Lining Figures in Latin lookup 4 subtable" six
EndChar

StartChar: seven.taboldstyle
Encoding: 318 -1 177
Width: 500
VWidth: 0
Flags: W
TeX: 454 -238
HStem: 368 86<91.0941 409>
LayerCount: 2
Fore
SplineSet
44 242 m 1
 44 242 47 304 47 344 c 0
 47 385 44 449 44 449 c 1
 54 454 l 1
 151 450 168 449 273 449 c 0
 380 449 389 450 497 454 c 1
 497 424 l 1
 314 95 l 2
 225 -64 199 -129 157 -238 c 1
 157 -238 129 -235 111 -235 c 0
 93 -235 65 -238 65 -238 c 1
 56 -225 l 1
 300 167 l 2
 338 228 369 286 409 368 c 1
 142 368 l 2
 96 368 89 360 81 298 c 2
 74 242 l 1
 44 242 l 1
EndSplineSet
Validated: 1
AlternateSubs2: "'aalt' Access All Alternates lookup 0 subtable" seven.oldstyle seven
AlternateSubs2: "'aalt' Access All Alternates in Latin lookup 0 subtable" seven.oldstyle seven
Substitution2: "'pnum' Proportional Numbers in Latin lookup 5 subtable" seven.oldstyle
Substitution2: "'lnum' Lining Figures in Latin lookup 4 subtable" seven
EndChar

StartChar: eight.taboldstyle
Encoding: 319 -1 178
Width: 500
VWidth: 0
Flags: W
TeX: 692 -20
HStem: -20 34<170.763 307.229> 655 34<180.917 311.428>
VStem: 30 71<78.6559 245.304> 53 75<480.566 592.159> 368 68<472.72 606.887> 385 79<112.652 230.823>
LayerCount: 2
Fore
SplineSet
30 159 m 0xe4
 30 211 50 256 88 294 c 0
 110 315 127 326 168 345 c 1
 80 402 53 440 53 508 c 0
 53 613 140 689 259 689 c 0
 365 689 436 631 436 545 c 0xd8
 436 485 404 443 313 381 c 1
 427 329 464 286 464 206 c 0
 464 82 356 -20 226 -20 c 0
 113 -20 30 56 30 159 c 0xe4
101 167 m 0xe4
 101 74 156 14 241 14 c 0
 322 14 385 80 385 164 c 0
 385 218 347 267 284 295 c 2
 204 331 l 1
 130 286 101 240 101 167 c 0xe4
128 544 m 0xd8
 128 494 160 454 223 423 c 2
 278 396 l 1
 343 438 368 477 368 534 c 0
 368 607 320 655 247 655 c 0
 176 655 128 610 128 544 c 0xd8
EndSplineSet
Validated: 1
AlternateSubs2: "'aalt' Access All Alternates lookup 0 subtable" eight.oldstyle eight
AlternateSubs2: "'aalt' Access All Alternates in Latin lookup 0 subtable" eight.oldstyle eight
Substitution2: "'pnum' Proportional Numbers in Latin lookup 5 subtable" eight.oldstyle
Substitution2: "'lnum' Lining Figures in Latin lookup 4 subtable" eight
EndChar

StartChar: nine.taboldstyle
Encoding: 320 -1 179
Width: 500
VWidth: 0
Flags: W
TeX: 479 -230
HStem: -230 25<82 101.157> 46 61<170.595 284.057> 446 33<175.637 299.143>
VStem: 20 86<182.429 347.479> 370 87<118.397 340.044>
LayerCount: 2
Fore
SplineSet
20 245 m 0
 20 379 116 479 244 479 c 0
 376 479 457 376 457 207 c 0
 457 73 406 -42 309 -125 c 0
 255 -171 207 -194 96 -230 c 1
 62 -213 l 1
 62 -205 l 1
 243 -161 352 -38 360 130 c 1
 290 72 l 2
 272 57 233 46 199 46 c 0
 95 46 20 130 20 245 c 0
106 282 m 0
 106 178 160 107 240 107 c 0
 317 107 370 169 370 261 c 0
 370 306 358 355 340 387 c 0
 318 427 285 446 240 446 c 0
 158 446 106 383 106 282 c 0
EndSplineSet
Validated: 1
AlternateSubs2: "'aalt' Access All Alternates lookup 0 subtable" nine.oldstyle nine
AlternateSubs2: "'aalt' Access All Alternates in Latin lookup 0 subtable" nine.oldstyle nine
Substitution2: "'pnum' Proportional Numbers in Latin lookup 5 subtable" nine.oldstyle
Substitution2: "'lnum' Lining Figures in Latin lookup 4 subtable" nine
EndChar

StartChar: dcroat
Encoding: 321 273 180
Width: 611
VWidth: 0
Flags: W
TeX: 726 -12
HStem: -12 57<201.706 312.998> -3 30<533 579> 422 47<211.897 353.552> 555 36<267 412 496 579> 661 28<331 408.266> 706 20G<465 496>
VStem: 35 87<139.678 321.643> 412 84<112.284 376.626 437 555 591 660.869>
LayerCount: 2
Fore
SplineSet
35 216 m 0xbf
 35 301 72 374 129 404 c 2
 217 450 l 2
 242 463 266 469 293 469 c 0
 328 469 356 461 412 437 c 1
 412 555 l 1
 267 555 l 1
 267 591 l 1
 412 591 l 1
 412 620 l 2
 412 650 405 661 387 661 c 2
 331 661 l 1
 331 689 l 1
 410 701 443 709 487 726 c 1
 496 718 l 1
 496 591 l 1
 579 591 l 1
 579 555 l 1
 496 555 l 1
 496 102 l 2
 496 39 499 32 533 30 c 2
 579 27 l 1
 579 -3 l 1
 558 -2 538 -2 531 -1 c 0
 510 0 496 0 488 0 c 2
 411 -3 l 1x7f
 416 89 l 1
 305 -4 l 2
 300 -8 277 -12 257 -12 c 0
 192 -12 145 1 111 30 c 0
 62 70 35 136 35 216 c 0xbf
122 249 m 0
 122 130 185 45 273 45 c 0xbf
 320 45 369 76 397 123 c 0
 410 146 412 156 412 221 c 2
 412 350 l 2
 412 358 400 371 379 385 c 0
 344 409 304 422 266 422 c 0
 176 422 122 358 122 249 c 0
EndSplineSet
Validated: 1
AlternateSubs2: "'aalt' Access All Alternates lookup 0 subtable" dcroat.sc
AlternateSubs2: "'aalt' Access All Alternates in Latin lookup 0 subtable" dcroat.sc
Substitution2: "'smcp' Lowercase to Small Capitals in Latin lookup 2 subtable" dcroat.sc
EndChar

StartChar: perthousand
Encoding: 137 8240 181
Width: 1000
VWidth: 0
Flags: W
TeX: 692 0
HStem: 0 23<462.877 530.814 785.877 853.814> 286 23<467.224 535.19 790.224 858.19> 380 23<164.877 232.814> 666 23<169.224 237.19> 689 20G<513.273 564>
VStem: 63 64<443.746 616.433> 276 64<454.769 622.439> 361 64<63.746 236.433> 574 64<74.7689 242.439> 684 64<63.746 236.433> 897 64<74.7689 242.439>
LayerCount: 2
Fore
SplineSet
63 528 m 0xf7e0
 63 622 123 689 206 689 c 0
 282 689 340 625 340 541 c 0
 340 449 278 380 197 380 c 0
 119 380 63 442 63 528 c 0xf7e0
127 529 m 0
 127 448 152 403 198 403 c 0
 246 403 276 455 276 537 c 0
 276 618 249 666 204 666 c 0
 155 666 127 616 127 529 c 0
133 -20 m 1
 524 709 l 1
 564 709 l 1xefe0
 173 -20 l 1
 133 -20 l 1
361 148 m 0
 361 242 421 309 504 309 c 0
 580 309 638 245 638 161 c 0
 638 69 576 0 495 0 c 0
 417 0 361 62 361 148 c 0
425 149 m 0
 425 68 450 23 496 23 c 0
 544 23 574 75 574 157 c 0
 574 238 547 286 502 286 c 0
 453 286 425 236 425 149 c 0
684 148 m 0
 684 242 744 309 827 309 c 0
 903 309 961 245 961 161 c 0
 961 69 899 0 818 0 c 0
 740 0 684 62 684 148 c 0
748 149 m 0
 748 68 773 23 819 23 c 0
 867 23 897 75 897 157 c 0
 897 238 870 286 825 286 c 0
 776 286 748 236 748 149 c 0
EndSplineSet
Validated: 1
EndChar

StartChar: uni203D
Encoding: 322 8253 182
Width: 444
VWidth: 0
Flags: W
TeX: 734 -5
HStem: -5 116<155.305 242.932>
VStem: 141 116<9.49126 96.1719> 148 43<199.309 294.675> 302 93<463.582 582.079>
LayerCount: 2
Fore
SplineSet
43 546 m 1xb0
 81 659 l 1
 103 670 123 678 141 683 c 1xd0
 140 696 l 1
 215 734 l 1
 249 734 l 1
 249 709 l 1
 249 691 l 1
 334 677 395 616 395 540 c 0
 395 483 370 444 285 366 c 0
 204 293 191 276 191 243 c 0
 191 227 197 214 213 195 c 1
 192 181 l 1
 162 200 148 224 148 254 c 0
 148 275 154 294 174 322 c 1
 173 345 l 1
 146 625 l 1
 119 619 100 606 92 586 c 2
 72 538 l 1
 43 546 l 1xb0
141 53 m 0
 141 83 168 111 198 111 c 0
 229 111 257 83 257 53 c 0
 257 22 229 -5 197 -5 c 0
 168 -5 141 23 141 53 c 0
215 371 m 2
 218 375 222 378 225 382 c 0
 284 447 302 479 302 519 c 0
 302 562 279 596 242 614 c 1
 215 371 l 2
EndSplineSet
Validated: 1
EndChar

StartChar: lira
Encoding: 323 8356 183
Width: 500
VWidth: 0
Flags: W
TeX: 694 -13
HStem: -10 79<306.799 433.971> 268 37<20 108 192 370> 381 40<20 108 192 370> 647 47<282.08 410.901>
VStem: 108 84<184.94 267 306 381 421 545.516> 436 32<532 614.271> 444 26<106 158>
LayerCount: 2
Fore
SplineSet
12 -13 m 1xfa
 12 36 l 1
 21 45 35 55 50 63 c 0
 65 70 67 72 74 86 c 0
 94 126 108 158 108 237 c 2
 108 267 l 1
 12 264 l 1
 20 309 l 1
 108 306 l 1
 108 381 l 1
 12 379 l 1
 20 424 l 1
 108 421 l 1
 108 461 l 2
 108 526 141 581 207 629 c 0
 270 674 323 694 380 694 c 0
 421 694 444 688 478 668 c 1
 471 633 468 598 468 566 c 0
 468 558 468 547 469 532 c 1
 436 532 l 1xfc
 435 590 429 611 409 627 c 0
 392 640 367 647 338 647 c 0
 278 647 241 624 216 573 c 0
 200 539 192 494 192 443 c 2
 192 421 l 1
 374 426 l 1
 370 378 l 1
 192 382 l 1
 192 305 l 1
 374 311 l 1
 370 263 l 1
 189 268 l 1
 184 181 157 158 95 69 c 1
 132 74 172 78 228 76 c 2
 385 70 l 2
 395 70 402 69 408 69 c 0
 427 69 433 77 437 106 c 2
 444 158 l 1
 470 158 l 1
 470 10 l 1
 449 -7 441 -10 420 -10 c 0
 360 -10 297 -3 241 9 c 0
 185 22 144 28 79 32 c 1
 34 -13 l 1
 12 -13 l 1xfa
EndSplineSet
Validated: 33
EndChar

